G75*
%MOIN*%
%OFA0B0*%
%FSLAX24Y24*%
%IPPOS*%
%LPD*%
%AMOC8*
5,1,8,0,0,1.08239X$1,22.5*
%
%ADD10R,0.0591X0.0591*%
%ADD11R,0.0472X0.0472*%
%ADD12R,0.0433X0.0394*%
%ADD13R,0.0550X0.0137*%
%ADD14R,0.0197X0.0984*%
%ADD15R,0.0787X0.0984*%
%ADD16R,0.0394X0.0433*%
D10*
X000851Y003140D03*
X000851Y004140D03*
X002229Y004140D03*
X002229Y003140D03*
D11*
X013427Y017140D03*
X013427Y017840D03*
X014253Y017840D03*
X014253Y017140D03*
D12*
X014140Y016375D03*
X014140Y015705D03*
X013240Y015705D03*
X013240Y016375D03*
X004740Y005675D03*
X004740Y005005D03*
X004140Y005005D03*
X004140Y005675D03*
D13*
X008801Y016077D03*
X008801Y016333D03*
X008801Y016588D03*
X008801Y016844D03*
X008801Y017100D03*
X008801Y017356D03*
X008801Y017612D03*
X008801Y017868D03*
X008801Y018124D03*
X008801Y018380D03*
X008801Y018636D03*
X008801Y018892D03*
X008801Y019147D03*
X008801Y019403D03*
X011679Y019403D03*
X011679Y019147D03*
X011679Y018892D03*
X011679Y018636D03*
X011679Y018380D03*
X011679Y018124D03*
X011679Y017868D03*
X011679Y017612D03*
X011679Y017356D03*
X011679Y017100D03*
X011679Y016844D03*
X011679Y016588D03*
X011679Y016333D03*
X011679Y016077D03*
D14*
X005470Y017356D03*
X005155Y017356D03*
X004840Y017356D03*
X004525Y017356D03*
X004210Y017356D03*
D15*
X003068Y017356D03*
X003068Y019521D03*
X006612Y019521D03*
X006612Y017356D03*
D16*
X007940Y017905D03*
X007940Y018575D03*
M02*
