G75*
%MOIN*%
%OFA0B0*%
%FSLAX24Y24*%
%IPPOS*%
%LPD*%
%AMOC8*
5,1,8,0,0,1.08239X$1,22.5*
%
%ADD10R,0.0600X0.0600*%
%ADD11OC8,0.0600*%
%ADD12R,0.0394X0.0433*%
%ADD13R,0.0709X0.0492*%
%ADD14C,0.0560*%
%ADD15R,0.0433X0.0394*%
%ADD16C,0.0100*%
%ADD17C,0.0240*%
%ADD18C,0.0080*%
%ADD19C,0.0270*%
%ADD20C,0.0120*%
%ADD21C,0.0160*%
D10*
X007940Y001140D03*
X007940Y002140D03*
X007940Y003140D03*
X007940Y004140D03*
X011340Y013640D03*
X012340Y013640D03*
X013340Y013640D03*
X003640Y013640D03*
X002640Y013640D03*
X001640Y013640D03*
D11*
X001640Y012640D03*
X001640Y011640D03*
X001640Y010640D03*
X001640Y009640D03*
X001640Y008640D03*
X001640Y007640D03*
X001640Y006640D03*
X002640Y006640D03*
X002640Y007640D03*
X002640Y008640D03*
X002640Y009640D03*
X002640Y010640D03*
X002640Y011640D03*
X002640Y012640D03*
X003640Y012640D03*
X003640Y011640D03*
X003640Y010640D03*
X003640Y009640D03*
X003640Y008640D03*
X003640Y007640D03*
X003640Y006640D03*
X004940Y004140D03*
X004940Y003140D03*
X004940Y002140D03*
X004940Y001140D03*
X005940Y001140D03*
X005940Y002140D03*
X005940Y003140D03*
X005940Y004140D03*
X006940Y004140D03*
X006940Y003140D03*
X006940Y002140D03*
X006940Y001140D03*
X011340Y006640D03*
X011340Y007640D03*
X011340Y008640D03*
X011340Y009640D03*
X011340Y010640D03*
X011340Y011640D03*
X011340Y012640D03*
X012340Y012640D03*
X012340Y011640D03*
X012340Y010640D03*
X012340Y009640D03*
X012340Y008640D03*
X012340Y007640D03*
X012340Y006640D03*
X013340Y006640D03*
X013340Y007640D03*
X013340Y008640D03*
X013340Y009640D03*
X013340Y010640D03*
X013340Y011640D03*
X013340Y012640D03*
X001640Y015140D03*
X001640Y016140D03*
D12*
X007305Y015740D03*
X007975Y015740D03*
X011505Y015240D03*
X011505Y014540D03*
X012175Y014540D03*
X012175Y015240D03*
D13*
X005709Y015640D03*
X004371Y015640D03*
D14*
X005660Y014640D02*
X006220Y014640D01*
X006220Y013640D02*
X005660Y013640D01*
X005660Y012640D02*
X006220Y012640D01*
X006220Y011640D02*
X005660Y011640D01*
X005660Y010640D02*
X006220Y010640D01*
X006220Y009640D02*
X005660Y009640D01*
X005660Y008640D02*
X006220Y008640D01*
X006220Y007640D02*
X005660Y007640D01*
X005660Y006640D02*
X006220Y006640D01*
X006220Y005640D02*
X005660Y005640D01*
X008660Y005640D02*
X009220Y005640D01*
X009220Y006640D02*
X008660Y006640D01*
X008660Y007640D02*
X009220Y007640D01*
X009220Y008640D02*
X008660Y008640D01*
X008660Y009640D02*
X009220Y009640D01*
X009220Y010640D02*
X008660Y010640D01*
X008660Y011640D02*
X009220Y011640D01*
X009220Y012640D02*
X008660Y012640D01*
X008660Y013640D02*
X009220Y013640D01*
X009220Y014640D02*
X008660Y014640D01*
D15*
X009640Y016905D03*
X009640Y017575D03*
D16*
X009640Y018140D01*
X009640Y016905D02*
X009640Y015740D01*
X009840Y015540D01*
X009840Y014040D01*
X009440Y013640D01*
X008940Y013640D01*
X008940Y012640D02*
X010240Y012640D01*
X011340Y013640D01*
X011505Y013805D01*
X011505Y014540D01*
X011505Y015240D02*
X011140Y015240D01*
X010640Y014740D01*
X012175Y014540D02*
X012175Y014505D01*
X012340Y006640D01*
X011340Y006640D02*
X010340Y005640D01*
X008940Y005640D01*
X008940Y006640D02*
X010240Y006640D01*
X011340Y007640D01*
X011340Y008640D02*
X010240Y007640D01*
X008940Y007640D01*
X008940Y008640D02*
X010240Y008640D01*
X011340Y009640D01*
X011340Y010640D02*
X010240Y009640D01*
X008940Y009640D01*
X008940Y010640D02*
X010240Y010640D01*
X011340Y011640D01*
X011340Y012640D02*
X010240Y011640D01*
X008940Y011640D01*
X006840Y013640D02*
X007240Y014040D01*
X007240Y015675D01*
X007305Y015740D01*
X007240Y015805D01*
X007240Y018640D01*
X006840Y013640D02*
X005940Y013640D01*
X005940Y012640D02*
X004640Y012640D01*
X003640Y013640D01*
X003640Y012640D02*
X004640Y011640D01*
X005940Y011640D01*
X005940Y010640D02*
X004640Y010640D01*
X003640Y011640D01*
X003640Y010640D02*
X004640Y009640D01*
X005940Y009640D01*
X005940Y008640D02*
X004640Y008640D01*
X003640Y009640D01*
X003640Y008640D02*
X004640Y007640D01*
X005940Y007640D01*
X005940Y006640D02*
X004640Y006640D01*
X003640Y007640D01*
X003640Y006640D02*
X004640Y005640D01*
X005940Y005640D01*
X012175Y014540D02*
X012175Y015240D01*
D17*
X005940Y014640D02*
X004340Y014640D01*
X003640Y014640D01*
X002640Y013640D01*
X001640Y014640D01*
X001640Y015140D01*
X004240Y015640D02*
X004340Y015540D01*
X004340Y014640D01*
X004371Y015640D02*
X004240Y015640D01*
X002640Y006640D02*
X002640Y004440D01*
X004940Y002140D01*
D18*
X000532Y000532D02*
X000374Y000750D01*
X000291Y001005D01*
X000280Y001140D01*
X000280Y019340D01*
X000291Y019475D01*
X000374Y019730D01*
X000532Y019948D01*
X000750Y020106D01*
X001005Y020189D01*
X001140Y020200D01*
X013840Y020200D01*
X013975Y020189D01*
X014230Y020106D01*
X014448Y019948D01*
X014606Y019730D01*
X014689Y019475D01*
X014700Y019340D01*
X014700Y001140D01*
X014689Y001005D01*
X014606Y000750D01*
X014448Y000532D01*
X014230Y000374D01*
X013975Y000291D01*
X013840Y000280D01*
X001140Y000280D01*
X001005Y000291D01*
X000750Y000374D01*
X000532Y000532D01*
X000531Y000533D02*
X000936Y000533D01*
X000804Y000587D02*
X001087Y000470D01*
X001393Y000470D01*
X001676Y000587D01*
X001893Y000804D01*
X002010Y001087D01*
X002010Y001393D01*
X001893Y001676D01*
X001676Y001893D01*
X001393Y002010D01*
X001087Y002010D01*
X000804Y001893D01*
X000587Y001676D01*
X000470Y001393D01*
X000470Y001087D01*
X000587Y000804D01*
X000804Y000587D01*
X000780Y000611D02*
X000474Y000611D01*
X000417Y000690D02*
X000702Y000690D01*
X000623Y000768D02*
X000368Y000768D01*
X000342Y000847D02*
X000570Y000847D01*
X000537Y000925D02*
X000317Y000925D01*
X000291Y001004D02*
X000505Y001004D01*
X000472Y001082D02*
X000285Y001082D01*
X000280Y001161D02*
X000470Y001161D01*
X000470Y001239D02*
X000280Y001239D01*
X000280Y001318D02*
X000470Y001318D01*
X000471Y001396D02*
X000280Y001396D01*
X000280Y001475D02*
X000504Y001475D01*
X000536Y001553D02*
X000280Y001553D01*
X000280Y001632D02*
X000569Y001632D01*
X000621Y001710D02*
X000280Y001710D01*
X000280Y001789D02*
X000700Y001789D01*
X000778Y001867D02*
X000280Y001867D01*
X000280Y001946D02*
X000931Y001946D01*
X001549Y001946D02*
X004512Y001946D01*
X004500Y001958D02*
X004758Y001700D01*
X005122Y001700D01*
X005380Y001958D01*
X005380Y002322D01*
X005122Y002580D01*
X004868Y002580D01*
X002900Y004548D01*
X002900Y006278D01*
X003080Y006458D01*
X003080Y006822D01*
X002822Y007080D01*
X002458Y007080D01*
X002200Y006822D01*
X002200Y006458D01*
X002380Y006278D01*
X002380Y004388D01*
X002420Y004293D01*
X004500Y002212D01*
X004500Y001958D01*
X004500Y002024D02*
X000280Y002024D01*
X000280Y002103D02*
X004500Y002103D01*
X004500Y002181D02*
X000280Y002181D01*
X000280Y002260D02*
X004453Y002260D01*
X004374Y002338D02*
X000280Y002338D01*
X000280Y002417D02*
X004296Y002417D01*
X004217Y002495D02*
X000280Y002495D01*
X000280Y002574D02*
X004139Y002574D01*
X004060Y002652D02*
X000280Y002652D01*
X000280Y002731D02*
X003982Y002731D01*
X003903Y002809D02*
X000280Y002809D01*
X000280Y002888D02*
X003825Y002888D01*
X003746Y002966D02*
X000280Y002966D01*
X000280Y003045D02*
X003668Y003045D01*
X003589Y003123D02*
X000280Y003123D01*
X000280Y003202D02*
X003511Y003202D01*
X003432Y003280D02*
X000280Y003280D01*
X000280Y003359D02*
X003354Y003359D01*
X003275Y003437D02*
X000280Y003437D01*
X000280Y003516D02*
X003197Y003516D01*
X003118Y003594D02*
X000280Y003594D01*
X000280Y003673D02*
X003040Y003673D01*
X002961Y003751D02*
X000280Y003751D01*
X000280Y003830D02*
X002883Y003830D01*
X002804Y003908D02*
X000280Y003908D01*
X000280Y003987D02*
X002726Y003987D01*
X002647Y004065D02*
X000280Y004065D01*
X000280Y004144D02*
X002569Y004144D01*
X002490Y004222D02*
X000280Y004222D01*
X000280Y004301D02*
X002416Y004301D01*
X002384Y004379D02*
X000280Y004379D01*
X000280Y004458D02*
X002380Y004458D01*
X002380Y004536D02*
X000280Y004536D01*
X000280Y004615D02*
X002380Y004615D01*
X002380Y004693D02*
X000280Y004693D01*
X000280Y004772D02*
X002380Y004772D01*
X002380Y004850D02*
X000280Y004850D01*
X000280Y004929D02*
X002380Y004929D01*
X002380Y005007D02*
X000280Y005007D01*
X000280Y005086D02*
X002380Y005086D01*
X002380Y005164D02*
X000280Y005164D01*
X000280Y005243D02*
X002380Y005243D01*
X002380Y005321D02*
X000280Y005321D01*
X000280Y005400D02*
X002380Y005400D01*
X002380Y005478D02*
X000280Y005478D01*
X000280Y005557D02*
X002380Y005557D01*
X002380Y005635D02*
X000280Y005635D01*
X000280Y005714D02*
X002380Y005714D01*
X002380Y005792D02*
X000280Y005792D01*
X000280Y005871D02*
X002380Y005871D01*
X002380Y005949D02*
X000280Y005949D01*
X000280Y006028D02*
X002380Y006028D01*
X002380Y006106D02*
X000280Y006106D01*
X000280Y006185D02*
X002380Y006185D01*
X002380Y006263D02*
X001885Y006263D01*
X001822Y006200D02*
X001680Y006200D01*
X001680Y006600D01*
X001680Y006680D01*
X001600Y006680D01*
X001600Y007080D01*
X001458Y007080D01*
X001200Y006822D01*
X001200Y006680D01*
X001600Y006680D01*
X001600Y006600D01*
X001200Y006600D01*
X001200Y006458D01*
X001458Y006200D01*
X001600Y006200D01*
X001600Y006600D01*
X001680Y006600D01*
X002080Y006600D01*
X002080Y006458D01*
X001822Y006200D01*
X001680Y006263D02*
X001600Y006263D01*
X001600Y006342D02*
X001680Y006342D01*
X001680Y006420D02*
X001600Y006420D01*
X001600Y006499D02*
X001680Y006499D01*
X001680Y006577D02*
X001600Y006577D01*
X001600Y006656D02*
X000280Y006656D01*
X000280Y006734D02*
X001200Y006734D01*
X001200Y006813D02*
X000280Y006813D01*
X000280Y006891D02*
X001269Y006891D01*
X001347Y006970D02*
X000280Y006970D01*
X000280Y007048D02*
X001426Y007048D01*
X001458Y007200D02*
X001200Y007458D01*
X001200Y007600D01*
X001600Y007600D01*
X001600Y007680D01*
X001600Y008080D01*
X001458Y008080D01*
X001200Y007822D01*
X001200Y007680D01*
X001600Y007680D01*
X001680Y007680D01*
X001680Y008080D01*
X001822Y008080D01*
X002080Y007822D01*
X002080Y007680D01*
X001680Y007680D01*
X001680Y007600D01*
X002080Y007600D01*
X002080Y007458D01*
X001822Y007200D01*
X001680Y007200D01*
X001680Y007600D01*
X001600Y007600D01*
X001600Y007200D01*
X001458Y007200D01*
X001453Y007205D02*
X000280Y007205D01*
X000280Y007127D02*
X003885Y007127D01*
X003822Y007080D02*
X003458Y007080D01*
X003200Y006822D01*
X003200Y006458D01*
X003458Y006200D01*
X003811Y006200D01*
X004450Y005561D01*
X004561Y005450D01*
X005284Y005450D01*
X005304Y005402D01*
X005422Y005284D01*
X005576Y005220D01*
X006304Y005220D01*
X006458Y005284D01*
X006576Y005402D01*
X006640Y005556D01*
X006640Y005724D01*
X006576Y005878D01*
X006458Y005996D01*
X006304Y006060D01*
X005576Y006060D01*
X005422Y005996D01*
X005304Y005878D01*
X005284Y005830D01*
X004719Y005830D01*
X004080Y006469D01*
X004080Y006822D01*
X003822Y007080D01*
X003854Y007048D02*
X003963Y007048D01*
X003933Y006970D02*
X004042Y006970D01*
X004011Y006891D02*
X004120Y006891D01*
X004080Y006813D02*
X004199Y006813D01*
X004277Y006734D02*
X004080Y006734D01*
X004080Y006656D02*
X004356Y006656D01*
X004434Y006577D02*
X004080Y006577D01*
X004080Y006499D02*
X004513Y006499D01*
X004561Y006450D02*
X005284Y006450D01*
X005304Y006402D01*
X005422Y006284D01*
X005576Y006220D01*
X006304Y006220D01*
X006458Y006284D01*
X006576Y006402D01*
X006640Y006556D01*
X006640Y006724D01*
X006576Y006878D01*
X006458Y006996D01*
X006304Y007060D01*
X005576Y007060D01*
X005422Y006996D01*
X005304Y006878D01*
X005284Y006830D01*
X004719Y006830D01*
X004080Y007469D01*
X004080Y007822D01*
X003822Y008080D01*
X003458Y008080D01*
X003200Y007822D01*
X003200Y007458D01*
X003458Y007200D01*
X003811Y007200D01*
X004450Y006561D01*
X004561Y006450D01*
X004450Y006561D02*
X004450Y006561D01*
X004207Y006342D02*
X005365Y006342D01*
X005297Y006420D02*
X004129Y006420D01*
X004286Y006263D02*
X005473Y006263D01*
X005498Y006028D02*
X004521Y006028D01*
X004443Y006106D02*
X010537Y006106D01*
X010459Y006028D02*
X009382Y006028D01*
X009458Y005996D02*
X009304Y006060D01*
X008576Y006060D01*
X008422Y005996D01*
X008304Y005878D01*
X008240Y005724D01*
X008240Y005556D01*
X008304Y005402D01*
X008422Y005284D01*
X008576Y005220D01*
X009304Y005220D01*
X009458Y005284D01*
X009576Y005402D01*
X009596Y005450D01*
X010419Y005450D01*
X010530Y005561D01*
X011169Y006200D01*
X011522Y006200D01*
X011780Y006458D01*
X011780Y006822D01*
X011522Y007080D01*
X011158Y007080D01*
X010900Y006822D01*
X010900Y006469D01*
X010261Y005830D01*
X009596Y005830D01*
X009576Y005878D01*
X009458Y005996D01*
X009505Y005949D02*
X010380Y005949D01*
X010302Y005871D02*
X009579Y005871D01*
X009458Y006284D02*
X009304Y006220D01*
X008576Y006220D01*
X008422Y006284D01*
X008304Y006402D01*
X008240Y006556D01*
X008240Y006724D01*
X008304Y006878D01*
X008422Y006996D01*
X008576Y007060D01*
X009304Y007060D01*
X009458Y006996D01*
X009576Y006878D01*
X009596Y006830D01*
X010167Y006830D01*
X010900Y007497D01*
X010900Y007822D01*
X011158Y008080D01*
X011522Y008080D01*
X011780Y007822D01*
X011780Y007458D01*
X011522Y007200D01*
X011158Y007200D01*
X011149Y007209D01*
X010371Y006502D01*
X010319Y006450D01*
X010313Y006450D01*
X010310Y006446D01*
X010235Y006450D01*
X009596Y006450D01*
X009576Y006402D01*
X009458Y006284D01*
X009407Y006263D02*
X010694Y006263D01*
X010616Y006185D02*
X004364Y006185D01*
X004600Y005949D02*
X005375Y005949D01*
X005301Y005871D02*
X004678Y005871D01*
X004376Y005635D02*
X002900Y005635D01*
X002900Y005557D02*
X004455Y005557D01*
X004533Y005478D02*
X002900Y005478D01*
X002900Y005400D02*
X005307Y005400D01*
X005385Y005321D02*
X002900Y005321D01*
X002900Y005243D02*
X005522Y005243D01*
X005758Y004580D02*
X005500Y004322D01*
X005500Y003958D01*
X005758Y003700D01*
X006122Y003700D01*
X006380Y003958D01*
X006380Y004322D01*
X006122Y004580D01*
X005758Y004580D01*
X005714Y004536D02*
X005166Y004536D01*
X005122Y004580D02*
X004758Y004580D01*
X004500Y004322D01*
X004500Y003958D01*
X004758Y003700D01*
X005122Y003700D01*
X005380Y003958D01*
X005380Y004322D01*
X005122Y004580D01*
X005245Y004458D02*
X005635Y004458D01*
X005557Y004379D02*
X005323Y004379D01*
X005380Y004301D02*
X005500Y004301D01*
X005500Y004222D02*
X005380Y004222D01*
X005380Y004144D02*
X005500Y004144D01*
X005500Y004065D02*
X005380Y004065D01*
X005380Y003987D02*
X005500Y003987D01*
X005550Y003908D02*
X005330Y003908D01*
X005252Y003830D02*
X005628Y003830D01*
X005707Y003751D02*
X005173Y003751D01*
X005122Y003580D02*
X004758Y003580D01*
X004500Y003322D01*
X004500Y002958D01*
X004758Y002700D01*
X005122Y002700D01*
X005380Y002958D01*
X005380Y003322D01*
X005122Y003580D01*
X005187Y003516D02*
X005693Y003516D01*
X005758Y003580D02*
X005500Y003322D01*
X005500Y002958D01*
X005758Y002700D01*
X006122Y002700D01*
X006380Y002958D01*
X006380Y003322D01*
X006122Y003580D01*
X005758Y003580D01*
X005615Y003437D02*
X005265Y003437D01*
X005344Y003359D02*
X005536Y003359D01*
X005500Y003280D02*
X005380Y003280D01*
X005380Y003202D02*
X005500Y003202D01*
X005500Y003123D02*
X005380Y003123D01*
X005380Y003045D02*
X005500Y003045D01*
X005500Y002966D02*
X005380Y002966D01*
X005310Y002888D02*
X005570Y002888D01*
X005649Y002809D02*
X005231Y002809D01*
X005153Y002731D02*
X005727Y002731D01*
X005758Y002580D02*
X005500Y002322D01*
X005500Y001958D01*
X005758Y001700D01*
X006122Y001700D01*
X006380Y001958D01*
X006380Y002322D01*
X006122Y002580D01*
X005758Y002580D01*
X005751Y002574D02*
X005129Y002574D01*
X005207Y002495D02*
X005673Y002495D01*
X005594Y002417D02*
X005286Y002417D01*
X005364Y002338D02*
X005516Y002338D01*
X005500Y002260D02*
X005380Y002260D01*
X005380Y002181D02*
X005500Y002181D01*
X005500Y002103D02*
X005380Y002103D01*
X005380Y002024D02*
X005500Y002024D01*
X005512Y001946D02*
X005368Y001946D01*
X005289Y001867D02*
X005591Y001867D01*
X005669Y001789D02*
X005211Y001789D01*
X005132Y001710D02*
X005748Y001710D01*
X005758Y001580D02*
X005500Y001322D01*
X005500Y001180D01*
X005900Y001180D01*
X005900Y001580D01*
X005758Y001580D01*
X005731Y001553D02*
X005149Y001553D01*
X005122Y001580D02*
X004980Y001580D01*
X004980Y001180D01*
X005380Y001180D01*
X005380Y001322D01*
X005122Y001580D01*
X004980Y001553D02*
X004900Y001553D01*
X004900Y001580D02*
X004758Y001580D01*
X004500Y001322D01*
X004500Y001180D01*
X004900Y001180D01*
X004900Y001580D01*
X004900Y001475D02*
X004980Y001475D01*
X004980Y001396D02*
X004900Y001396D01*
X004900Y001318D02*
X004980Y001318D01*
X004980Y001239D02*
X004900Y001239D01*
X004900Y001180D02*
X004980Y001180D01*
X004980Y001100D01*
X005380Y001100D01*
X005380Y000958D01*
X005122Y000700D01*
X004980Y000700D01*
X004980Y001100D01*
X004900Y001100D01*
X004900Y000700D01*
X004758Y000700D01*
X004500Y000958D01*
X004500Y001100D01*
X004900Y001100D01*
X004900Y001180D01*
X004900Y001161D02*
X002010Y001161D01*
X002010Y001239D02*
X004500Y001239D01*
X004500Y001318D02*
X002010Y001318D01*
X002009Y001396D02*
X004574Y001396D01*
X004652Y001475D02*
X001976Y001475D01*
X001944Y001553D02*
X004731Y001553D01*
X004748Y001710D02*
X001859Y001710D01*
X001911Y001632D02*
X013069Y001632D01*
X013087Y001676D02*
X012970Y001393D01*
X012970Y001087D01*
X013087Y000804D01*
X013304Y000587D01*
X013587Y000470D01*
X013893Y000470D01*
X014176Y000587D01*
X014393Y000804D01*
X014510Y001087D01*
X014510Y001393D01*
X014393Y001676D01*
X014176Y001893D01*
X013893Y002010D01*
X013587Y002010D01*
X013304Y001893D01*
X013087Y001676D01*
X013121Y001710D02*
X008308Y001710D01*
X008298Y001700D02*
X008380Y001782D01*
X008380Y002498D01*
X008298Y002580D01*
X007582Y002580D01*
X007500Y002498D01*
X007500Y001782D01*
X007582Y001700D01*
X008298Y001700D01*
X008380Y001789D02*
X013200Y001789D01*
X013278Y001867D02*
X008380Y001867D01*
X008380Y001946D02*
X013431Y001946D01*
X013036Y001553D02*
X008324Y001553D01*
X008326Y001552D02*
X008294Y001570D01*
X008258Y001580D01*
X007980Y001580D01*
X007980Y001180D01*
X007900Y001180D01*
X007900Y001580D01*
X007622Y001580D01*
X007586Y001570D01*
X007554Y001552D01*
X007528Y001526D01*
X007510Y001494D01*
X007500Y001458D01*
X007500Y001180D01*
X007900Y001180D01*
X007900Y001100D01*
X007500Y001100D01*
X007500Y000822D01*
X007510Y000786D01*
X007528Y000754D01*
X007554Y000728D01*
X007586Y000710D01*
X007622Y000700D01*
X007900Y000700D01*
X007900Y001100D01*
X007980Y001100D01*
X007980Y001180D01*
X008380Y001180D01*
X008380Y001458D01*
X008370Y001494D01*
X008352Y001526D01*
X008326Y001552D01*
X008376Y001475D02*
X013004Y001475D01*
X012971Y001396D02*
X008380Y001396D01*
X008380Y001318D02*
X012970Y001318D01*
X012970Y001239D02*
X008380Y001239D01*
X008380Y001100D02*
X007980Y001100D01*
X007980Y000700D01*
X008258Y000700D01*
X008294Y000710D01*
X008326Y000728D01*
X008352Y000754D01*
X008370Y000786D01*
X008380Y000822D01*
X008380Y001100D01*
X008380Y001082D02*
X012972Y001082D01*
X012970Y001161D02*
X007980Y001161D01*
X007980Y001239D02*
X007900Y001239D01*
X007900Y001161D02*
X006980Y001161D01*
X006980Y001180D02*
X007380Y001180D01*
X007380Y001322D01*
X007122Y001580D01*
X006980Y001580D01*
X006980Y001180D01*
X006980Y001100D01*
X007380Y001100D01*
X007380Y000958D01*
X007122Y000700D01*
X006980Y000700D01*
X006980Y001100D01*
X006900Y001100D01*
X006900Y000700D01*
X006758Y000700D01*
X006500Y000958D01*
X006500Y001100D01*
X006900Y001100D01*
X006900Y001180D01*
X006900Y001580D01*
X006758Y001580D01*
X006500Y001322D01*
X006500Y001180D01*
X006900Y001180D01*
X006980Y001180D01*
X006980Y001239D02*
X006900Y001239D01*
X006900Y001161D02*
X005980Y001161D01*
X005980Y001180D02*
X006380Y001180D01*
X006380Y001322D01*
X006122Y001580D01*
X005980Y001580D01*
X005980Y001180D01*
X005980Y001100D01*
X006380Y001100D01*
X006380Y000958D01*
X006122Y000700D01*
X005980Y000700D01*
X005980Y001100D01*
X005900Y001100D01*
X005900Y000700D01*
X005758Y000700D01*
X005500Y000958D01*
X005500Y001100D01*
X005900Y001100D01*
X005900Y001180D01*
X005980Y001180D01*
X005980Y001239D02*
X005900Y001239D01*
X005900Y001161D02*
X004980Y001161D01*
X004980Y001082D02*
X004900Y001082D01*
X004900Y001004D02*
X004980Y001004D01*
X004980Y000925D02*
X004900Y000925D01*
X004900Y000847D02*
X004980Y000847D01*
X004980Y000768D02*
X004900Y000768D01*
X004690Y000768D02*
X001857Y000768D01*
X001910Y000847D02*
X004611Y000847D01*
X004533Y000925D02*
X001943Y000925D01*
X001975Y001004D02*
X004500Y001004D01*
X004500Y001082D02*
X002008Y001082D01*
X001778Y000690D02*
X013202Y000690D01*
X013123Y000768D02*
X008360Y000768D01*
X008380Y000847D02*
X013070Y000847D01*
X013037Y000925D02*
X008380Y000925D01*
X008380Y001004D02*
X013005Y001004D01*
X013280Y000611D02*
X001700Y000611D01*
X001544Y000533D02*
X013436Y000533D01*
X013994Y000297D02*
X000986Y000297D01*
X000747Y000376D02*
X014233Y000376D01*
X014341Y000454D02*
X000639Y000454D01*
X001780Y001789D02*
X004669Y001789D01*
X004591Y001867D02*
X001702Y001867D01*
X003383Y004065D02*
X004500Y004065D01*
X004500Y003987D02*
X003461Y003987D01*
X003540Y003908D02*
X004550Y003908D01*
X004628Y003830D02*
X003618Y003830D01*
X003697Y003751D02*
X004707Y003751D01*
X004500Y004144D02*
X003304Y004144D01*
X003226Y004222D02*
X004500Y004222D01*
X004500Y004301D02*
X003147Y004301D01*
X003069Y004379D02*
X004557Y004379D01*
X004635Y004458D02*
X002990Y004458D01*
X002912Y004536D02*
X004714Y004536D01*
X004693Y003516D02*
X003932Y003516D01*
X003854Y003594D02*
X014700Y003594D01*
X014700Y003516D02*
X008362Y003516D01*
X008380Y003498D02*
X008298Y003580D01*
X007582Y003580D01*
X007500Y003498D01*
X007500Y002782D01*
X007582Y002700D01*
X008298Y002700D01*
X008380Y002782D01*
X008380Y003498D01*
X008380Y003437D02*
X014700Y003437D01*
X014700Y003359D02*
X008380Y003359D01*
X008380Y003280D02*
X014700Y003280D01*
X014700Y003202D02*
X008380Y003202D01*
X008380Y003123D02*
X014700Y003123D01*
X014700Y003045D02*
X008380Y003045D01*
X008380Y002966D02*
X014700Y002966D01*
X014700Y002888D02*
X008380Y002888D01*
X008380Y002809D02*
X014700Y002809D01*
X014700Y002731D02*
X008328Y002731D01*
X008304Y002574D02*
X014700Y002574D01*
X014700Y002652D02*
X004796Y002652D01*
X004727Y002731D02*
X004717Y002731D01*
X004649Y002809D02*
X004639Y002809D01*
X004570Y002888D02*
X004560Y002888D01*
X004500Y002966D02*
X004482Y002966D01*
X004500Y003045D02*
X004403Y003045D01*
X004325Y003123D02*
X004500Y003123D01*
X004500Y003202D02*
X004246Y003202D01*
X004168Y003280D02*
X004500Y003280D01*
X004536Y003359D02*
X004089Y003359D01*
X004011Y003437D02*
X004615Y003437D01*
X003775Y003673D02*
X014700Y003673D01*
X014700Y003751D02*
X008349Y003751D01*
X008380Y003782D02*
X008380Y004498D01*
X008298Y004580D01*
X007582Y004580D01*
X007500Y004498D01*
X007500Y003782D01*
X007582Y003700D01*
X008298Y003700D01*
X008380Y003782D01*
X008380Y003830D02*
X014700Y003830D01*
X014700Y003908D02*
X008380Y003908D01*
X008380Y003987D02*
X014700Y003987D01*
X014700Y004065D02*
X008380Y004065D01*
X008380Y004144D02*
X014700Y004144D01*
X014700Y004222D02*
X008380Y004222D01*
X008380Y004301D02*
X014700Y004301D01*
X014700Y004379D02*
X008380Y004379D01*
X008380Y004458D02*
X014700Y004458D01*
X014700Y004536D02*
X008342Y004536D01*
X008522Y005243D02*
X006358Y005243D01*
X006495Y005321D02*
X008385Y005321D01*
X008307Y005400D02*
X006573Y005400D01*
X006608Y005478D02*
X008272Y005478D01*
X008240Y005557D02*
X006640Y005557D01*
X006640Y005635D02*
X008240Y005635D01*
X008240Y005714D02*
X006640Y005714D01*
X006612Y005792D02*
X008268Y005792D01*
X008301Y005871D02*
X006579Y005871D01*
X006505Y005949D02*
X008375Y005949D01*
X008498Y006028D02*
X006382Y006028D01*
X006407Y006263D02*
X008473Y006263D01*
X008365Y006342D02*
X006515Y006342D01*
X006583Y006420D02*
X008297Y006420D01*
X008264Y006499D02*
X006616Y006499D01*
X006640Y006577D02*
X008240Y006577D01*
X008240Y006656D02*
X006640Y006656D01*
X006636Y006734D02*
X008244Y006734D01*
X008277Y006813D02*
X006603Y006813D01*
X006563Y006891D02*
X008317Y006891D01*
X008396Y006970D02*
X006484Y006970D01*
X006332Y007048D02*
X008548Y007048D01*
X008576Y007220D02*
X009304Y007220D01*
X009458Y007284D01*
X009576Y007402D01*
X009596Y007450D01*
X010235Y007450D01*
X010310Y007446D01*
X010313Y007450D01*
X010319Y007450D01*
X010371Y007502D01*
X011149Y008209D01*
X011158Y008200D01*
X011522Y008200D01*
X011780Y008458D01*
X011780Y008822D01*
X011522Y009080D01*
X011158Y009080D01*
X010900Y008822D01*
X010900Y008497D01*
X010167Y007830D01*
X009596Y007830D01*
X009576Y007878D01*
X009458Y007996D01*
X009304Y008060D01*
X008576Y008060D01*
X008422Y007996D01*
X008304Y007878D01*
X008240Y007724D01*
X008240Y007556D01*
X008304Y007402D01*
X008422Y007284D01*
X008576Y007220D01*
X008423Y007284D02*
X006457Y007284D01*
X006458Y007284D02*
X006576Y007402D01*
X006640Y007556D01*
X006640Y007724D01*
X006576Y007878D01*
X006458Y007996D01*
X006304Y008060D01*
X005576Y008060D01*
X005422Y007996D01*
X005304Y007878D01*
X005284Y007830D01*
X004719Y007830D01*
X004080Y008469D01*
X004080Y008822D01*
X003822Y009080D01*
X003458Y009080D01*
X003200Y008822D01*
X003200Y008458D01*
X003458Y008200D01*
X003811Y008200D01*
X004450Y007561D01*
X004561Y007450D01*
X005284Y007450D01*
X005304Y007402D01*
X005422Y007284D01*
X005576Y007220D01*
X006304Y007220D01*
X006458Y007284D01*
X006536Y007362D02*
X008344Y007362D01*
X008288Y007441D02*
X006592Y007441D01*
X006624Y007519D02*
X008256Y007519D01*
X008240Y007598D02*
X006640Y007598D01*
X006640Y007676D02*
X008240Y007676D01*
X008253Y007755D02*
X006627Y007755D01*
X006595Y007833D02*
X008285Y007833D01*
X008338Y007912D02*
X006542Y007912D01*
X006464Y007990D02*
X008416Y007990D01*
X008563Y008226D02*
X006317Y008226D01*
X006304Y008220D02*
X006458Y008284D01*
X006576Y008402D01*
X006640Y008556D01*
X006640Y008724D01*
X006576Y008878D01*
X006458Y008996D01*
X006304Y009060D01*
X005576Y009060D01*
X005422Y008996D01*
X005304Y008878D01*
X005284Y008830D01*
X004719Y008830D01*
X004080Y009469D01*
X004080Y009822D01*
X003822Y010080D01*
X003458Y010080D01*
X003200Y009822D01*
X003200Y009458D01*
X003458Y009200D01*
X003811Y009200D01*
X004450Y008561D01*
X004561Y008450D01*
X005284Y008450D01*
X005304Y008402D01*
X005422Y008284D01*
X005576Y008220D01*
X006304Y008220D01*
X006478Y008304D02*
X008402Y008304D01*
X008422Y008284D02*
X008576Y008220D01*
X009304Y008220D01*
X009458Y008284D01*
X009576Y008402D01*
X009596Y008450D01*
X010235Y008450D01*
X010310Y008446D01*
X010313Y008450D01*
X010319Y008450D01*
X010371Y008502D01*
X011149Y009209D01*
X011158Y009200D01*
X011522Y009200D01*
X011780Y009458D01*
X011780Y009822D01*
X011522Y010080D01*
X011158Y010080D01*
X010900Y009822D01*
X010900Y009497D01*
X010167Y008830D01*
X009596Y008830D01*
X009576Y008878D01*
X009458Y008996D01*
X009304Y009060D01*
X008576Y009060D01*
X008422Y008996D01*
X008304Y008878D01*
X008240Y008724D01*
X008240Y008556D01*
X008304Y008402D01*
X008422Y008284D01*
X008324Y008383D02*
X006556Y008383D01*
X006600Y008461D02*
X008280Y008461D01*
X008247Y008540D02*
X006633Y008540D01*
X006640Y008618D02*
X008240Y008618D01*
X008240Y008697D02*
X006640Y008697D01*
X006619Y008775D02*
X008261Y008775D01*
X008294Y008854D02*
X006586Y008854D01*
X006522Y008932D02*
X008358Y008932D01*
X008457Y009011D02*
X006423Y009011D01*
X006304Y009220D02*
X006458Y009284D01*
X006576Y009402D01*
X006640Y009556D01*
X006640Y009724D01*
X006576Y009878D01*
X006458Y009996D01*
X006304Y010060D01*
X005576Y010060D01*
X005422Y009996D01*
X005304Y009878D01*
X005284Y009830D01*
X004719Y009830D01*
X004080Y010469D01*
X004080Y010822D01*
X003822Y011080D01*
X003458Y011080D01*
X003200Y010822D01*
X003200Y010458D01*
X003458Y010200D01*
X003811Y010200D01*
X004450Y009561D01*
X004561Y009450D01*
X005284Y009450D01*
X005304Y009402D01*
X005422Y009284D01*
X005576Y009220D01*
X006304Y009220D01*
X006366Y009246D02*
X008514Y009246D01*
X008576Y009220D02*
X008422Y009284D01*
X008304Y009402D01*
X008240Y009556D01*
X008240Y009724D01*
X008304Y009878D01*
X008422Y009996D01*
X008576Y010060D01*
X009304Y010060D01*
X009458Y009996D01*
X009576Y009878D01*
X009596Y009830D01*
X010167Y009830D01*
X010900Y010497D01*
X010900Y010822D01*
X011158Y011080D01*
X011522Y011080D01*
X011780Y010822D01*
X011780Y010458D01*
X011522Y010200D01*
X011158Y010200D01*
X011149Y010209D01*
X010371Y009502D01*
X010319Y009450D01*
X010313Y009450D01*
X010310Y009446D01*
X010235Y009450D01*
X009596Y009450D01*
X009576Y009402D01*
X009458Y009284D01*
X009304Y009220D01*
X008576Y009220D01*
X008382Y009325D02*
X006498Y009325D01*
X006576Y009403D02*
X008304Y009403D01*
X008271Y009482D02*
X006609Y009482D01*
X006640Y009560D02*
X008240Y009560D01*
X008240Y009639D02*
X006640Y009639D01*
X006640Y009717D02*
X008240Y009717D01*
X008270Y009796D02*
X006610Y009796D01*
X006578Y009874D02*
X008302Y009874D01*
X008379Y009953D02*
X006501Y009953D01*
X006373Y010031D02*
X008507Y010031D01*
X008576Y010220D02*
X008422Y010284D01*
X008304Y010402D01*
X008240Y010556D01*
X008240Y010724D01*
X008304Y010878D01*
X008422Y010996D01*
X008576Y011060D01*
X009304Y011060D01*
X009458Y010996D01*
X009576Y010878D01*
X009596Y010830D01*
X010167Y010830D01*
X010900Y011497D01*
X010900Y011822D01*
X011158Y012080D01*
X011522Y012080D01*
X011780Y011822D01*
X011780Y011458D01*
X011522Y011200D01*
X011158Y011200D01*
X011149Y011209D01*
X010371Y010502D01*
X010900Y010502D01*
X010900Y010581D02*
X010457Y010581D01*
X010371Y010502D02*
X010319Y010450D01*
X010313Y010450D01*
X010310Y010446D01*
X010235Y010450D01*
X009596Y010450D01*
X009576Y010402D01*
X009458Y010284D01*
X009304Y010220D01*
X008576Y010220D01*
X008464Y010267D02*
X006416Y010267D01*
X006458Y010284D02*
X006304Y010220D01*
X005576Y010220D01*
X005422Y010284D01*
X005304Y010402D01*
X005284Y010450D01*
X004561Y010450D01*
X004450Y010561D01*
X003811Y011200D01*
X003458Y011200D01*
X003200Y011458D01*
X003200Y011822D01*
X003458Y012080D01*
X003822Y012080D01*
X004080Y011822D01*
X004080Y011469D01*
X004719Y010830D01*
X005284Y010830D01*
X005304Y010878D01*
X005422Y010996D01*
X005576Y011060D01*
X006304Y011060D01*
X006458Y010996D01*
X006576Y010878D01*
X006640Y010724D01*
X006640Y010556D01*
X006576Y010402D01*
X006458Y010284D01*
X006519Y010345D02*
X008361Y010345D01*
X008295Y010424D02*
X006585Y010424D01*
X006617Y010502D02*
X008263Y010502D01*
X008240Y010581D02*
X006640Y010581D01*
X006640Y010659D02*
X008240Y010659D01*
X008246Y010738D02*
X006634Y010738D01*
X006602Y010816D02*
X008278Y010816D01*
X008321Y010895D02*
X006559Y010895D01*
X006481Y010973D02*
X008399Y010973D01*
X008556Y011052D02*
X006324Y011052D01*
X006304Y011220D02*
X006458Y011284D01*
X006576Y011402D01*
X006640Y011556D01*
X006640Y011724D01*
X006576Y011878D01*
X006458Y011996D01*
X006304Y012060D01*
X005576Y012060D01*
X005422Y011996D01*
X005304Y011878D01*
X005284Y011830D01*
X004719Y011830D01*
X004080Y012469D01*
X004080Y012822D01*
X003822Y013080D01*
X003458Y013080D01*
X003200Y012822D01*
X003200Y012458D01*
X003458Y012200D01*
X003811Y012200D01*
X004450Y011561D01*
X004561Y011450D01*
X005284Y011450D01*
X005304Y011402D01*
X005422Y011284D01*
X005576Y011220D01*
X006304Y011220D01*
X006461Y011287D02*
X008419Y011287D01*
X008422Y011284D02*
X008576Y011220D01*
X009304Y011220D01*
X009458Y011284D01*
X009576Y011402D01*
X009596Y011450D01*
X010235Y011450D01*
X010310Y011446D01*
X010313Y011450D01*
X010319Y011450D01*
X010371Y011502D01*
X011149Y012209D01*
X011158Y012200D01*
X011522Y012200D01*
X011780Y012458D01*
X011780Y012822D01*
X011522Y013080D01*
X011158Y013080D01*
X010900Y012822D01*
X010900Y012497D01*
X010167Y011830D01*
X009596Y011830D01*
X009576Y011878D01*
X009458Y011996D01*
X009304Y012060D01*
X008576Y012060D01*
X008422Y011996D01*
X008304Y011878D01*
X008240Y011724D01*
X008240Y011556D01*
X008304Y011402D01*
X008422Y011284D01*
X008340Y011366D02*
X006540Y011366D01*
X006593Y011444D02*
X008287Y011444D01*
X008254Y011523D02*
X006626Y011523D01*
X006640Y011601D02*
X008240Y011601D01*
X008240Y011680D02*
X006640Y011680D01*
X006626Y011758D02*
X008254Y011758D01*
X008287Y011837D02*
X006593Y011837D01*
X006539Y011915D02*
X008341Y011915D01*
X008420Y011994D02*
X006460Y011994D01*
X006325Y012229D02*
X008555Y012229D01*
X008576Y012220D02*
X009304Y012220D01*
X009458Y012284D01*
X009576Y012402D01*
X009596Y012450D01*
X010235Y012450D01*
X010310Y012446D01*
X010313Y012450D01*
X010319Y012450D01*
X010371Y012502D01*
X011138Y013200D01*
X011698Y013200D01*
X011780Y013282D01*
X011780Y013998D01*
X011698Y014080D01*
X011695Y014080D01*
X011695Y014183D01*
X011760Y014183D01*
X011840Y014263D01*
X011920Y014183D01*
X011991Y014183D01*
X011994Y014080D01*
X011982Y014080D01*
X011900Y013998D01*
X011900Y013282D01*
X011982Y013200D01*
X012012Y013200D01*
X012018Y012940D01*
X011900Y012822D01*
X011900Y012458D01*
X012030Y012327D01*
X012038Y011960D01*
X011900Y011822D01*
X011900Y011458D01*
X012052Y011306D01*
X012059Y010981D01*
X011900Y010822D01*
X011900Y010458D01*
X012073Y010284D01*
X012079Y010002D01*
X011900Y009822D01*
X011900Y009458D01*
X012095Y009263D01*
X012100Y009022D01*
X011900Y008822D01*
X011900Y008458D01*
X012116Y008241D01*
X012120Y008043D01*
X011900Y007822D01*
X011900Y007458D01*
X012138Y007220D01*
X012141Y007063D01*
X011900Y006822D01*
X011900Y006458D01*
X012158Y006200D01*
X012522Y006200D01*
X012780Y006458D01*
X012780Y006822D01*
X012522Y007080D01*
X012521Y007080D01*
X012518Y007200D01*
X012522Y007200D01*
X012780Y007458D01*
X012780Y007822D01*
X012522Y008080D01*
X012500Y008080D01*
X012497Y008200D01*
X012522Y008200D01*
X012780Y008458D01*
X012780Y008822D01*
X012522Y009080D01*
X012479Y009080D01*
X012476Y009200D01*
X012522Y009200D01*
X012780Y009458D01*
X012780Y009822D01*
X012522Y010080D01*
X012458Y010080D01*
X012455Y010200D01*
X012522Y010200D01*
X012780Y010458D01*
X012780Y010822D01*
X012522Y011080D01*
X012437Y011080D01*
X012434Y011200D01*
X012522Y011200D01*
X012780Y011458D01*
X012780Y011822D01*
X012522Y012080D01*
X012416Y012080D01*
X012413Y012200D01*
X012522Y012200D01*
X012780Y012458D01*
X012780Y012822D01*
X012522Y013080D01*
X012395Y013080D01*
X012392Y013200D01*
X012698Y013200D01*
X012780Y013282D01*
X012780Y013998D01*
X012698Y014080D01*
X012374Y014080D01*
X012371Y014183D01*
X012429Y014183D01*
X012511Y014265D01*
X012511Y014815D01*
X012436Y014890D01*
X012511Y014965D01*
X012511Y015515D01*
X012429Y015597D01*
X011920Y015597D01*
X011840Y015517D01*
X011760Y015597D01*
X011251Y015597D01*
X011169Y015515D01*
X011169Y015430D01*
X011061Y015430D01*
X010646Y015015D01*
X010585Y015015D01*
X010484Y014973D01*
X010407Y014896D01*
X010365Y014795D01*
X010365Y014685D01*
X010407Y014584D01*
X010030Y014584D01*
X010030Y014506D02*
X010487Y014506D01*
X010484Y014507D02*
X010585Y014465D01*
X010695Y014465D01*
X010796Y014507D01*
X010873Y014584D01*
X011169Y014584D01*
X011169Y014506D02*
X010793Y014506D01*
X010873Y014584D02*
X010915Y014685D01*
X010915Y014746D01*
X011169Y015000D01*
X011169Y014965D01*
X011244Y014890D01*
X011169Y014815D01*
X011169Y014265D01*
X011251Y014183D01*
X011315Y014183D01*
X011315Y014080D01*
X010982Y014080D01*
X010900Y013998D01*
X010900Y013497D01*
X010167Y012830D01*
X009596Y012830D01*
X009576Y012878D01*
X009458Y012996D01*
X009304Y013060D01*
X008576Y013060D01*
X008422Y012996D01*
X008304Y012878D01*
X008240Y012724D01*
X008240Y012556D01*
X008304Y012402D01*
X008422Y012284D01*
X008576Y012220D01*
X008398Y012308D02*
X006482Y012308D01*
X006458Y012284D02*
X006576Y012402D01*
X006640Y012556D01*
X006640Y012724D01*
X006576Y012878D01*
X006458Y012996D01*
X006304Y013060D01*
X005576Y013060D01*
X005422Y012996D01*
X005304Y012878D01*
X005284Y012830D01*
X004719Y012830D01*
X004080Y013469D01*
X004080Y013998D01*
X003998Y014080D01*
X003448Y014080D01*
X003748Y014380D01*
X005326Y014380D01*
X005422Y014284D01*
X005576Y014220D01*
X006304Y014220D01*
X006458Y014284D01*
X006576Y014402D01*
X006640Y014556D01*
X006640Y014724D01*
X006576Y014878D01*
X006458Y014996D01*
X006304Y015060D01*
X005576Y015060D01*
X005422Y014996D01*
X005326Y014900D01*
X004600Y014900D01*
X004600Y015254D01*
X004783Y015254D01*
X004865Y015336D01*
X004865Y015944D01*
X004783Y016026D01*
X003958Y016026D01*
X003876Y015944D01*
X003876Y015336D01*
X003958Y015254D01*
X004080Y015254D01*
X004080Y014900D01*
X003588Y014900D01*
X003493Y014860D01*
X003420Y014787D01*
X002712Y014080D01*
X002568Y014080D01*
X001900Y014748D01*
X001900Y014778D01*
X002080Y014958D01*
X002080Y015322D01*
X001822Y015580D01*
X001458Y015580D01*
X001200Y015322D01*
X001200Y014958D01*
X001380Y014778D01*
X001380Y014588D01*
X001420Y014493D01*
X001832Y014080D01*
X001680Y014080D01*
X001680Y013680D01*
X002080Y013680D01*
X002080Y013832D01*
X002200Y013712D01*
X002200Y013282D01*
X002282Y013200D01*
X002998Y013200D01*
X003080Y013282D01*
X003080Y013712D01*
X003200Y013832D01*
X003200Y013282D01*
X003282Y013200D01*
X003811Y013200D01*
X004450Y012561D01*
X004561Y012450D01*
X005284Y012450D01*
X005304Y012402D01*
X005422Y012284D01*
X005576Y012220D01*
X006304Y012220D01*
X006458Y012284D01*
X006560Y012386D02*
X008320Y012386D01*
X008278Y012465D02*
X006602Y012465D01*
X006634Y012543D02*
X008246Y012543D01*
X008240Y012622D02*
X006640Y012622D01*
X006640Y012700D02*
X008240Y012700D01*
X008263Y012779D02*
X006617Y012779D01*
X006585Y012857D02*
X008295Y012857D01*
X008362Y012936D02*
X006518Y012936D01*
X006414Y013014D02*
X008466Y013014D01*
X008576Y013220D02*
X008422Y013284D01*
X008304Y013402D01*
X008240Y013556D01*
X008240Y013724D01*
X008304Y013878D01*
X008422Y013996D01*
X008576Y014060D01*
X009304Y014060D01*
X009458Y013996D01*
X009493Y013961D01*
X009650Y014119D01*
X009650Y015461D01*
X009450Y015661D01*
X009450Y016569D01*
X009365Y016569D01*
X009283Y016651D01*
X009283Y017160D01*
X009363Y017240D01*
X009283Y017320D01*
X009283Y017829D01*
X009365Y017911D01*
X009450Y017911D01*
X009450Y017941D01*
X009407Y017984D01*
X009365Y018085D01*
X009365Y018195D01*
X007430Y018195D01*
X007430Y018117D02*
X009365Y018117D01*
X009365Y018195D02*
X009407Y018296D01*
X009484Y018373D01*
X009585Y018415D01*
X009695Y018415D01*
X009796Y018373D01*
X009873Y018296D01*
X009915Y018195D01*
X014700Y018195D01*
X014700Y018117D02*
X009915Y018117D01*
X009915Y018085D02*
X009915Y018195D01*
X009882Y018274D02*
X014700Y018274D01*
X014700Y018352D02*
X009817Y018352D01*
X009915Y018085D02*
X009873Y017984D01*
X009830Y017941D01*
X009830Y017911D01*
X009915Y017911D01*
X009997Y017829D01*
X009997Y017320D01*
X009917Y017240D01*
X009997Y017160D01*
X009997Y016651D01*
X009915Y016569D01*
X009830Y016569D01*
X009830Y015819D01*
X009919Y015730D01*
X010030Y015619D01*
X010030Y013961D01*
X009640Y013571D01*
X009640Y013556D01*
X009576Y013402D01*
X009458Y013284D01*
X009304Y013220D01*
X008576Y013220D01*
X008505Y013250D02*
X006375Y013250D01*
X006304Y013220D02*
X006458Y013284D01*
X006576Y013402D01*
X006596Y013450D01*
X006919Y013450D01*
X007030Y013561D01*
X007430Y013961D01*
X007430Y015383D01*
X007560Y015383D01*
X007642Y015465D01*
X007642Y015489D01*
X007647Y015469D01*
X007666Y015438D01*
X007692Y015411D01*
X007724Y015393D01*
X007759Y015383D01*
X007935Y015383D01*
X007935Y015700D01*
X008015Y015700D01*
X008015Y015780D01*
X008311Y015780D01*
X008311Y015975D01*
X008302Y016011D01*
X008284Y016042D01*
X008257Y016069D01*
X008226Y016087D01*
X008190Y016097D01*
X008015Y016097D01*
X008015Y015780D01*
X007935Y015780D01*
X007935Y016097D01*
X007759Y016097D01*
X007724Y016087D01*
X007692Y016069D01*
X007666Y016042D01*
X007647Y016011D01*
X007642Y015991D01*
X007642Y016015D01*
X007560Y016097D01*
X007430Y016097D01*
X007430Y018547D01*
X008011Y019128D01*
X008058Y019128D01*
X008159Y019170D01*
X008237Y019248D01*
X008278Y019349D01*
X008278Y019458D01*
X008237Y019559D01*
X008159Y019637D01*
X008058Y019678D01*
X007949Y019678D01*
X007848Y019637D01*
X007770Y019559D01*
X007728Y019458D01*
X007728Y019411D01*
X007040Y018723D01*
X007040Y018557D01*
X007050Y018547D01*
X007050Y016096D01*
X006969Y016015D01*
X006969Y015465D01*
X007050Y015384D01*
X007050Y014119D01*
X006761Y013830D01*
X006596Y013830D01*
X006576Y013878D01*
X006458Y013996D01*
X006304Y014060D01*
X005576Y014060D01*
X005422Y013996D01*
X005304Y013878D01*
X005240Y013724D01*
X005240Y013556D01*
X005304Y013402D01*
X005422Y013284D01*
X005576Y013220D01*
X006304Y013220D01*
X006502Y013328D02*
X008378Y013328D01*
X008302Y013407D02*
X006578Y013407D01*
X006576Y013878D02*
X006809Y013878D01*
X006887Y013956D02*
X006498Y013956D01*
X006365Y014035D02*
X006966Y014035D01*
X007044Y014113D02*
X003481Y014113D01*
X003559Y014192D02*
X007050Y014192D01*
X007050Y014270D02*
X006424Y014270D01*
X006523Y014349D02*
X007050Y014349D01*
X007050Y014427D02*
X006586Y014427D01*
X006619Y014506D02*
X007050Y014506D01*
X007050Y014584D02*
X006640Y014584D01*
X006640Y014663D02*
X007050Y014663D01*
X007050Y014741D02*
X006633Y014741D01*
X006600Y014820D02*
X007050Y014820D01*
X007050Y014898D02*
X006556Y014898D01*
X006477Y014977D02*
X007050Y014977D01*
X007050Y015055D02*
X006315Y015055D01*
X006122Y015254D02*
X006204Y015336D01*
X006204Y015420D01*
X006331Y015420D01*
X006760Y015849D01*
X006760Y015871D01*
X006773Y015884D01*
X006815Y015985D01*
X006815Y016095D01*
X006773Y016196D01*
X006696Y016273D01*
X006595Y016315D01*
X006485Y016315D01*
X006384Y016273D01*
X006307Y016196D01*
X006265Y016095D01*
X006265Y015985D01*
X006268Y015979D01*
X006204Y015915D01*
X006204Y015944D01*
X006122Y016026D01*
X005297Y016026D01*
X005215Y015944D01*
X005215Y015336D01*
X005297Y015254D01*
X006122Y015254D01*
X006158Y015291D02*
X007050Y015291D01*
X007050Y015369D02*
X006204Y015369D01*
X006359Y015448D02*
X006986Y015448D01*
X006969Y015526D02*
X006437Y015526D01*
X006516Y015605D02*
X006969Y015605D01*
X006969Y015683D02*
X006594Y015683D01*
X006673Y015762D02*
X006969Y015762D01*
X006969Y015840D02*
X006751Y015840D01*
X006787Y015919D02*
X006969Y015919D01*
X006969Y015997D02*
X006815Y015997D01*
X006815Y016076D02*
X007030Y016076D01*
X007050Y016154D02*
X006790Y016154D01*
X006736Y016233D02*
X007050Y016233D01*
X007050Y016311D02*
X006604Y016311D01*
X006476Y016311D02*
X002080Y016311D01*
X002080Y016322D02*
X001822Y016580D01*
X001680Y016580D01*
X001680Y016180D01*
X001600Y016180D01*
X001600Y016580D01*
X001458Y016580D01*
X001200Y016322D01*
X001200Y016180D01*
X001600Y016180D01*
X001600Y016100D01*
X001200Y016100D01*
X001200Y015958D01*
X001458Y015700D01*
X001600Y015700D01*
X001600Y016100D01*
X001680Y016100D01*
X001680Y016180D01*
X002080Y016180D01*
X002080Y016322D01*
X002080Y016233D02*
X006344Y016233D01*
X006290Y016154D02*
X001680Y016154D01*
X001680Y016100D02*
X002080Y016100D01*
X002080Y015958D01*
X001822Y015700D01*
X001680Y015700D01*
X001680Y016100D01*
X001680Y016076D02*
X001600Y016076D01*
X001600Y016154D02*
X000280Y016154D01*
X000280Y016076D02*
X001200Y016076D01*
X001200Y015997D02*
X000280Y015997D01*
X000280Y015919D02*
X001239Y015919D01*
X001318Y015840D02*
X000280Y015840D01*
X000280Y015762D02*
X001396Y015762D01*
X001600Y015762D02*
X001680Y015762D01*
X001680Y015840D02*
X001600Y015840D01*
X001600Y015919D02*
X001680Y015919D01*
X001680Y015997D02*
X001600Y015997D01*
X001600Y016233D02*
X001680Y016233D01*
X001680Y016311D02*
X001600Y016311D01*
X001600Y016390D02*
X001680Y016390D01*
X001680Y016468D02*
X001600Y016468D01*
X001600Y016547D02*
X001680Y016547D01*
X001856Y016547D02*
X007050Y016547D01*
X007050Y016625D02*
X000280Y016625D01*
X000280Y016547D02*
X001424Y016547D01*
X001346Y016468D02*
X000280Y016468D01*
X000280Y016390D02*
X001267Y016390D01*
X001200Y016311D02*
X000280Y016311D01*
X000280Y016233D02*
X001200Y016233D01*
X001404Y015526D02*
X000280Y015526D01*
X000280Y015448D02*
X001325Y015448D01*
X001247Y015369D02*
X000280Y015369D01*
X000280Y015291D02*
X001200Y015291D01*
X001200Y015212D02*
X000280Y015212D01*
X000280Y015134D02*
X001200Y015134D01*
X001200Y015055D02*
X000280Y015055D01*
X000280Y014977D02*
X001200Y014977D01*
X001260Y014898D02*
X000280Y014898D01*
X000280Y014820D02*
X001338Y014820D01*
X001380Y014741D02*
X000280Y014741D01*
X000280Y014663D02*
X001380Y014663D01*
X001382Y014584D02*
X000280Y014584D01*
X000280Y014506D02*
X001414Y014506D01*
X001485Y014427D02*
X000280Y014427D01*
X000280Y014349D02*
X001564Y014349D01*
X001642Y014270D02*
X000280Y014270D01*
X000280Y014192D02*
X001721Y014192D01*
X001799Y014113D02*
X000280Y014113D01*
X000280Y014035D02*
X001237Y014035D01*
X001228Y014026D02*
X001210Y013994D01*
X001200Y013958D01*
X001200Y013680D01*
X001600Y013680D01*
X001600Y014080D01*
X001322Y014080D01*
X001286Y014070D01*
X001254Y014052D01*
X001228Y014026D01*
X001200Y013956D02*
X000280Y013956D01*
X000280Y013878D02*
X001200Y013878D01*
X001200Y013799D02*
X000280Y013799D01*
X000280Y013721D02*
X001200Y013721D01*
X001200Y013600D02*
X001200Y013322D01*
X001210Y013286D01*
X001228Y013254D01*
X001254Y013228D01*
X001286Y013210D01*
X001322Y013200D01*
X001600Y013200D01*
X001600Y013600D01*
X001680Y013600D01*
X001680Y013680D01*
X001600Y013680D01*
X001600Y013600D01*
X001200Y013600D01*
X001200Y013564D02*
X000280Y013564D01*
X000280Y013642D02*
X001600Y013642D01*
X001600Y013564D02*
X001680Y013564D01*
X001680Y013600D02*
X001680Y013200D01*
X001958Y013200D01*
X001994Y013210D01*
X002026Y013228D01*
X002052Y013254D01*
X002070Y013286D01*
X002080Y013322D01*
X002080Y013600D01*
X001680Y013600D01*
X001680Y013642D02*
X002200Y013642D01*
X002200Y013564D02*
X002080Y013564D01*
X002080Y013485D02*
X002200Y013485D01*
X002200Y013407D02*
X002080Y013407D01*
X002080Y013328D02*
X002200Y013328D01*
X002232Y013250D02*
X002048Y013250D01*
X001822Y013080D02*
X001680Y013080D01*
X001680Y012680D01*
X001600Y012680D01*
X001600Y013080D01*
X001458Y013080D01*
X001200Y012822D01*
X001200Y012680D01*
X001600Y012680D01*
X001600Y012600D01*
X001200Y012600D01*
X001200Y012458D01*
X001458Y012200D01*
X001600Y012200D01*
X001600Y012600D01*
X001680Y012600D01*
X001680Y012680D01*
X002080Y012680D01*
X002080Y012822D01*
X001822Y013080D01*
X001888Y013014D02*
X002392Y013014D01*
X002458Y013080D02*
X002200Y012822D01*
X002200Y012458D01*
X002458Y012200D01*
X002822Y012200D01*
X003080Y012458D01*
X003080Y012822D01*
X002822Y013080D01*
X002458Y013080D01*
X002313Y012936D02*
X001967Y012936D01*
X002045Y012857D02*
X002235Y012857D01*
X002200Y012779D02*
X002080Y012779D01*
X002080Y012700D02*
X002200Y012700D01*
X002200Y012622D02*
X001680Y012622D01*
X001680Y012600D02*
X002080Y012600D01*
X002080Y012458D01*
X001822Y012200D01*
X001680Y012200D01*
X001680Y012600D01*
X001680Y012543D02*
X001600Y012543D01*
X001600Y012465D02*
X001680Y012465D01*
X001680Y012386D02*
X001600Y012386D01*
X001600Y012308D02*
X001680Y012308D01*
X001680Y012229D02*
X001600Y012229D01*
X001600Y012080D02*
X001458Y012080D01*
X001200Y011822D01*
X001200Y011680D01*
X001600Y011680D01*
X001600Y012080D01*
X001600Y012072D02*
X001680Y012072D01*
X001680Y012080D02*
X001680Y011680D01*
X001600Y011680D01*
X001600Y011600D01*
X001200Y011600D01*
X001200Y011458D01*
X001458Y011200D01*
X001600Y011200D01*
X001600Y011600D01*
X001680Y011600D01*
X001680Y011680D01*
X002080Y011680D01*
X002080Y011822D01*
X001822Y012080D01*
X001680Y012080D01*
X001680Y011994D02*
X001600Y011994D01*
X001600Y011915D02*
X001680Y011915D01*
X001680Y011837D02*
X001600Y011837D01*
X001600Y011758D02*
X001680Y011758D01*
X001680Y011680D02*
X002200Y011680D01*
X002200Y011758D02*
X002080Y011758D01*
X002066Y011837D02*
X002214Y011837D01*
X002200Y011822D02*
X002200Y011458D01*
X002458Y011200D01*
X002822Y011200D01*
X003080Y011458D01*
X003080Y011822D01*
X002822Y012080D01*
X002458Y012080D01*
X002200Y011822D01*
X002293Y011915D02*
X001987Y011915D01*
X001909Y011994D02*
X002371Y011994D01*
X002450Y012072D02*
X001830Y012072D01*
X001851Y012229D02*
X002429Y012229D01*
X002350Y012308D02*
X001930Y012308D01*
X002008Y012386D02*
X002272Y012386D01*
X002200Y012465D02*
X002080Y012465D01*
X002080Y012543D02*
X002200Y012543D01*
X001680Y012700D02*
X001600Y012700D01*
X001600Y012622D02*
X000280Y012622D01*
X000280Y012700D02*
X001200Y012700D01*
X001200Y012779D02*
X000280Y012779D01*
X000280Y012857D02*
X001235Y012857D01*
X001313Y012936D02*
X000280Y012936D01*
X000280Y013014D02*
X001392Y013014D01*
X001600Y013014D02*
X001680Y013014D01*
X001680Y012936D02*
X001600Y012936D01*
X001600Y012857D02*
X001680Y012857D01*
X001680Y012779D02*
X001600Y012779D01*
X001200Y012543D02*
X000280Y012543D01*
X000280Y012465D02*
X001200Y012465D01*
X001272Y012386D02*
X000280Y012386D01*
X000280Y012308D02*
X001350Y012308D01*
X001429Y012229D02*
X000280Y012229D01*
X000280Y012151D02*
X003861Y012151D01*
X003830Y012072D02*
X003939Y012072D01*
X003909Y011994D02*
X004018Y011994D01*
X003987Y011915D02*
X004096Y011915D01*
X004066Y011837D02*
X004175Y011837D01*
X004253Y011758D02*
X004080Y011758D01*
X004080Y011680D02*
X004332Y011680D01*
X004410Y011601D02*
X004080Y011601D01*
X004080Y011523D02*
X004489Y011523D01*
X004262Y011287D02*
X005419Y011287D01*
X005340Y011366D02*
X004183Y011366D01*
X004105Y011444D02*
X005287Y011444D01*
X005287Y011837D02*
X004712Y011837D01*
X004634Y011915D02*
X005341Y011915D01*
X005420Y011994D02*
X004555Y011994D01*
X004477Y012072D02*
X010433Y012072D01*
X010519Y012151D02*
X004398Y012151D01*
X004320Y012229D02*
X005555Y012229D01*
X005398Y012308D02*
X004241Y012308D01*
X004163Y012386D02*
X005320Y012386D01*
X005295Y012857D02*
X004692Y012857D01*
X004613Y012936D02*
X005362Y012936D01*
X005466Y013014D02*
X004535Y013014D01*
X004456Y013093D02*
X010455Y013093D01*
X010542Y013171D02*
X004378Y013171D01*
X004299Y013250D02*
X005505Y013250D01*
X005378Y013328D02*
X004221Y013328D01*
X004142Y013407D02*
X005302Y013407D01*
X005270Y013485D02*
X004080Y013485D01*
X004080Y013564D02*
X005240Y013564D01*
X005240Y013642D02*
X004080Y013642D01*
X004080Y013721D02*
X005240Y013721D01*
X005271Y013799D02*
X004080Y013799D01*
X004080Y013878D02*
X005304Y013878D01*
X005382Y013956D02*
X004080Y013956D01*
X004043Y014035D02*
X005515Y014035D01*
X005456Y014270D02*
X003638Y014270D01*
X003716Y014349D02*
X005357Y014349D01*
X005403Y014977D02*
X004600Y014977D01*
X004600Y015055D02*
X005565Y015055D01*
X005260Y015291D02*
X004820Y015291D01*
X004865Y015369D02*
X005215Y015369D01*
X005215Y015448D02*
X004865Y015448D01*
X004865Y015526D02*
X005215Y015526D01*
X005215Y015605D02*
X004865Y015605D01*
X004865Y015683D02*
X005215Y015683D01*
X005215Y015762D02*
X004865Y015762D01*
X004865Y015840D02*
X005215Y015840D01*
X005215Y015919D02*
X004865Y015919D01*
X004812Y015997D02*
X005268Y015997D01*
X004600Y015212D02*
X007050Y015212D01*
X007050Y015134D02*
X004600Y015134D01*
X004080Y015134D02*
X002080Y015134D01*
X002080Y015212D02*
X004080Y015212D01*
X004080Y015055D02*
X002080Y015055D01*
X002080Y014977D02*
X004080Y014977D01*
X003922Y015291D02*
X002080Y015291D01*
X002033Y015369D02*
X003876Y015369D01*
X003876Y015448D02*
X001955Y015448D01*
X001876Y015526D02*
X003876Y015526D01*
X003876Y015605D02*
X000280Y015605D01*
X000280Y015683D02*
X003876Y015683D01*
X003876Y015762D02*
X001884Y015762D01*
X001962Y015840D02*
X003876Y015840D01*
X003876Y015919D02*
X002041Y015919D01*
X002080Y015997D02*
X003929Y015997D01*
X003584Y014898D02*
X002020Y014898D01*
X001942Y014820D02*
X003452Y014820D01*
X003373Y014741D02*
X001907Y014741D01*
X001985Y014663D02*
X003295Y014663D01*
X003216Y014584D02*
X002064Y014584D01*
X002142Y014506D02*
X003138Y014506D01*
X003059Y014427D02*
X002221Y014427D01*
X002299Y014349D02*
X002981Y014349D01*
X002902Y014270D02*
X002378Y014270D01*
X002456Y014192D02*
X002824Y014192D01*
X002745Y014113D02*
X002535Y014113D01*
X002192Y013721D02*
X002080Y013721D01*
X002080Y013799D02*
X002113Y013799D01*
X001680Y013799D02*
X001600Y013799D01*
X001600Y013721D02*
X001680Y013721D01*
X001680Y013878D02*
X001600Y013878D01*
X001600Y013956D02*
X001680Y013956D01*
X001680Y014035D02*
X001600Y014035D01*
X001600Y013485D02*
X001680Y013485D01*
X001680Y013407D02*
X001600Y013407D01*
X001600Y013328D02*
X001680Y013328D01*
X001680Y013250D02*
X001600Y013250D01*
X001232Y013250D02*
X000280Y013250D01*
X000280Y013328D02*
X001200Y013328D01*
X001200Y013407D02*
X000280Y013407D01*
X000280Y013485D02*
X001200Y013485D01*
X001450Y012072D02*
X000280Y012072D01*
X000280Y011994D02*
X001371Y011994D01*
X001293Y011915D02*
X000280Y011915D01*
X000280Y011837D02*
X001214Y011837D01*
X001200Y011758D02*
X000280Y011758D01*
X000280Y011680D02*
X001600Y011680D01*
X001600Y011601D02*
X000280Y011601D01*
X000280Y011523D02*
X001200Y011523D01*
X001214Y011444D02*
X000280Y011444D01*
X000280Y011366D02*
X001292Y011366D01*
X001371Y011287D02*
X000280Y011287D01*
X000280Y011209D02*
X001449Y011209D01*
X001458Y011080D02*
X001200Y010822D01*
X001200Y010680D01*
X001600Y010680D01*
X001600Y011080D01*
X001458Y011080D01*
X001429Y011052D02*
X000280Y011052D01*
X000280Y011130D02*
X003881Y011130D01*
X003851Y011052D02*
X003960Y011052D01*
X003929Y010973D02*
X004038Y010973D01*
X004008Y010895D02*
X004117Y010895D01*
X004080Y010816D02*
X004195Y010816D01*
X004274Y010738D02*
X004080Y010738D01*
X004080Y010659D02*
X004352Y010659D01*
X004431Y010581D02*
X004080Y010581D01*
X004080Y010502D02*
X004509Y010502D01*
X004282Y010267D02*
X005464Y010267D01*
X005361Y010345D02*
X004204Y010345D01*
X004125Y010424D02*
X005295Y010424D01*
X005507Y010031D02*
X004518Y010031D01*
X004596Y009953D02*
X005379Y009953D01*
X005302Y009874D02*
X004675Y009874D01*
X004439Y010110D02*
X010474Y010110D01*
X010560Y010188D02*
X004361Y010188D01*
X004216Y009796D02*
X004080Y009796D01*
X004080Y009717D02*
X004294Y009717D01*
X004373Y009639D02*
X004080Y009639D01*
X004080Y009560D02*
X004451Y009560D01*
X004530Y009482D02*
X004080Y009482D01*
X004146Y009403D02*
X005304Y009403D01*
X005382Y009325D02*
X004224Y009325D01*
X004303Y009246D02*
X005514Y009246D01*
X005457Y009011D02*
X004538Y009011D01*
X004460Y009089D02*
X010451Y009089D01*
X010365Y009011D02*
X009423Y009011D01*
X009522Y008932D02*
X010279Y008932D01*
X010192Y008854D02*
X009586Y008854D01*
X009366Y009246D02*
X010624Y009246D01*
X010538Y009168D02*
X004381Y009168D01*
X004617Y008932D02*
X005358Y008932D01*
X005294Y008854D02*
X004695Y008854D01*
X004393Y008618D02*
X004080Y008618D01*
X004080Y008540D02*
X004472Y008540D01*
X004550Y008461D02*
X004088Y008461D01*
X004166Y008383D02*
X005324Y008383D01*
X005402Y008304D02*
X004245Y008304D01*
X004323Y008226D02*
X005563Y008226D01*
X005416Y007990D02*
X004559Y007990D01*
X004637Y007912D02*
X005338Y007912D01*
X005285Y007833D02*
X004716Y007833D01*
X004480Y008069D02*
X010429Y008069D01*
X010515Y008147D02*
X004402Y008147D01*
X004100Y007912D02*
X003991Y007912D01*
X004021Y007990D02*
X003912Y007990D01*
X003943Y008069D02*
X003834Y008069D01*
X003864Y008147D02*
X000280Y008147D01*
X000280Y008069D02*
X001446Y008069D01*
X001368Y007990D02*
X000280Y007990D01*
X000280Y007912D02*
X001289Y007912D01*
X001211Y007833D02*
X000280Y007833D01*
X000280Y007755D02*
X001200Y007755D01*
X001200Y007598D02*
X000280Y007598D01*
X000280Y007676D02*
X001600Y007676D01*
X001600Y007598D02*
X001680Y007598D01*
X001680Y007676D02*
X002200Y007676D01*
X002200Y007598D02*
X002080Y007598D01*
X002080Y007519D02*
X002200Y007519D01*
X002200Y007458D02*
X002458Y007200D01*
X002822Y007200D01*
X003080Y007458D01*
X003080Y007822D01*
X002822Y008080D01*
X002458Y008080D01*
X002200Y007822D01*
X002200Y007458D01*
X002217Y007441D02*
X002063Y007441D01*
X001984Y007362D02*
X002296Y007362D01*
X002374Y007284D02*
X001906Y007284D01*
X001827Y007205D02*
X002453Y007205D01*
X002426Y007048D02*
X001854Y007048D01*
X001822Y007080D02*
X001680Y007080D01*
X001680Y006680D01*
X002080Y006680D01*
X002080Y006822D01*
X001822Y007080D01*
X001680Y007048D02*
X001600Y007048D01*
X001600Y006970D02*
X001680Y006970D01*
X001680Y006891D02*
X001600Y006891D01*
X001600Y006813D02*
X001680Y006813D01*
X001680Y006734D02*
X001600Y006734D01*
X001680Y006656D02*
X002200Y006656D01*
X002200Y006734D02*
X002080Y006734D01*
X002080Y006813D02*
X002200Y006813D01*
X002269Y006891D02*
X002011Y006891D01*
X001933Y006970D02*
X002347Y006970D01*
X002200Y006577D02*
X002080Y006577D01*
X002080Y006499D02*
X002200Y006499D01*
X002238Y006420D02*
X002042Y006420D01*
X001964Y006342D02*
X002316Y006342D01*
X002900Y006263D02*
X003395Y006263D01*
X003316Y006342D02*
X002964Y006342D01*
X003042Y006420D02*
X003238Y006420D01*
X003200Y006499D02*
X003080Y006499D01*
X003080Y006577D02*
X003200Y006577D01*
X003200Y006656D02*
X003080Y006656D01*
X003080Y006734D02*
X003200Y006734D01*
X003200Y006813D02*
X003080Y006813D01*
X003011Y006891D02*
X003269Y006891D01*
X003347Y006970D02*
X002933Y006970D01*
X002854Y007048D02*
X003426Y007048D01*
X003453Y007205D02*
X002827Y007205D01*
X002906Y007284D02*
X003374Y007284D01*
X003296Y007362D02*
X002984Y007362D01*
X003063Y007441D02*
X003217Y007441D01*
X003200Y007519D02*
X003080Y007519D01*
X003080Y007598D02*
X003200Y007598D01*
X003200Y007676D02*
X003080Y007676D01*
X003080Y007755D02*
X003200Y007755D01*
X003211Y007833D02*
X003069Y007833D01*
X002991Y007912D02*
X003289Y007912D01*
X003368Y007990D02*
X002912Y007990D01*
X002834Y008069D02*
X003446Y008069D01*
X003432Y008226D02*
X002848Y008226D01*
X002822Y008200D02*
X003080Y008458D01*
X003080Y008822D01*
X002822Y009080D01*
X002458Y009080D01*
X002200Y008822D01*
X002200Y008458D01*
X002458Y008200D01*
X002822Y008200D01*
X002926Y008304D02*
X003354Y008304D01*
X003275Y008383D02*
X003005Y008383D01*
X003080Y008461D02*
X003200Y008461D01*
X003200Y008540D02*
X003080Y008540D01*
X003080Y008618D02*
X003200Y008618D01*
X003200Y008697D02*
X003080Y008697D01*
X003080Y008775D02*
X003200Y008775D01*
X003231Y008854D02*
X003049Y008854D01*
X002970Y008932D02*
X003310Y008932D01*
X003388Y009011D02*
X002892Y009011D01*
X002822Y009200D02*
X003080Y009458D01*
X003080Y009822D01*
X002822Y010080D01*
X002458Y010080D01*
X002200Y009822D01*
X002200Y009458D01*
X002458Y009200D01*
X002822Y009200D01*
X002868Y009246D02*
X003412Y009246D01*
X003333Y009325D02*
X002947Y009325D01*
X003025Y009403D02*
X003255Y009403D01*
X003200Y009482D02*
X003080Y009482D01*
X003080Y009560D02*
X003200Y009560D01*
X003200Y009639D02*
X003080Y009639D01*
X003080Y009717D02*
X003200Y009717D01*
X003200Y009796D02*
X003080Y009796D01*
X003028Y009874D02*
X003252Y009874D01*
X003330Y009953D02*
X002950Y009953D01*
X002871Y010031D02*
X003409Y010031D01*
X003391Y010267D02*
X002889Y010267D01*
X002822Y010200D02*
X003080Y010458D01*
X003080Y010822D01*
X002822Y011080D01*
X002458Y011080D01*
X002200Y010822D01*
X002200Y010458D01*
X002458Y010200D01*
X002822Y010200D01*
X002967Y010345D02*
X003313Y010345D01*
X003234Y010424D02*
X003046Y010424D01*
X003080Y010502D02*
X003200Y010502D01*
X003200Y010581D02*
X003080Y010581D01*
X003080Y010659D02*
X003200Y010659D01*
X003200Y010738D02*
X003080Y010738D01*
X003080Y010816D02*
X003200Y010816D01*
X003272Y010895D02*
X003008Y010895D01*
X002929Y010973D02*
X003351Y010973D01*
X003429Y011052D02*
X002851Y011052D01*
X002831Y011209D02*
X003449Y011209D01*
X003371Y011287D02*
X002909Y011287D01*
X002988Y011366D02*
X003292Y011366D01*
X003214Y011444D02*
X003066Y011444D01*
X003080Y011523D02*
X003200Y011523D01*
X003200Y011601D02*
X003080Y011601D01*
X003080Y011680D02*
X003200Y011680D01*
X003200Y011758D02*
X003080Y011758D01*
X003066Y011837D02*
X003214Y011837D01*
X003293Y011915D02*
X002987Y011915D01*
X002909Y011994D02*
X003371Y011994D01*
X003450Y012072D02*
X002830Y012072D01*
X002851Y012229D02*
X003429Y012229D01*
X003350Y012308D02*
X002930Y012308D01*
X003008Y012386D02*
X003272Y012386D01*
X003200Y012465D02*
X003080Y012465D01*
X003080Y012543D02*
X003200Y012543D01*
X003200Y012622D02*
X003080Y012622D01*
X003080Y012700D02*
X003200Y012700D01*
X003200Y012779D02*
X003080Y012779D01*
X003045Y012857D02*
X003235Y012857D01*
X003313Y012936D02*
X002967Y012936D01*
X002888Y013014D02*
X003392Y013014D01*
X003232Y013250D02*
X003048Y013250D01*
X003080Y013328D02*
X003200Y013328D01*
X003200Y013407D02*
X003080Y013407D01*
X003080Y013485D02*
X003200Y013485D01*
X003200Y013564D02*
X003080Y013564D01*
X003080Y013642D02*
X003200Y013642D01*
X003200Y013721D02*
X003088Y013721D01*
X003167Y013799D02*
X003200Y013799D01*
X003840Y013171D02*
X000280Y013171D01*
X000280Y013093D02*
X003919Y013093D01*
X003888Y013014D02*
X003997Y013014D01*
X003967Y012936D02*
X004076Y012936D01*
X004045Y012857D02*
X004154Y012857D01*
X004080Y012779D02*
X004233Y012779D01*
X004311Y012700D02*
X004080Y012700D01*
X004080Y012622D02*
X004390Y012622D01*
X004468Y012543D02*
X004080Y012543D01*
X004084Y012465D02*
X004547Y012465D01*
X004340Y011209D02*
X010583Y011209D01*
X010669Y011287D02*
X009461Y011287D01*
X009540Y011366D02*
X010756Y011366D01*
X010842Y011444D02*
X009593Y011444D01*
X009593Y011837D02*
X010174Y011837D01*
X010260Y011915D02*
X009539Y011915D01*
X009460Y011994D02*
X010346Y011994D01*
X010605Y012229D02*
X009325Y012229D01*
X009482Y012308D02*
X010692Y012308D01*
X010778Y012386D02*
X009560Y012386D01*
X009585Y012857D02*
X010196Y012857D01*
X010283Y012936D02*
X009518Y012936D01*
X009414Y013014D02*
X010369Y013014D01*
X010628Y013250D02*
X009375Y013250D01*
X009502Y013328D02*
X010714Y013328D01*
X010801Y013407D02*
X009578Y013407D01*
X009610Y013485D02*
X010887Y013485D01*
X010900Y013564D02*
X009640Y013564D01*
X009711Y013642D02*
X010900Y013642D01*
X010900Y013721D02*
X009789Y013721D01*
X009868Y013799D02*
X010900Y013799D01*
X010900Y013878D02*
X009946Y013878D01*
X010025Y013956D02*
X010900Y013956D01*
X010937Y014035D02*
X010030Y014035D01*
X010030Y014113D02*
X011315Y014113D01*
X011242Y014192D02*
X010030Y014192D01*
X010030Y014270D02*
X011169Y014270D01*
X011169Y014349D02*
X010030Y014349D01*
X010030Y014427D02*
X011169Y014427D01*
X011169Y014663D02*
X010906Y014663D01*
X010915Y014741D02*
X011169Y014741D01*
X011174Y014820D02*
X010988Y014820D01*
X011067Y014898D02*
X011236Y014898D01*
X011169Y014977D02*
X011145Y014977D01*
X010843Y015212D02*
X010030Y015212D01*
X010030Y015134D02*
X010765Y015134D01*
X010686Y015055D02*
X010030Y015055D01*
X010030Y014977D02*
X010492Y014977D01*
X010409Y014898D02*
X010030Y014898D01*
X010030Y014820D02*
X010375Y014820D01*
X010365Y014741D02*
X010030Y014741D01*
X010030Y014663D02*
X010374Y014663D01*
X010407Y014584D02*
X010484Y014507D01*
X010922Y015291D02*
X010030Y015291D01*
X010030Y015369D02*
X011000Y015369D01*
X011169Y015448D02*
X010030Y015448D01*
X010030Y015526D02*
X011180Y015526D01*
X011831Y015526D02*
X011849Y015526D01*
X012500Y015526D02*
X014700Y015526D01*
X014700Y015448D02*
X012511Y015448D01*
X012511Y015369D02*
X014700Y015369D01*
X014700Y015291D02*
X012511Y015291D01*
X012511Y015212D02*
X014700Y015212D01*
X014700Y015134D02*
X012511Y015134D01*
X012511Y015055D02*
X014700Y015055D01*
X014700Y014977D02*
X012511Y014977D01*
X012444Y014898D02*
X014700Y014898D01*
X014700Y014820D02*
X012506Y014820D01*
X012511Y014741D02*
X014700Y014741D01*
X014700Y014663D02*
X012511Y014663D01*
X012511Y014584D02*
X014700Y014584D01*
X014700Y014506D02*
X012511Y014506D01*
X012511Y014427D02*
X014700Y014427D01*
X014700Y014349D02*
X012511Y014349D01*
X012511Y014270D02*
X014700Y014270D01*
X014700Y014192D02*
X012438Y014192D01*
X012373Y014113D02*
X014700Y014113D01*
X014700Y014035D02*
X013743Y014035D01*
X013752Y014026D02*
X013726Y014052D01*
X013694Y014070D01*
X013658Y014080D01*
X013380Y014080D01*
X013380Y013680D01*
X013300Y013680D01*
X013300Y014080D01*
X013022Y014080D01*
X012986Y014070D01*
X012954Y014052D01*
X012928Y014026D01*
X012910Y013994D01*
X012900Y013958D01*
X012900Y013680D01*
X013300Y013680D01*
X013300Y013600D01*
X013380Y013600D01*
X013380Y013680D01*
X013780Y013680D01*
X013780Y013958D01*
X013770Y013994D01*
X013752Y014026D01*
X013780Y013956D02*
X014700Y013956D01*
X014700Y013878D02*
X013780Y013878D01*
X013780Y013799D02*
X014700Y013799D01*
X014700Y013721D02*
X013780Y013721D01*
X013780Y013600D02*
X013780Y013322D01*
X013770Y013286D01*
X013752Y013254D01*
X013726Y013228D01*
X013694Y013210D01*
X013658Y013200D01*
X013380Y013200D01*
X013380Y013600D01*
X013780Y013600D01*
X013780Y013564D02*
X014700Y013564D01*
X014700Y013642D02*
X013380Y013642D01*
X013380Y013564D02*
X013300Y013564D01*
X013300Y013600D02*
X013300Y013200D01*
X013022Y013200D01*
X012986Y013210D01*
X012954Y013228D01*
X012928Y013254D01*
X012910Y013286D01*
X012900Y013322D01*
X012900Y013600D01*
X013300Y013600D01*
X013300Y013642D02*
X012780Y013642D01*
X012780Y013564D02*
X012900Y013564D01*
X012900Y013485D02*
X012780Y013485D01*
X012780Y013407D02*
X012900Y013407D01*
X012900Y013328D02*
X012780Y013328D01*
X012748Y013250D02*
X012932Y013250D01*
X013158Y013080D02*
X012900Y012822D01*
X012900Y012680D01*
X013300Y012680D01*
X013300Y013080D01*
X013158Y013080D01*
X013092Y013014D02*
X012588Y013014D01*
X012667Y012936D02*
X013013Y012936D01*
X012935Y012857D02*
X012745Y012857D01*
X012780Y012779D02*
X012900Y012779D01*
X012900Y012700D02*
X012780Y012700D01*
X012780Y012622D02*
X013300Y012622D01*
X013300Y012600D02*
X012900Y012600D01*
X012900Y012458D01*
X013158Y012200D01*
X013300Y012200D01*
X013300Y012600D01*
X013300Y012680D01*
X013380Y012680D01*
X013380Y013080D01*
X013522Y013080D01*
X013780Y012822D01*
X013780Y012680D01*
X013380Y012680D01*
X013380Y012600D01*
X013780Y012600D01*
X013780Y012458D01*
X013522Y012200D01*
X013380Y012200D01*
X013380Y012600D01*
X013300Y012600D01*
X013300Y012543D02*
X013380Y012543D01*
X013380Y012465D02*
X013300Y012465D01*
X013300Y012386D02*
X013380Y012386D01*
X013380Y012308D02*
X013300Y012308D01*
X013300Y012229D02*
X013380Y012229D01*
X013380Y012080D02*
X013380Y011680D01*
X013300Y011680D01*
X013300Y012080D01*
X013158Y012080D01*
X012900Y011822D01*
X012900Y011680D01*
X013300Y011680D01*
X013300Y011600D01*
X012900Y011600D01*
X012900Y011458D01*
X013158Y011200D01*
X013300Y011200D01*
X013300Y011600D01*
X013380Y011600D01*
X013380Y011680D01*
X013780Y011680D01*
X013780Y011822D01*
X013522Y012080D01*
X013380Y012080D01*
X013380Y012072D02*
X013300Y012072D01*
X013300Y011994D02*
X013380Y011994D01*
X013380Y011915D02*
X013300Y011915D01*
X013300Y011837D02*
X013380Y011837D01*
X013380Y011758D02*
X013300Y011758D01*
X013300Y011680D02*
X012780Y011680D01*
X012780Y011758D02*
X012900Y011758D01*
X012914Y011837D02*
X012766Y011837D01*
X012687Y011915D02*
X012993Y011915D01*
X013071Y011994D02*
X012609Y011994D01*
X012530Y012072D02*
X013150Y012072D01*
X013129Y012229D02*
X012551Y012229D01*
X012630Y012308D02*
X013050Y012308D01*
X012972Y012386D02*
X012708Y012386D01*
X012780Y012465D02*
X012900Y012465D01*
X012900Y012543D02*
X012780Y012543D01*
X012414Y012151D02*
X014700Y012151D01*
X014700Y012229D02*
X013551Y012229D01*
X013630Y012308D02*
X014700Y012308D01*
X014700Y012386D02*
X013708Y012386D01*
X013780Y012465D02*
X014700Y012465D01*
X014700Y012543D02*
X013780Y012543D01*
X013780Y012700D02*
X014700Y012700D01*
X014700Y012622D02*
X013380Y012622D01*
X013380Y012700D02*
X013300Y012700D01*
X013300Y012779D02*
X013380Y012779D01*
X013380Y012857D02*
X013300Y012857D01*
X013300Y012936D02*
X013380Y012936D01*
X013380Y013014D02*
X013300Y013014D01*
X013300Y013250D02*
X013380Y013250D01*
X013380Y013328D02*
X013300Y013328D01*
X013300Y013407D02*
X013380Y013407D01*
X013380Y013485D02*
X013300Y013485D01*
X013300Y013721D02*
X013380Y013721D01*
X013380Y013799D02*
X013300Y013799D01*
X013300Y013878D02*
X013380Y013878D01*
X013380Y013956D02*
X013300Y013956D01*
X013300Y014035D02*
X013380Y014035D01*
X012937Y014035D02*
X012743Y014035D01*
X012780Y013956D02*
X012900Y013956D01*
X012900Y013878D02*
X012780Y013878D01*
X012780Y013799D02*
X012900Y013799D01*
X012900Y013721D02*
X012780Y013721D01*
X012393Y013171D02*
X014700Y013171D01*
X014700Y013093D02*
X012394Y013093D01*
X012014Y013093D02*
X011020Y013093D01*
X011092Y013014D02*
X010934Y013014D01*
X011013Y012936D02*
X010848Y012936D01*
X010761Y012857D02*
X010935Y012857D01*
X010900Y012779D02*
X010675Y012779D01*
X010588Y012700D02*
X010900Y012700D01*
X010900Y012622D02*
X010502Y012622D01*
X010416Y012543D02*
X010900Y012543D01*
X010865Y012465D02*
X010333Y012465D01*
X010739Y011837D02*
X010914Y011837D01*
X010900Y011758D02*
X010652Y011758D01*
X010566Y011680D02*
X010900Y011680D01*
X010900Y011601D02*
X010480Y011601D01*
X010393Y011523D02*
X010900Y011523D01*
X010825Y011915D02*
X010993Y011915D01*
X011071Y011994D02*
X010911Y011994D01*
X010998Y012072D02*
X011150Y012072D01*
X011084Y012151D02*
X012034Y012151D01*
X012032Y012229D02*
X011551Y012229D01*
X011630Y012308D02*
X012031Y012308D01*
X011972Y012386D02*
X011708Y012386D01*
X011780Y012465D02*
X011900Y012465D01*
X011900Y012543D02*
X011780Y012543D01*
X011780Y012622D02*
X011900Y012622D01*
X011900Y012700D02*
X011780Y012700D01*
X011780Y012779D02*
X011900Y012779D01*
X011935Y012857D02*
X011745Y012857D01*
X011667Y012936D02*
X012013Y012936D01*
X012016Y013014D02*
X011588Y013014D01*
X011748Y013250D02*
X011932Y013250D01*
X011900Y013328D02*
X011780Y013328D01*
X011780Y013407D02*
X011900Y013407D01*
X011900Y013485D02*
X011780Y013485D01*
X011780Y013564D02*
X011900Y013564D01*
X011900Y013642D02*
X011780Y013642D01*
X011780Y013721D02*
X011900Y013721D01*
X011900Y013799D02*
X011780Y013799D01*
X011780Y013878D02*
X011900Y013878D01*
X011900Y013956D02*
X011780Y013956D01*
X011743Y014035D02*
X011937Y014035D01*
X011993Y014113D02*
X011695Y014113D01*
X011768Y014192D02*
X011912Y014192D01*
X012013Y013171D02*
X011107Y013171D01*
X011530Y012072D02*
X012036Y012072D01*
X012037Y011994D02*
X011609Y011994D01*
X011687Y011915D02*
X011993Y011915D01*
X011914Y011837D02*
X011766Y011837D01*
X011780Y011758D02*
X011900Y011758D01*
X011900Y011680D02*
X011780Y011680D01*
X011780Y011601D02*
X011900Y011601D01*
X011900Y011523D02*
X011780Y011523D01*
X011766Y011444D02*
X011914Y011444D01*
X011992Y011366D02*
X011688Y011366D01*
X011609Y011287D02*
X012052Y011287D01*
X012054Y011209D02*
X011531Y011209D01*
X011551Y011052D02*
X012057Y011052D01*
X012056Y011130D02*
X011061Y011130D01*
X011129Y011052D02*
X010975Y011052D01*
X011051Y010973D02*
X010889Y010973D01*
X010972Y010895D02*
X010802Y010895D01*
X010716Y010816D02*
X010900Y010816D01*
X010900Y010738D02*
X010630Y010738D01*
X010543Y010659D02*
X010900Y010659D01*
X010819Y010424D02*
X009585Y010424D01*
X009519Y010345D02*
X010733Y010345D01*
X010647Y010267D02*
X009416Y010267D01*
X009373Y010031D02*
X010388Y010031D01*
X010301Y009953D02*
X009501Y009953D01*
X009578Y009874D02*
X010215Y009874D01*
X010434Y009560D02*
X010900Y009560D01*
X010900Y009639D02*
X010521Y009639D01*
X010607Y009717D02*
X010900Y009717D01*
X010900Y009796D02*
X010694Y009796D01*
X010780Y009874D02*
X010952Y009874D01*
X011030Y009953D02*
X010866Y009953D01*
X010953Y010031D02*
X011109Y010031D01*
X011039Y010110D02*
X012077Y010110D01*
X012075Y010188D02*
X011125Y010188D01*
X011589Y010267D02*
X012074Y010267D01*
X012013Y010345D02*
X011667Y010345D01*
X011746Y010424D02*
X011934Y010424D01*
X011900Y010502D02*
X011780Y010502D01*
X011780Y010581D02*
X011900Y010581D01*
X011900Y010659D02*
X011780Y010659D01*
X011780Y010738D02*
X011900Y010738D01*
X011900Y010816D02*
X011780Y010816D01*
X011708Y010895D02*
X011972Y010895D01*
X012051Y010973D02*
X011629Y010973D01*
X011149Y011209D02*
X011148Y011209D01*
X010497Y011130D02*
X004419Y011130D01*
X004497Y011052D02*
X005556Y011052D01*
X005399Y010973D02*
X004576Y010973D01*
X004654Y010895D02*
X005321Y010895D01*
X004137Y009874D02*
X004028Y009874D01*
X004059Y009953D02*
X003950Y009953D01*
X003980Y010031D02*
X003871Y010031D01*
X003902Y010110D02*
X000280Y010110D01*
X000280Y010188D02*
X003823Y010188D01*
X003844Y009168D02*
X000280Y009168D01*
X000280Y009246D02*
X001412Y009246D01*
X001458Y009200D02*
X001200Y009458D01*
X001200Y009600D01*
X001600Y009600D01*
X001600Y009680D01*
X001600Y010080D01*
X001458Y010080D01*
X001200Y009822D01*
X001200Y009680D01*
X001600Y009680D01*
X001680Y009680D01*
X001680Y010080D01*
X001822Y010080D01*
X002080Y009822D01*
X002080Y009680D01*
X001680Y009680D01*
X001680Y009600D01*
X002080Y009600D01*
X002080Y009458D01*
X001822Y009200D01*
X001680Y009200D01*
X001680Y009600D01*
X001600Y009600D01*
X001600Y009200D01*
X001458Y009200D01*
X001458Y009080D02*
X001200Y008822D01*
X001200Y008680D01*
X001600Y008680D01*
X001600Y009080D01*
X001458Y009080D01*
X001388Y009011D02*
X000280Y009011D01*
X000280Y009089D02*
X003922Y009089D01*
X003892Y009011D02*
X004001Y009011D01*
X003970Y008932D02*
X004079Y008932D01*
X004049Y008854D02*
X004158Y008854D01*
X004080Y008775D02*
X004236Y008775D01*
X004315Y008697D02*
X004080Y008697D01*
X004069Y007833D02*
X004178Y007833D01*
X004257Y007755D02*
X004080Y007755D01*
X004080Y007676D02*
X004335Y007676D01*
X004414Y007598D02*
X004080Y007598D01*
X004080Y007519D02*
X004492Y007519D01*
X004265Y007284D02*
X005423Y007284D01*
X005344Y007362D02*
X004187Y007362D01*
X004108Y007441D02*
X005288Y007441D01*
X005548Y007048D02*
X004501Y007048D01*
X004579Y006970D02*
X005396Y006970D01*
X005317Y006891D02*
X004658Y006891D01*
X004422Y007127D02*
X010493Y007127D01*
X010579Y007205D02*
X004344Y007205D01*
X003827Y006185D02*
X002900Y006185D01*
X002900Y006106D02*
X003905Y006106D01*
X003984Y006028D02*
X002900Y006028D01*
X002900Y005949D02*
X004062Y005949D01*
X004141Y005871D02*
X002900Y005871D01*
X002900Y005792D02*
X004219Y005792D01*
X004298Y005714D02*
X002900Y005714D01*
X002900Y005164D02*
X014700Y005164D01*
X014700Y005086D02*
X002900Y005086D01*
X002900Y005007D02*
X014700Y005007D01*
X014700Y004929D02*
X002900Y004929D01*
X002900Y004850D02*
X014700Y004850D01*
X014700Y004772D02*
X002900Y004772D01*
X002900Y004693D02*
X014700Y004693D01*
X014700Y004615D02*
X002900Y004615D01*
X001395Y006263D02*
X000280Y006263D01*
X000280Y006342D02*
X001316Y006342D01*
X001238Y006420D02*
X000280Y006420D01*
X000280Y006499D02*
X001200Y006499D01*
X001200Y006577D02*
X000280Y006577D01*
X000280Y007284D02*
X001374Y007284D01*
X001296Y007362D02*
X000280Y007362D01*
X000280Y007441D02*
X001217Y007441D01*
X001200Y007519D02*
X000280Y007519D01*
X000280Y008226D02*
X001432Y008226D01*
X001458Y008200D02*
X001200Y008458D01*
X001200Y008600D01*
X001600Y008600D01*
X001600Y008680D01*
X001680Y008680D01*
X001680Y009080D01*
X001822Y009080D01*
X002080Y008822D01*
X002080Y008680D01*
X001680Y008680D01*
X001680Y008600D01*
X002080Y008600D01*
X002080Y008458D01*
X001822Y008200D01*
X001680Y008200D01*
X001680Y008600D01*
X001600Y008600D01*
X001600Y008200D01*
X001458Y008200D01*
X001600Y008226D02*
X001680Y008226D01*
X001680Y008304D02*
X001600Y008304D01*
X001600Y008383D02*
X001680Y008383D01*
X001680Y008461D02*
X001600Y008461D01*
X001600Y008540D02*
X001680Y008540D01*
X001680Y008618D02*
X002200Y008618D01*
X002200Y008540D02*
X002080Y008540D01*
X002080Y008461D02*
X002200Y008461D01*
X002275Y008383D02*
X002005Y008383D01*
X001926Y008304D02*
X002354Y008304D01*
X002432Y008226D02*
X001848Y008226D01*
X001834Y008069D02*
X002446Y008069D01*
X002368Y007990D02*
X001912Y007990D01*
X001991Y007912D02*
X002289Y007912D01*
X002211Y007833D02*
X002069Y007833D01*
X002080Y007755D02*
X002200Y007755D01*
X001680Y007755D02*
X001600Y007755D01*
X001600Y007833D02*
X001680Y007833D01*
X001680Y007912D02*
X001600Y007912D01*
X001600Y007990D02*
X001680Y007990D01*
X001680Y008069D02*
X001600Y008069D01*
X001354Y008304D02*
X000280Y008304D01*
X000280Y008383D02*
X001275Y008383D01*
X001200Y008461D02*
X000280Y008461D01*
X000280Y008540D02*
X001200Y008540D01*
X001200Y008697D02*
X000280Y008697D01*
X000280Y008775D02*
X001200Y008775D01*
X001231Y008854D02*
X000280Y008854D01*
X000280Y008932D02*
X001310Y008932D01*
X001600Y008932D02*
X001680Y008932D01*
X001680Y008854D02*
X001600Y008854D01*
X001600Y008775D02*
X001680Y008775D01*
X001680Y008697D02*
X001600Y008697D01*
X001600Y008618D02*
X000280Y008618D01*
X000280Y009325D02*
X001333Y009325D01*
X001255Y009403D02*
X000280Y009403D01*
X000280Y009482D02*
X001200Y009482D01*
X001200Y009560D02*
X000280Y009560D01*
X000280Y009639D02*
X001600Y009639D01*
X001600Y009717D02*
X001680Y009717D01*
X001680Y009639D02*
X002200Y009639D01*
X002200Y009717D02*
X002080Y009717D01*
X002080Y009796D02*
X002200Y009796D01*
X002252Y009874D02*
X002028Y009874D01*
X001950Y009953D02*
X002330Y009953D01*
X002409Y010031D02*
X001871Y010031D01*
X001822Y010200D02*
X001680Y010200D01*
X001680Y010600D01*
X001680Y010680D01*
X001600Y010680D01*
X001600Y010600D01*
X001200Y010600D01*
X001200Y010458D01*
X001458Y010200D01*
X001600Y010200D01*
X001600Y010600D01*
X001680Y010600D01*
X002080Y010600D01*
X002080Y010458D01*
X001822Y010200D01*
X001889Y010267D02*
X002391Y010267D01*
X002313Y010345D02*
X001967Y010345D01*
X002046Y010424D02*
X002234Y010424D01*
X002200Y010502D02*
X002080Y010502D01*
X002080Y010581D02*
X002200Y010581D01*
X002200Y010659D02*
X001680Y010659D01*
X001680Y010680D02*
X002080Y010680D01*
X002080Y010822D01*
X001822Y011080D01*
X001680Y011080D01*
X001680Y010680D01*
X001680Y010738D02*
X001600Y010738D01*
X001600Y010816D02*
X001680Y010816D01*
X001680Y010895D02*
X001600Y010895D01*
X001600Y010973D02*
X001680Y010973D01*
X001680Y011052D02*
X001600Y011052D01*
X001600Y011209D02*
X001680Y011209D01*
X001680Y011200D02*
X001822Y011200D01*
X002080Y011458D01*
X002080Y011600D01*
X001680Y011600D01*
X001680Y011200D01*
X001680Y011287D02*
X001600Y011287D01*
X001600Y011366D02*
X001680Y011366D01*
X001680Y011444D02*
X001600Y011444D01*
X001600Y011523D02*
X001680Y011523D01*
X001680Y011601D02*
X002200Y011601D01*
X002200Y011523D02*
X002080Y011523D01*
X002066Y011444D02*
X002214Y011444D01*
X002292Y011366D02*
X001988Y011366D01*
X001909Y011287D02*
X002371Y011287D01*
X002449Y011209D02*
X001831Y011209D01*
X001851Y011052D02*
X002429Y011052D01*
X002351Y010973D02*
X001929Y010973D01*
X002008Y010895D02*
X002272Y010895D01*
X002200Y010816D02*
X002080Y010816D01*
X002080Y010738D02*
X002200Y010738D01*
X001680Y010581D02*
X001600Y010581D01*
X001600Y010659D02*
X000280Y010659D01*
X000280Y010581D02*
X001200Y010581D01*
X001200Y010502D02*
X000280Y010502D01*
X000280Y010424D02*
X001234Y010424D01*
X001313Y010345D02*
X000280Y010345D01*
X000280Y010267D02*
X001391Y010267D01*
X001600Y010267D02*
X001680Y010267D01*
X001680Y010345D02*
X001600Y010345D01*
X001600Y010424D02*
X001680Y010424D01*
X001680Y010502D02*
X001600Y010502D01*
X001200Y010738D02*
X000280Y010738D01*
X000280Y010816D02*
X001200Y010816D01*
X001272Y010895D02*
X000280Y010895D01*
X000280Y010973D02*
X001351Y010973D01*
X001409Y010031D02*
X000280Y010031D01*
X000280Y009953D02*
X001330Y009953D01*
X001252Y009874D02*
X000280Y009874D01*
X000280Y009796D02*
X001200Y009796D01*
X001200Y009717D02*
X000280Y009717D01*
X001600Y009796D02*
X001680Y009796D01*
X001680Y009874D02*
X001600Y009874D01*
X001600Y009953D02*
X001680Y009953D01*
X001680Y010031D02*
X001600Y010031D01*
X001600Y009560D02*
X001680Y009560D01*
X001680Y009482D02*
X001600Y009482D01*
X001600Y009403D02*
X001680Y009403D01*
X001680Y009325D02*
X001600Y009325D01*
X001600Y009246D02*
X001680Y009246D01*
X001868Y009246D02*
X002412Y009246D01*
X002333Y009325D02*
X001947Y009325D01*
X002025Y009403D02*
X002255Y009403D01*
X002200Y009482D02*
X002080Y009482D01*
X002080Y009560D02*
X002200Y009560D01*
X002388Y009011D02*
X001892Y009011D01*
X001970Y008932D02*
X002310Y008932D01*
X002231Y008854D02*
X002049Y008854D01*
X002080Y008775D02*
X002200Y008775D01*
X002200Y008697D02*
X002080Y008697D01*
X001680Y009011D02*
X001600Y009011D01*
X001600Y007519D02*
X001680Y007519D01*
X001680Y007441D02*
X001600Y007441D01*
X001600Y007362D02*
X001680Y007362D01*
X001680Y007284D02*
X001600Y007284D01*
X001600Y007205D02*
X001680Y007205D01*
X005228Y001475D02*
X005652Y001475D01*
X005574Y001396D02*
X005306Y001396D01*
X005380Y001318D02*
X005500Y001318D01*
X005500Y001239D02*
X005380Y001239D01*
X005380Y001082D02*
X005500Y001082D01*
X005500Y001004D02*
X005380Y001004D01*
X005347Y000925D02*
X005533Y000925D01*
X005611Y000847D02*
X005269Y000847D01*
X005190Y000768D02*
X005690Y000768D01*
X005900Y000768D02*
X005980Y000768D01*
X005980Y000847D02*
X005900Y000847D01*
X005900Y000925D02*
X005980Y000925D01*
X005980Y001004D02*
X005900Y001004D01*
X005900Y001082D02*
X005980Y001082D01*
X005980Y001318D02*
X005900Y001318D01*
X005900Y001396D02*
X005980Y001396D01*
X005980Y001475D02*
X005900Y001475D01*
X005900Y001553D02*
X005980Y001553D01*
X006132Y001710D02*
X006748Y001710D01*
X006758Y001700D02*
X007122Y001700D01*
X007380Y001958D01*
X007380Y002322D01*
X007122Y002580D01*
X006758Y002580D01*
X006500Y002322D01*
X006500Y001958D01*
X006758Y001700D01*
X006669Y001789D02*
X006211Y001789D01*
X006289Y001867D02*
X006591Y001867D01*
X006512Y001946D02*
X006368Y001946D01*
X006380Y002024D02*
X006500Y002024D01*
X006500Y002103D02*
X006380Y002103D01*
X006380Y002181D02*
X006500Y002181D01*
X006500Y002260D02*
X006380Y002260D01*
X006364Y002338D02*
X006516Y002338D01*
X006594Y002417D02*
X006286Y002417D01*
X006207Y002495D02*
X006673Y002495D01*
X006751Y002574D02*
X006129Y002574D01*
X006153Y002731D02*
X006727Y002731D01*
X006758Y002700D02*
X006500Y002958D01*
X006500Y003322D01*
X006758Y003580D01*
X007122Y003580D01*
X007380Y003322D01*
X007380Y002958D01*
X007122Y002700D01*
X006758Y002700D01*
X006649Y002809D02*
X006231Y002809D01*
X006310Y002888D02*
X006570Y002888D01*
X006500Y002966D02*
X006380Y002966D01*
X006380Y003045D02*
X006500Y003045D01*
X006500Y003123D02*
X006380Y003123D01*
X006380Y003202D02*
X006500Y003202D01*
X006500Y003280D02*
X006380Y003280D01*
X006344Y003359D02*
X006536Y003359D01*
X006615Y003437D02*
X006265Y003437D01*
X006187Y003516D02*
X006693Y003516D01*
X006758Y003700D02*
X007122Y003700D01*
X007380Y003958D01*
X007380Y004322D01*
X007122Y004580D01*
X006758Y004580D01*
X006500Y004322D01*
X006500Y003958D01*
X006758Y003700D01*
X006707Y003751D02*
X006173Y003751D01*
X006252Y003830D02*
X006628Y003830D01*
X006550Y003908D02*
X006330Y003908D01*
X006380Y003987D02*
X006500Y003987D01*
X006500Y004065D02*
X006380Y004065D01*
X006380Y004144D02*
X006500Y004144D01*
X006500Y004222D02*
X006380Y004222D01*
X006380Y004301D02*
X006500Y004301D01*
X006557Y004379D02*
X006323Y004379D01*
X006245Y004458D02*
X006635Y004458D01*
X006714Y004536D02*
X006166Y004536D01*
X007166Y004536D02*
X007538Y004536D01*
X007500Y004458D02*
X007245Y004458D01*
X007323Y004379D02*
X007500Y004379D01*
X007500Y004301D02*
X007380Y004301D01*
X007380Y004222D02*
X007500Y004222D01*
X007500Y004144D02*
X007380Y004144D01*
X007380Y004065D02*
X007500Y004065D01*
X007500Y003987D02*
X007380Y003987D01*
X007330Y003908D02*
X007500Y003908D01*
X007500Y003830D02*
X007252Y003830D01*
X007173Y003751D02*
X007531Y003751D01*
X007518Y003516D02*
X007187Y003516D01*
X007265Y003437D02*
X007500Y003437D01*
X007500Y003359D02*
X007344Y003359D01*
X007380Y003280D02*
X007500Y003280D01*
X007500Y003202D02*
X007380Y003202D01*
X007380Y003123D02*
X007500Y003123D01*
X007500Y003045D02*
X007380Y003045D01*
X007380Y002966D02*
X007500Y002966D01*
X007500Y002888D02*
X007310Y002888D01*
X007231Y002809D02*
X007500Y002809D01*
X007552Y002731D02*
X007153Y002731D01*
X007129Y002574D02*
X007576Y002574D01*
X007500Y002495D02*
X007207Y002495D01*
X007286Y002417D02*
X007500Y002417D01*
X007500Y002338D02*
X007364Y002338D01*
X007380Y002260D02*
X007500Y002260D01*
X007500Y002181D02*
X007380Y002181D01*
X007380Y002103D02*
X007500Y002103D01*
X007500Y002024D02*
X007380Y002024D01*
X007368Y001946D02*
X007500Y001946D01*
X007500Y001867D02*
X007289Y001867D01*
X007211Y001789D02*
X007500Y001789D01*
X007572Y001710D02*
X007132Y001710D01*
X007149Y001553D02*
X007556Y001553D01*
X007504Y001475D02*
X007228Y001475D01*
X007306Y001396D02*
X007500Y001396D01*
X007500Y001318D02*
X007380Y001318D01*
X007380Y001239D02*
X007500Y001239D01*
X007500Y001082D02*
X007380Y001082D01*
X007380Y001004D02*
X007500Y001004D01*
X007500Y000925D02*
X007347Y000925D01*
X007269Y000847D02*
X007500Y000847D01*
X007520Y000768D02*
X007190Y000768D01*
X006980Y000768D02*
X006900Y000768D01*
X006900Y000847D02*
X006980Y000847D01*
X006980Y000925D02*
X006900Y000925D01*
X006900Y001004D02*
X006980Y001004D01*
X006980Y001082D02*
X006900Y001082D01*
X006900Y001318D02*
X006980Y001318D01*
X006980Y001396D02*
X006900Y001396D01*
X006900Y001475D02*
X006980Y001475D01*
X006980Y001553D02*
X006900Y001553D01*
X006731Y001553D02*
X006149Y001553D01*
X006228Y001475D02*
X006652Y001475D01*
X006574Y001396D02*
X006306Y001396D01*
X006380Y001318D02*
X006500Y001318D01*
X006500Y001239D02*
X006380Y001239D01*
X006380Y001082D02*
X006500Y001082D01*
X006500Y001004D02*
X006380Y001004D01*
X006347Y000925D02*
X006533Y000925D01*
X006611Y000847D02*
X006269Y000847D01*
X006190Y000768D02*
X006690Y000768D01*
X007900Y000768D02*
X007980Y000768D01*
X007980Y000847D02*
X007900Y000847D01*
X007900Y000925D02*
X007980Y000925D01*
X007980Y001004D02*
X007900Y001004D01*
X007900Y001082D02*
X007980Y001082D01*
X007980Y001318D02*
X007900Y001318D01*
X007900Y001396D02*
X007980Y001396D01*
X007980Y001475D02*
X007900Y001475D01*
X007900Y001553D02*
X007980Y001553D01*
X008380Y002024D02*
X014700Y002024D01*
X014700Y001946D02*
X014049Y001946D01*
X014202Y001867D02*
X014700Y001867D01*
X014700Y001789D02*
X014280Y001789D01*
X014359Y001710D02*
X014700Y001710D01*
X014700Y001632D02*
X014411Y001632D01*
X014444Y001553D02*
X014700Y001553D01*
X014700Y001475D02*
X014476Y001475D01*
X014509Y001396D02*
X014700Y001396D01*
X014700Y001318D02*
X014510Y001318D01*
X014510Y001239D02*
X014700Y001239D01*
X014700Y001161D02*
X014510Y001161D01*
X014508Y001082D02*
X014695Y001082D01*
X014689Y001004D02*
X014475Y001004D01*
X014443Y000925D02*
X014663Y000925D01*
X014638Y000847D02*
X014410Y000847D01*
X014357Y000768D02*
X014612Y000768D01*
X014563Y000690D02*
X014278Y000690D01*
X014200Y000611D02*
X014506Y000611D01*
X014449Y000533D02*
X014044Y000533D01*
X014700Y002103D02*
X008380Y002103D01*
X008380Y002181D02*
X014700Y002181D01*
X014700Y002260D02*
X008380Y002260D01*
X008380Y002338D02*
X014700Y002338D01*
X014700Y002417D02*
X008380Y002417D01*
X008380Y002495D02*
X014700Y002495D01*
X014700Y005243D02*
X009358Y005243D01*
X009495Y005321D02*
X014700Y005321D01*
X014700Y005400D02*
X009573Y005400D01*
X009515Y006342D02*
X010773Y006342D01*
X010851Y006420D02*
X009583Y006420D01*
X009563Y006891D02*
X010234Y006891D01*
X010320Y006970D02*
X009484Y006970D01*
X009332Y007048D02*
X010406Y007048D01*
X010626Y006734D02*
X010900Y006734D01*
X010900Y006656D02*
X010540Y006656D01*
X010453Y006577D02*
X010900Y006577D01*
X010900Y006499D02*
X010367Y006499D01*
X010712Y006813D02*
X010900Y006813D01*
X010969Y006891D02*
X010799Y006891D01*
X010885Y006970D02*
X011047Y006970D01*
X010971Y007048D02*
X011126Y007048D01*
X011058Y007127D02*
X012140Y007127D01*
X012138Y007205D02*
X011527Y007205D01*
X011606Y007284D02*
X012074Y007284D01*
X011996Y007362D02*
X011684Y007362D01*
X011763Y007441D02*
X011917Y007441D01*
X011900Y007519D02*
X011780Y007519D01*
X011780Y007598D02*
X011900Y007598D01*
X011900Y007676D02*
X011780Y007676D01*
X011780Y007755D02*
X011900Y007755D01*
X011911Y007833D02*
X011769Y007833D01*
X011691Y007912D02*
X011989Y007912D01*
X012068Y007990D02*
X011612Y007990D01*
X011534Y008069D02*
X012120Y008069D01*
X012118Y008147D02*
X011080Y008147D01*
X011146Y008069D02*
X010994Y008069D01*
X011068Y007990D02*
X010907Y007990D01*
X010989Y007912D02*
X010821Y007912D01*
X010735Y007833D02*
X010911Y007833D01*
X010900Y007755D02*
X010648Y007755D01*
X010562Y007676D02*
X010900Y007676D01*
X010900Y007598D02*
X010476Y007598D01*
X010389Y007519D02*
X010900Y007519D01*
X010838Y007441D02*
X009592Y007441D01*
X009536Y007362D02*
X010752Y007362D01*
X010665Y007284D02*
X009457Y007284D01*
X009595Y007833D02*
X010170Y007833D01*
X010256Y007912D02*
X009542Y007912D01*
X009464Y007990D02*
X010343Y007990D01*
X010602Y008226D02*
X009317Y008226D01*
X009478Y008304D02*
X010688Y008304D01*
X010774Y008383D02*
X009556Y008383D01*
X009498Y009325D02*
X010711Y009325D01*
X010797Y009403D02*
X009576Y009403D01*
X010330Y008461D02*
X010861Y008461D01*
X010900Y008540D02*
X010412Y008540D01*
X010498Y008618D02*
X010900Y008618D01*
X010900Y008697D02*
X010585Y008697D01*
X010671Y008775D02*
X010900Y008775D01*
X010931Y008854D02*
X010757Y008854D01*
X010844Y008932D02*
X011010Y008932D01*
X011088Y009011D02*
X010930Y009011D01*
X011016Y009089D02*
X012098Y009089D01*
X012097Y009168D02*
X011103Y009168D01*
X010883Y009482D02*
X010350Y009482D01*
X010238Y010895D02*
X009559Y010895D01*
X009481Y010973D02*
X010324Y010973D01*
X010410Y011052D02*
X009324Y011052D01*
X008270Y013485D02*
X006954Y013485D01*
X007032Y013564D02*
X008240Y013564D01*
X008240Y013642D02*
X007111Y013642D01*
X007189Y013721D02*
X008240Y013721D01*
X008271Y013799D02*
X007268Y013799D01*
X007346Y013878D02*
X008304Y013878D01*
X008382Y013956D02*
X007425Y013956D01*
X007430Y014035D02*
X008515Y014035D01*
X008562Y014230D02*
X008499Y014251D01*
X008440Y014281D01*
X008386Y014320D01*
X008340Y014366D01*
X008301Y014420D01*
X008271Y014479D01*
X008250Y014542D01*
X008241Y014600D01*
X008900Y014600D01*
X008980Y014600D01*
X008980Y014680D01*
X008900Y014680D01*
X008900Y015060D01*
X008627Y015060D01*
X008562Y015050D01*
X008499Y015029D01*
X008440Y014999D01*
X008386Y014960D01*
X008340Y014914D01*
X008301Y014860D01*
X008271Y014801D01*
X008250Y014738D01*
X008241Y014680D01*
X008900Y014680D01*
X008900Y014600D01*
X008900Y014220D01*
X008627Y014220D01*
X008562Y014230D01*
X008461Y014270D02*
X007430Y014270D01*
X007430Y014192D02*
X009650Y014192D01*
X009650Y014270D02*
X009419Y014270D01*
X009440Y014281D02*
X009381Y014251D01*
X009318Y014230D01*
X009253Y014220D01*
X008980Y014220D01*
X008980Y014600D01*
X009639Y014600D01*
X009630Y014542D01*
X009609Y014479D01*
X009579Y014420D01*
X009540Y014366D01*
X009494Y014320D01*
X009440Y014281D01*
X009523Y014349D02*
X009650Y014349D01*
X009650Y014427D02*
X009583Y014427D01*
X009618Y014506D02*
X009650Y014506D01*
X009650Y014584D02*
X009636Y014584D01*
X009650Y014663D02*
X008980Y014663D01*
X008980Y014680D02*
X009639Y014680D01*
X009630Y014738D01*
X009609Y014801D01*
X009579Y014860D01*
X009540Y014914D01*
X009494Y014960D01*
X009440Y014999D01*
X009381Y015029D01*
X009318Y015050D01*
X009253Y015060D01*
X008980Y015060D01*
X008980Y014680D01*
X008980Y014741D02*
X008900Y014741D01*
X008900Y014663D02*
X007430Y014663D01*
X007430Y014741D02*
X008251Y014741D01*
X008280Y014820D02*
X007430Y014820D01*
X007430Y014898D02*
X008328Y014898D01*
X008409Y014977D02*
X007430Y014977D01*
X007430Y015055D02*
X008596Y015055D01*
X008900Y015055D02*
X008980Y015055D01*
X008980Y014977D02*
X008900Y014977D01*
X008900Y014898D02*
X008980Y014898D01*
X008980Y014820D02*
X008900Y014820D01*
X008900Y014584D02*
X008980Y014584D01*
X008980Y014506D02*
X008900Y014506D01*
X008900Y014427D02*
X008980Y014427D01*
X008980Y014349D02*
X008900Y014349D01*
X008900Y014270D02*
X008980Y014270D01*
X009365Y014035D02*
X009566Y014035D01*
X009644Y014113D02*
X007430Y014113D01*
X007430Y014349D02*
X008357Y014349D01*
X008297Y014427D02*
X007430Y014427D01*
X007430Y014506D02*
X008262Y014506D01*
X008244Y014584D02*
X007430Y014584D01*
X007430Y015134D02*
X009650Y015134D01*
X009650Y015212D02*
X007430Y015212D01*
X007430Y015291D02*
X009650Y015291D01*
X009650Y015369D02*
X007430Y015369D01*
X007624Y015448D02*
X007660Y015448D01*
X007935Y015448D02*
X008015Y015448D01*
X008015Y015383D02*
X008190Y015383D01*
X008226Y015393D01*
X008257Y015411D01*
X008284Y015438D01*
X008302Y015469D01*
X008311Y015505D01*
X008311Y015700D01*
X008015Y015700D01*
X008015Y015383D01*
X008015Y015526D02*
X007935Y015526D01*
X007935Y015605D02*
X008015Y015605D01*
X008015Y015683D02*
X007935Y015683D01*
X008015Y015762D02*
X009450Y015762D01*
X009450Y015840D02*
X008311Y015840D01*
X008311Y015919D02*
X009450Y015919D01*
X009450Y015997D02*
X008306Y015997D01*
X008245Y016076D02*
X009450Y016076D01*
X009450Y016154D02*
X007430Y016154D01*
X007430Y016233D02*
X009450Y016233D01*
X009450Y016311D02*
X007430Y016311D01*
X007430Y016390D02*
X009450Y016390D01*
X009450Y016468D02*
X007430Y016468D01*
X007430Y016547D02*
X009450Y016547D01*
X009309Y016625D02*
X007430Y016625D01*
X007430Y016704D02*
X009283Y016704D01*
X009283Y016782D02*
X007430Y016782D01*
X007430Y016861D02*
X009283Y016861D01*
X009283Y016939D02*
X007430Y016939D01*
X007430Y017018D02*
X009283Y017018D01*
X009283Y017096D02*
X007430Y017096D01*
X007430Y017175D02*
X009298Y017175D01*
X009350Y017253D02*
X007430Y017253D01*
X007430Y017332D02*
X009283Y017332D01*
X009283Y017410D02*
X007430Y017410D01*
X007430Y017489D02*
X009283Y017489D01*
X009283Y017567D02*
X007430Y017567D01*
X007430Y017646D02*
X009283Y017646D01*
X009283Y017724D02*
X007430Y017724D01*
X007430Y017803D02*
X009283Y017803D01*
X009335Y017881D02*
X007430Y017881D01*
X007430Y017960D02*
X009432Y017960D01*
X009385Y018038D02*
X007430Y018038D01*
X007430Y018274D02*
X009398Y018274D01*
X009463Y018352D02*
X007430Y018352D01*
X007430Y018431D02*
X014700Y018431D01*
X014700Y018509D02*
X013987Y018509D01*
X013893Y018470D02*
X014176Y018587D01*
X014393Y018804D01*
X014510Y019087D01*
X014510Y019393D01*
X014393Y019676D01*
X014176Y019893D01*
X013893Y020010D01*
X013587Y020010D01*
X013304Y019893D01*
X013087Y019676D01*
X012970Y019393D01*
X012970Y019087D01*
X013087Y018804D01*
X013304Y018587D01*
X013587Y018470D01*
X013893Y018470D01*
X014176Y018588D02*
X014700Y018588D01*
X014700Y018666D02*
X014255Y018666D01*
X014333Y018745D02*
X014700Y018745D01*
X014700Y018823D02*
X014401Y018823D01*
X014433Y018902D02*
X014700Y018902D01*
X014700Y018980D02*
X014466Y018980D01*
X014498Y019059D02*
X014700Y019059D01*
X014700Y019137D02*
X014510Y019137D01*
X014510Y019216D02*
X014700Y019216D01*
X014700Y019294D02*
X014510Y019294D01*
X014510Y019373D02*
X014697Y019373D01*
X014691Y019451D02*
X014486Y019451D01*
X014453Y019530D02*
X014672Y019530D01*
X014646Y019608D02*
X014421Y019608D01*
X014382Y019687D02*
X014621Y019687D01*
X014581Y019765D02*
X014304Y019765D01*
X014225Y019844D02*
X014524Y019844D01*
X014467Y019922D02*
X014105Y019922D01*
X013916Y020001D02*
X014376Y020001D01*
X014268Y020079D02*
X000712Y020079D01*
X000604Y020001D02*
X001064Y020001D01*
X001087Y020010D02*
X000804Y019893D01*
X000587Y019676D01*
X000470Y019393D01*
X000470Y019087D01*
X000587Y018804D01*
X000804Y018587D01*
X001087Y018470D01*
X001393Y018470D01*
X001676Y018587D01*
X001893Y018804D01*
X002010Y019087D01*
X002010Y019393D01*
X001893Y019676D01*
X001676Y019893D01*
X001393Y020010D01*
X001087Y020010D01*
X000907Y020158D02*
X014073Y020158D01*
X013564Y020001D02*
X001416Y020001D01*
X001605Y019922D02*
X013375Y019922D01*
X013255Y019844D02*
X001725Y019844D01*
X001804Y019765D02*
X013176Y019765D01*
X013098Y019687D02*
X001882Y019687D01*
X001921Y019608D02*
X007819Y019608D01*
X007758Y019530D02*
X001953Y019530D01*
X001986Y019451D02*
X007728Y019451D01*
X007690Y019373D02*
X002010Y019373D01*
X002010Y019294D02*
X007611Y019294D01*
X007533Y019216D02*
X002010Y019216D01*
X002010Y019137D02*
X007454Y019137D01*
X007376Y019059D02*
X001998Y019059D01*
X001966Y018980D02*
X007297Y018980D01*
X007219Y018902D02*
X001933Y018902D01*
X001901Y018823D02*
X007140Y018823D01*
X007062Y018745D02*
X001833Y018745D01*
X001755Y018666D02*
X007040Y018666D01*
X007040Y018588D02*
X005907Y018588D01*
X005886Y018609D02*
X005769Y018657D01*
X005643Y018657D01*
X005526Y018609D01*
X005437Y018520D01*
X005389Y018403D01*
X005389Y018277D01*
X005437Y018160D01*
X005526Y018071D01*
X005643Y018023D01*
X005769Y018023D01*
X005886Y018071D01*
X005975Y018160D01*
X006023Y018277D01*
X006023Y018403D01*
X005975Y018520D01*
X005886Y018609D01*
X005979Y018509D02*
X007050Y018509D01*
X007050Y018431D02*
X006012Y018431D01*
X006023Y018352D02*
X007050Y018352D01*
X007050Y018274D02*
X006022Y018274D01*
X005989Y018195D02*
X007050Y018195D01*
X007050Y018117D02*
X005931Y018117D01*
X005806Y018038D02*
X007050Y018038D01*
X007050Y017960D02*
X000280Y017960D01*
X000280Y018038D02*
X003874Y018038D01*
X003911Y018023D02*
X003794Y018071D01*
X003705Y018160D01*
X003657Y018277D01*
X003657Y018403D01*
X003705Y018520D01*
X003794Y018609D01*
X003911Y018657D01*
X004037Y018657D01*
X004154Y018609D01*
X004243Y018520D01*
X004291Y018403D01*
X004291Y018277D01*
X004243Y018160D01*
X004154Y018071D01*
X004037Y018023D01*
X003911Y018023D01*
X004074Y018038D02*
X005606Y018038D01*
X005481Y018117D02*
X004199Y018117D01*
X004257Y018195D02*
X005423Y018195D01*
X005390Y018274D02*
X004290Y018274D01*
X004291Y018352D02*
X005389Y018352D01*
X005400Y018431D02*
X004280Y018431D01*
X004247Y018509D02*
X005433Y018509D01*
X005505Y018588D02*
X004175Y018588D01*
X003773Y018588D02*
X001676Y018588D01*
X001487Y018509D02*
X003701Y018509D01*
X003668Y018431D02*
X000280Y018431D01*
X000280Y018509D02*
X000993Y018509D01*
X000804Y018588D02*
X000280Y018588D01*
X000280Y018666D02*
X000725Y018666D01*
X000647Y018745D02*
X000280Y018745D01*
X000280Y018823D02*
X000579Y018823D01*
X000547Y018902D02*
X000280Y018902D01*
X000280Y018980D02*
X000514Y018980D01*
X000482Y019059D02*
X000280Y019059D01*
X000280Y019137D02*
X000470Y019137D01*
X000470Y019216D02*
X000280Y019216D01*
X000280Y019294D02*
X000470Y019294D01*
X000470Y019373D02*
X000283Y019373D01*
X000289Y019451D02*
X000494Y019451D01*
X000527Y019530D02*
X000308Y019530D01*
X000334Y019608D02*
X000559Y019608D01*
X000598Y019687D02*
X000359Y019687D01*
X000399Y019765D02*
X000676Y019765D01*
X000755Y019844D02*
X000456Y019844D01*
X000513Y019922D02*
X000875Y019922D01*
X000280Y018352D02*
X003657Y018352D01*
X003658Y018274D02*
X000280Y018274D01*
X000280Y018195D02*
X003691Y018195D01*
X003749Y018117D02*
X000280Y018117D01*
X000280Y017881D02*
X007050Y017881D01*
X007050Y017803D02*
X000280Y017803D01*
X000280Y017724D02*
X007050Y017724D01*
X007050Y017646D02*
X000280Y017646D01*
X000280Y017567D02*
X007050Y017567D01*
X007050Y017489D02*
X000280Y017489D01*
X000280Y017410D02*
X007050Y017410D01*
X007050Y017332D02*
X000280Y017332D01*
X000280Y017253D02*
X007050Y017253D01*
X007050Y017175D02*
X000280Y017175D01*
X000280Y017096D02*
X007050Y017096D01*
X007050Y017018D02*
X000280Y017018D01*
X000280Y016939D02*
X007050Y016939D01*
X007050Y016861D02*
X000280Y016861D01*
X000280Y016782D02*
X007050Y016782D01*
X007050Y016704D02*
X000280Y016704D01*
X001934Y016468D02*
X007050Y016468D01*
X007050Y016390D02*
X002013Y016390D01*
X002080Y016076D02*
X006265Y016076D01*
X006265Y015997D02*
X006151Y015997D01*
X006204Y015919D02*
X006207Y015919D01*
X007581Y016076D02*
X007704Y016076D01*
X007644Y015997D02*
X007642Y015997D01*
X007935Y015997D02*
X008015Y015997D01*
X008015Y015919D02*
X007935Y015919D01*
X007935Y015840D02*
X008015Y015840D01*
X008015Y016076D02*
X007935Y016076D01*
X008311Y015683D02*
X009450Y015683D01*
X009507Y015605D02*
X008311Y015605D01*
X008311Y015526D02*
X009585Y015526D01*
X009650Y015448D02*
X008289Y015448D01*
X009284Y015055D02*
X009650Y015055D01*
X009650Y014977D02*
X009471Y014977D01*
X009552Y014898D02*
X009650Y014898D01*
X009650Y014820D02*
X009600Y014820D01*
X009629Y014741D02*
X009650Y014741D01*
X010030Y015605D02*
X014700Y015605D01*
X014700Y015683D02*
X009966Y015683D01*
X009887Y015762D02*
X014700Y015762D01*
X014700Y015840D02*
X009830Y015840D01*
X009830Y015919D02*
X014700Y015919D01*
X014700Y015997D02*
X009830Y015997D01*
X009830Y016076D02*
X014700Y016076D01*
X014700Y016154D02*
X009830Y016154D01*
X009830Y016233D02*
X014700Y016233D01*
X014700Y016311D02*
X009830Y016311D01*
X009830Y016390D02*
X014700Y016390D01*
X014700Y016468D02*
X009830Y016468D01*
X009830Y016547D02*
X014700Y016547D01*
X014700Y016625D02*
X009971Y016625D01*
X009997Y016704D02*
X014700Y016704D01*
X014700Y016782D02*
X009997Y016782D01*
X009997Y016861D02*
X014700Y016861D01*
X014700Y016939D02*
X009997Y016939D01*
X009997Y017018D02*
X014700Y017018D01*
X014700Y017096D02*
X009997Y017096D01*
X009982Y017175D02*
X014700Y017175D01*
X014700Y017253D02*
X009930Y017253D01*
X009997Y017332D02*
X014700Y017332D01*
X014700Y017410D02*
X009997Y017410D01*
X009997Y017489D02*
X014700Y017489D01*
X014700Y017567D02*
X009997Y017567D01*
X009997Y017646D02*
X014700Y017646D01*
X014700Y017724D02*
X009997Y017724D01*
X009997Y017803D02*
X014700Y017803D01*
X014700Y017881D02*
X009945Y017881D01*
X009848Y017960D02*
X014700Y017960D01*
X014700Y018038D02*
X009895Y018038D01*
X008256Y019294D02*
X012970Y019294D01*
X012970Y019216D02*
X008204Y019216D01*
X008079Y019137D02*
X012970Y019137D01*
X012982Y019059D02*
X007941Y019059D01*
X007863Y018980D02*
X013014Y018980D01*
X013047Y018902D02*
X007784Y018902D01*
X007706Y018823D02*
X013079Y018823D01*
X013147Y018745D02*
X007627Y018745D01*
X007549Y018666D02*
X013225Y018666D01*
X013304Y018588D02*
X007470Y018588D01*
X007430Y018509D02*
X013493Y018509D01*
X012970Y019373D02*
X008278Y019373D01*
X008278Y019451D02*
X012994Y019451D01*
X013027Y019530D02*
X008249Y019530D01*
X008188Y019608D02*
X013059Y019608D01*
X013780Y013485D02*
X014700Y013485D01*
X014700Y013407D02*
X013780Y013407D01*
X013780Y013328D02*
X014700Y013328D01*
X014700Y013250D02*
X013748Y013250D01*
X013588Y013014D02*
X014700Y013014D01*
X014700Y012936D02*
X013667Y012936D01*
X013745Y012857D02*
X014700Y012857D01*
X014700Y012779D02*
X013780Y012779D01*
X013530Y012072D02*
X014700Y012072D01*
X014700Y011994D02*
X013609Y011994D01*
X013687Y011915D02*
X014700Y011915D01*
X014700Y011837D02*
X013766Y011837D01*
X013780Y011758D02*
X014700Y011758D01*
X014700Y011680D02*
X013380Y011680D01*
X013380Y011601D02*
X014700Y011601D01*
X014700Y011523D02*
X013780Y011523D01*
X013780Y011458D02*
X013780Y011600D01*
X013380Y011600D01*
X013380Y011200D01*
X013522Y011200D01*
X013780Y011458D01*
X013766Y011444D02*
X014700Y011444D01*
X014700Y011366D02*
X013688Y011366D01*
X013609Y011287D02*
X014700Y011287D01*
X014700Y011209D02*
X013531Y011209D01*
X013522Y011080D02*
X013380Y011080D01*
X013380Y010680D01*
X013300Y010680D01*
X013300Y011080D01*
X013158Y011080D01*
X012900Y010822D01*
X012900Y010680D01*
X013300Y010680D01*
X013300Y010600D01*
X012900Y010600D01*
X012900Y010458D01*
X013158Y010200D01*
X013300Y010200D01*
X013300Y010600D01*
X013380Y010600D01*
X013380Y010680D01*
X013780Y010680D01*
X013780Y010822D01*
X013522Y011080D01*
X013551Y011052D02*
X014700Y011052D01*
X014700Y011130D02*
X012436Y011130D01*
X012531Y011209D02*
X013149Y011209D01*
X013071Y011287D02*
X012609Y011287D01*
X012688Y011366D02*
X012992Y011366D01*
X012914Y011444D02*
X012766Y011444D01*
X012780Y011523D02*
X012900Y011523D01*
X012780Y011601D02*
X013300Y011601D01*
X013300Y011523D02*
X013380Y011523D01*
X013380Y011444D02*
X013300Y011444D01*
X013300Y011366D02*
X013380Y011366D01*
X013380Y011287D02*
X013300Y011287D01*
X013300Y011209D02*
X013380Y011209D01*
X013380Y011052D02*
X013300Y011052D01*
X013300Y010973D02*
X013380Y010973D01*
X013380Y010895D02*
X013300Y010895D01*
X013300Y010816D02*
X013380Y010816D01*
X013380Y010738D02*
X013300Y010738D01*
X013300Y010659D02*
X012780Y010659D01*
X012780Y010581D02*
X012900Y010581D01*
X012900Y010502D02*
X012780Y010502D01*
X012746Y010424D02*
X012934Y010424D01*
X013013Y010345D02*
X012667Y010345D01*
X012589Y010267D02*
X013091Y010267D01*
X013158Y010080D02*
X012900Y009822D01*
X012900Y009680D01*
X013300Y009680D01*
X013300Y010080D01*
X013158Y010080D01*
X013109Y010031D02*
X012571Y010031D01*
X012650Y009953D02*
X013030Y009953D01*
X012952Y009874D02*
X012728Y009874D01*
X012780Y009796D02*
X012900Y009796D01*
X012900Y009717D02*
X012780Y009717D01*
X012780Y009639D02*
X013300Y009639D01*
X013300Y009600D02*
X012900Y009600D01*
X012900Y009458D01*
X013158Y009200D01*
X013300Y009200D01*
X013300Y009600D01*
X013300Y009680D01*
X013380Y009680D01*
X013380Y010080D01*
X013522Y010080D01*
X013780Y009822D01*
X013780Y009680D01*
X013380Y009680D01*
X013380Y009600D01*
X013780Y009600D01*
X013780Y009458D01*
X013522Y009200D01*
X013380Y009200D01*
X013380Y009600D01*
X013300Y009600D01*
X013300Y009560D02*
X013380Y009560D01*
X013380Y009482D02*
X013300Y009482D01*
X013300Y009403D02*
X013380Y009403D01*
X013380Y009325D02*
X013300Y009325D01*
X013300Y009246D02*
X013380Y009246D01*
X013380Y009080D02*
X013380Y008680D01*
X013300Y008680D01*
X013300Y009080D01*
X013158Y009080D01*
X012900Y008822D01*
X012900Y008680D01*
X013300Y008680D01*
X013300Y008600D01*
X012900Y008600D01*
X012900Y008458D01*
X013158Y008200D01*
X013300Y008200D01*
X013300Y008600D01*
X013380Y008600D01*
X013380Y008680D01*
X013780Y008680D01*
X013780Y008822D01*
X013522Y009080D01*
X013380Y009080D01*
X013380Y009011D02*
X013300Y009011D01*
X013300Y008932D02*
X013380Y008932D01*
X013380Y008854D02*
X013300Y008854D01*
X013300Y008775D02*
X013380Y008775D01*
X013380Y008697D02*
X013300Y008697D01*
X013300Y008618D02*
X012780Y008618D01*
X012780Y008540D02*
X012900Y008540D01*
X012900Y008461D02*
X012780Y008461D01*
X012705Y008383D02*
X012975Y008383D01*
X013054Y008304D02*
X012626Y008304D01*
X012548Y008226D02*
X013132Y008226D01*
X013158Y008080D02*
X012900Y007822D01*
X012900Y007680D01*
X013300Y007680D01*
X013300Y008080D01*
X013158Y008080D01*
X013146Y008069D02*
X012534Y008069D01*
X012498Y008147D02*
X014700Y008147D01*
X014700Y008069D02*
X013534Y008069D01*
X013522Y008080D02*
X013380Y008080D01*
X013380Y007680D01*
X013300Y007680D01*
X013300Y007600D01*
X012900Y007600D01*
X012900Y007458D01*
X013158Y007200D01*
X013300Y007200D01*
X013300Y007600D01*
X013380Y007600D01*
X013380Y007680D01*
X013780Y007680D01*
X013780Y007822D01*
X013522Y008080D01*
X013522Y008200D02*
X013380Y008200D01*
X013380Y008600D01*
X013780Y008600D01*
X013780Y008458D01*
X013522Y008200D01*
X013548Y008226D02*
X014700Y008226D01*
X014700Y008304D02*
X013626Y008304D01*
X013705Y008383D02*
X014700Y008383D01*
X014700Y008461D02*
X013780Y008461D01*
X013780Y008540D02*
X014700Y008540D01*
X014700Y008618D02*
X013380Y008618D01*
X013380Y008540D02*
X013300Y008540D01*
X013300Y008461D02*
X013380Y008461D01*
X013380Y008383D02*
X013300Y008383D01*
X013300Y008304D02*
X013380Y008304D01*
X013380Y008226D02*
X013300Y008226D01*
X013300Y008069D02*
X013380Y008069D01*
X013380Y007990D02*
X013300Y007990D01*
X013300Y007912D02*
X013380Y007912D01*
X013380Y007833D02*
X013300Y007833D01*
X013300Y007755D02*
X013380Y007755D01*
X013380Y007676D02*
X014700Y007676D01*
X014700Y007598D02*
X013780Y007598D01*
X013780Y007600D02*
X013380Y007600D01*
X013380Y007200D01*
X013522Y007200D01*
X013780Y007458D01*
X013780Y007600D01*
X013780Y007519D02*
X014700Y007519D01*
X014700Y007441D02*
X013763Y007441D01*
X013684Y007362D02*
X014700Y007362D01*
X014700Y007284D02*
X013606Y007284D01*
X013527Y007205D02*
X014700Y007205D01*
X014700Y007127D02*
X012520Y007127D01*
X012527Y007205D02*
X013153Y007205D01*
X013074Y007284D02*
X012606Y007284D01*
X012684Y007362D02*
X012996Y007362D01*
X012917Y007441D02*
X012763Y007441D01*
X012780Y007519D02*
X012900Y007519D01*
X012900Y007598D02*
X012780Y007598D01*
X012780Y007676D02*
X013300Y007676D01*
X013300Y007598D02*
X013380Y007598D01*
X013380Y007519D02*
X013300Y007519D01*
X013300Y007441D02*
X013380Y007441D01*
X013380Y007362D02*
X013300Y007362D01*
X013300Y007284D02*
X013380Y007284D01*
X013380Y007205D02*
X013300Y007205D01*
X013300Y007080D02*
X013158Y007080D01*
X012900Y006822D01*
X012900Y006680D01*
X013300Y006680D01*
X013300Y007080D01*
X013300Y007048D02*
X013380Y007048D01*
X013380Y007080D02*
X013380Y006680D01*
X013300Y006680D01*
X013300Y006600D01*
X012900Y006600D01*
X012900Y006458D01*
X013158Y006200D01*
X013300Y006200D01*
X013300Y006600D01*
X013380Y006600D01*
X013380Y006680D01*
X013780Y006680D01*
X013780Y006822D01*
X013522Y007080D01*
X013380Y007080D01*
X013380Y006970D02*
X013300Y006970D01*
X013300Y006891D02*
X013380Y006891D01*
X013380Y006813D02*
X013300Y006813D01*
X013300Y006734D02*
X013380Y006734D01*
X013380Y006656D02*
X014700Y006656D01*
X014700Y006734D02*
X013780Y006734D01*
X013780Y006813D02*
X014700Y006813D01*
X014700Y006891D02*
X013711Y006891D01*
X013633Y006970D02*
X014700Y006970D01*
X014700Y007048D02*
X013554Y007048D01*
X013300Y006656D02*
X012780Y006656D01*
X012780Y006734D02*
X012900Y006734D01*
X012900Y006813D02*
X012780Y006813D01*
X012711Y006891D02*
X012969Y006891D01*
X013047Y006970D02*
X012633Y006970D01*
X012554Y007048D02*
X013126Y007048D01*
X013300Y006577D02*
X013380Y006577D01*
X013380Y006600D02*
X013380Y006200D01*
X013522Y006200D01*
X013780Y006458D01*
X013780Y006600D01*
X013380Y006600D01*
X013380Y006499D02*
X013300Y006499D01*
X013300Y006420D02*
X013380Y006420D01*
X013380Y006342D02*
X013300Y006342D01*
X013300Y006263D02*
X013380Y006263D01*
X013585Y006263D02*
X014700Y006263D01*
X014700Y006185D02*
X011153Y006185D01*
X011075Y006106D02*
X014700Y006106D01*
X014700Y006028D02*
X010996Y006028D01*
X010918Y005949D02*
X014700Y005949D01*
X014700Y005871D02*
X010839Y005871D01*
X010761Y005792D02*
X014700Y005792D01*
X014700Y005714D02*
X010682Y005714D01*
X010604Y005635D02*
X014700Y005635D01*
X014700Y005557D02*
X010525Y005557D01*
X010447Y005478D02*
X014700Y005478D01*
X014700Y006342D02*
X013664Y006342D01*
X013742Y006420D02*
X014700Y006420D01*
X014700Y006499D02*
X013780Y006499D01*
X013780Y006577D02*
X014700Y006577D01*
X014700Y007755D02*
X013780Y007755D01*
X013769Y007833D02*
X014700Y007833D01*
X014700Y007912D02*
X013691Y007912D01*
X013612Y007990D02*
X014700Y007990D01*
X014700Y008697D02*
X013780Y008697D01*
X013780Y008775D02*
X014700Y008775D01*
X014700Y008854D02*
X013749Y008854D01*
X013670Y008932D02*
X014700Y008932D01*
X014700Y009011D02*
X013592Y009011D01*
X013568Y009246D02*
X014700Y009246D01*
X014700Y009168D02*
X012477Y009168D01*
X012479Y009089D02*
X014700Y009089D01*
X014700Y009325D02*
X013647Y009325D01*
X013725Y009403D02*
X014700Y009403D01*
X014700Y009482D02*
X013780Y009482D01*
X013780Y009560D02*
X014700Y009560D01*
X014700Y009639D02*
X013380Y009639D01*
X013380Y009717D02*
X013300Y009717D01*
X013300Y009796D02*
X013380Y009796D01*
X013380Y009874D02*
X013300Y009874D01*
X013300Y009953D02*
X013380Y009953D01*
X013380Y010031D02*
X013300Y010031D01*
X013380Y010200D02*
X013522Y010200D01*
X013780Y010458D01*
X013780Y010600D01*
X013380Y010600D01*
X013380Y010200D01*
X013380Y010267D02*
X013300Y010267D01*
X013300Y010345D02*
X013380Y010345D01*
X013380Y010424D02*
X013300Y010424D01*
X013300Y010502D02*
X013380Y010502D01*
X013380Y010581D02*
X013300Y010581D01*
X013380Y010659D02*
X014700Y010659D01*
X014700Y010581D02*
X013780Y010581D01*
X013780Y010502D02*
X014700Y010502D01*
X014700Y010424D02*
X013746Y010424D01*
X013667Y010345D02*
X014700Y010345D01*
X014700Y010267D02*
X013589Y010267D01*
X013571Y010031D02*
X014700Y010031D01*
X014700Y009953D02*
X013650Y009953D01*
X013728Y009874D02*
X014700Y009874D01*
X014700Y009796D02*
X013780Y009796D01*
X013780Y009717D02*
X014700Y009717D01*
X014700Y010110D02*
X012457Y010110D01*
X012455Y010188D02*
X014700Y010188D01*
X014700Y010738D02*
X013780Y010738D01*
X013780Y010816D02*
X014700Y010816D01*
X014700Y010895D02*
X013708Y010895D01*
X013629Y010973D02*
X014700Y010973D01*
X013129Y011052D02*
X012551Y011052D01*
X012629Y010973D02*
X013051Y010973D01*
X012972Y010895D02*
X012708Y010895D01*
X012780Y010816D02*
X012900Y010816D01*
X012900Y010738D02*
X012780Y010738D01*
X012079Y010031D02*
X011571Y010031D01*
X011650Y009953D02*
X012030Y009953D01*
X011952Y009874D02*
X011728Y009874D01*
X011780Y009796D02*
X011900Y009796D01*
X011900Y009717D02*
X011780Y009717D01*
X011780Y009639D02*
X011900Y009639D01*
X011900Y009560D02*
X011780Y009560D01*
X011780Y009482D02*
X011900Y009482D01*
X011955Y009403D02*
X011725Y009403D01*
X011647Y009325D02*
X012033Y009325D01*
X012095Y009246D02*
X011568Y009246D01*
X011592Y009011D02*
X012088Y009011D01*
X012010Y008932D02*
X011670Y008932D01*
X011749Y008854D02*
X011931Y008854D01*
X011900Y008775D02*
X011780Y008775D01*
X011780Y008697D02*
X011900Y008697D01*
X011900Y008618D02*
X011780Y008618D01*
X011780Y008540D02*
X011900Y008540D01*
X011900Y008461D02*
X011780Y008461D01*
X011705Y008383D02*
X011975Y008383D01*
X012054Y008304D02*
X011626Y008304D01*
X011548Y008226D02*
X012117Y008226D01*
X012612Y007990D02*
X013068Y007990D01*
X012989Y007912D02*
X012691Y007912D01*
X012769Y007833D02*
X012911Y007833D01*
X012900Y007755D02*
X012780Y007755D01*
X012780Y008697D02*
X012900Y008697D01*
X012900Y008775D02*
X012780Y008775D01*
X012749Y008854D02*
X012931Y008854D01*
X013010Y008932D02*
X012670Y008932D01*
X012592Y009011D02*
X013088Y009011D01*
X013112Y009246D02*
X012568Y009246D01*
X012647Y009325D02*
X013033Y009325D01*
X012955Y009403D02*
X012725Y009403D01*
X012780Y009482D02*
X012900Y009482D01*
X012900Y009560D02*
X012780Y009560D01*
X011153Y007205D02*
X011144Y007205D01*
X011554Y007048D02*
X012126Y007048D01*
X012047Y006970D02*
X011633Y006970D01*
X011711Y006891D02*
X011969Y006891D01*
X011900Y006813D02*
X011780Y006813D01*
X011780Y006734D02*
X011900Y006734D01*
X011900Y006656D02*
X011780Y006656D01*
X011780Y006577D02*
X011900Y006577D01*
X011900Y006499D02*
X011780Y006499D01*
X011742Y006420D02*
X011938Y006420D01*
X012016Y006342D02*
X011664Y006342D01*
X011585Y006263D02*
X012095Y006263D01*
X012585Y006263D02*
X013095Y006263D01*
X013016Y006342D02*
X012664Y006342D01*
X012742Y006420D02*
X012938Y006420D01*
X012900Y006499D02*
X012780Y006499D01*
X012780Y006577D02*
X012900Y006577D01*
D19*
X010640Y014740D03*
X012340Y016740D03*
X012340Y018940D03*
X009640Y018140D03*
X008140Y017340D03*
X008003Y019403D03*
X006540Y016040D03*
X004840Y018340D03*
X000740Y004540D03*
D20*
X007240Y018640D02*
X008003Y019403D01*
D21*
X006540Y016040D02*
X006540Y015940D01*
X006240Y015640D01*
X005709Y015640D01*
M02*
