G75*
%MOIN*%
%OFA0B0*%
%FSLAX24Y24*%
%IPPOS*%
%LPD*%
%AMOC8*
5,1,8,0,0,1.08239X$1,22.5*
%
%ADD10C,0.0040*%
%ADD11C,0.0080*%
%ADD12R,0.0197X0.0620*%
D10*
X007198Y014860D02*
X007378Y015040D01*
X007438Y014980D02*
X007198Y015220D01*
X007438Y015220D02*
X007438Y014860D01*
X007566Y014920D02*
X007566Y015160D01*
X007807Y014920D01*
X007747Y014860D01*
X007626Y014860D01*
X007566Y014920D01*
X007566Y015160D02*
X007626Y015220D01*
X007747Y015220D01*
X007807Y015160D01*
X007807Y014920D01*
X007935Y014860D02*
X008175Y014860D01*
X008055Y014860D02*
X008055Y015220D01*
X008175Y015100D01*
X006894Y015427D02*
X006713Y015427D01*
X006653Y015487D01*
X006653Y015727D01*
X006713Y015787D01*
X006894Y015787D01*
X006894Y015427D01*
X006525Y015427D02*
X006285Y015427D01*
X006405Y015427D02*
X006405Y015787D01*
X006525Y015667D01*
X010060Y016505D02*
X010300Y016745D01*
X010360Y016745D01*
X010420Y016685D01*
X010420Y016565D01*
X010360Y016505D01*
X010060Y016505D02*
X010060Y016745D01*
X010060Y016873D02*
X010300Y017114D01*
X010360Y017114D01*
X010420Y017054D01*
X010420Y016933D01*
X010360Y016873D01*
X010420Y017242D02*
X010060Y017242D01*
X010180Y017242D02*
X010420Y017482D01*
X010240Y017302D02*
X010060Y017482D01*
X010060Y017114D02*
X010060Y016873D01*
X012498Y015420D02*
X012738Y015180D01*
X012678Y015240D02*
X012498Y015060D01*
X012738Y015060D02*
X012738Y015420D01*
X012866Y015360D02*
X013107Y015120D01*
X013047Y015060D01*
X012926Y015060D01*
X012866Y015120D01*
X012866Y015360D01*
X012926Y015420D01*
X013047Y015420D01*
X013107Y015360D01*
X013107Y015120D01*
X013235Y015060D02*
X013475Y015060D01*
X013355Y015060D02*
X013355Y015420D01*
X013475Y015300D01*
X013355Y014720D02*
X013355Y014360D01*
X013475Y014360D02*
X013235Y014360D01*
X013107Y014420D02*
X013107Y014660D01*
X013047Y014720D01*
X012926Y014720D01*
X012866Y014660D01*
X013107Y014420D01*
X013047Y014360D01*
X012926Y014360D01*
X012866Y014420D01*
X012866Y014660D01*
X012738Y014720D02*
X012738Y014360D01*
X012738Y014480D02*
X012498Y014720D01*
X012678Y014540D02*
X012498Y014360D01*
X013355Y014720D02*
X013475Y014600D01*
D11*
X005296Y015325D02*
X004784Y015325D01*
X004784Y015955D02*
X005296Y015955D01*
D12*
X004843Y015635D03*
M02*
