G75*
%MOIN*%
%OFA0B0*%
%FSLAX24Y24*%
%IPPOS*%
%LPD*%
%AMOC8*
5,1,8,0,0,1.08239X$1,22.5*
%
%ADD10C,0.0040*%
%ADD11C,0.0050*%
%ADD12C,0.0060*%
%ADD13C,0.0110*%
%ADD14C,0.0100*%
%ADD15R,0.0167X0.0128*%
%ADD16R,0.0138X0.0138*%
%ADD17R,0.0079X0.0079*%
%ADD18C,0.0030*%
%ADD19C,0.0020*%
%ADD20C,0.0283*%
%ADD21C,0.0080*%
D10*
X002760Y000860D02*
X002760Y001220D01*
X002940Y001220D01*
X003000Y001160D01*
X003000Y001040D01*
X002940Y000980D01*
X002760Y000980D01*
X002880Y000980D02*
X003000Y000860D01*
X003128Y000920D02*
X003369Y001160D01*
X003369Y000920D01*
X003308Y000860D01*
X003188Y000860D01*
X003128Y000920D01*
X003128Y001160D01*
X003188Y001220D01*
X003308Y001220D01*
X003369Y001160D01*
X003497Y000920D02*
X003557Y000920D01*
X003557Y000860D01*
X003497Y000860D01*
X003497Y000920D01*
X003681Y000860D02*
X003921Y000860D01*
X003801Y000860D02*
X003801Y001220D01*
X003681Y001100D01*
X003443Y002960D02*
X003323Y002960D01*
X003262Y003020D01*
X003138Y003020D02*
X003138Y002960D01*
X003078Y002960D01*
X003078Y003020D01*
X003138Y003020D01*
X002950Y003020D02*
X002890Y002960D01*
X002770Y002960D01*
X002710Y003020D01*
X002710Y003260D01*
X002770Y003320D01*
X002890Y003320D01*
X002950Y003260D01*
X003262Y003260D02*
X003323Y003320D01*
X003443Y003320D01*
X003503Y003260D01*
X003503Y003200D01*
X003443Y003140D01*
X003503Y003080D01*
X003503Y003020D01*
X003443Y002960D01*
X003443Y003140D02*
X003383Y003140D01*
X003447Y003960D02*
X003447Y004320D01*
X003627Y004320D01*
X003687Y004260D01*
X003687Y004140D01*
X003627Y004080D01*
X003447Y004080D01*
X003567Y004080D02*
X003687Y003960D01*
X003319Y003960D02*
X003319Y004320D01*
X003198Y004080D02*
X003319Y003960D01*
X003198Y004080D02*
X003078Y003960D01*
X003078Y004320D01*
X002950Y004260D02*
X002950Y004140D01*
X002890Y004080D01*
X002710Y004080D01*
X002710Y003960D02*
X002710Y004320D01*
X002890Y004320D01*
X002950Y004260D01*
X004320Y006460D02*
X004440Y006460D01*
X004500Y006520D01*
X004628Y006520D02*
X004688Y006520D01*
X004688Y006460D01*
X004628Y006460D01*
X004628Y006520D01*
X004500Y006760D02*
X004440Y006820D01*
X004320Y006820D01*
X004260Y006760D01*
X004260Y006520D01*
X004320Y006460D01*
X004812Y006460D02*
X004812Y006520D01*
X005053Y006760D01*
X005053Y006820D01*
X004812Y006820D01*
X004873Y007460D02*
X004993Y007460D01*
X005053Y007520D01*
X005053Y007580D01*
X004993Y007640D01*
X004812Y007640D01*
X004812Y007520D01*
X004873Y007460D01*
X004688Y007460D02*
X004688Y007520D01*
X004628Y007520D01*
X004628Y007460D01*
X004688Y007460D01*
X004500Y007520D02*
X004440Y007460D01*
X004320Y007460D01*
X004260Y007520D01*
X004260Y007760D01*
X004320Y007820D01*
X004440Y007820D01*
X004500Y007760D01*
X004812Y007640D02*
X004933Y007760D01*
X005053Y007820D01*
X004993Y008460D02*
X004873Y008460D01*
X004812Y008520D01*
X004812Y008640D02*
X004933Y008700D01*
X004993Y008700D01*
X005053Y008640D01*
X005053Y008520D01*
X004993Y008460D01*
X004812Y008640D02*
X004812Y008820D01*
X005053Y008820D01*
X004688Y008520D02*
X004688Y008460D01*
X004628Y008460D01*
X004628Y008520D01*
X004688Y008520D01*
X004500Y008520D02*
X004440Y008460D01*
X004320Y008460D01*
X004260Y008520D01*
X004260Y008760D01*
X004320Y008820D01*
X004440Y008820D01*
X004500Y008760D01*
X004440Y009460D02*
X004320Y009460D01*
X004260Y009520D01*
X004260Y009760D01*
X004320Y009820D01*
X004440Y009820D01*
X004500Y009760D01*
X004500Y009520D02*
X004440Y009460D01*
X004628Y009460D02*
X004688Y009460D01*
X004688Y009520D01*
X004628Y009520D01*
X004628Y009460D01*
X004812Y009640D02*
X005053Y009640D01*
X004993Y009460D02*
X004993Y009820D01*
X004812Y009640D01*
X004873Y010460D02*
X004812Y010520D01*
X004873Y010460D02*
X004993Y010460D01*
X005053Y010520D01*
X005053Y010580D01*
X004993Y010640D01*
X004933Y010640D01*
X004993Y010640D02*
X005053Y010700D01*
X005053Y010760D01*
X004993Y010820D01*
X004873Y010820D01*
X004812Y010760D01*
X004688Y010520D02*
X004688Y010460D01*
X004628Y010460D01*
X004628Y010520D01*
X004688Y010520D01*
X004500Y010520D02*
X004440Y010460D01*
X004320Y010460D01*
X004260Y010520D01*
X004260Y010760D01*
X004320Y010820D01*
X004440Y010820D01*
X004500Y010760D01*
X004440Y011460D02*
X004320Y011460D01*
X004260Y011520D01*
X004260Y011760D01*
X004320Y011820D01*
X004440Y011820D01*
X004500Y011760D01*
X004500Y011520D02*
X004440Y011460D01*
X004628Y011460D02*
X004688Y011460D01*
X004688Y011520D01*
X004628Y011520D01*
X004628Y011460D01*
X004812Y011460D02*
X005053Y011700D01*
X005053Y011760D01*
X004993Y011820D01*
X004873Y011820D01*
X004812Y011760D01*
X004812Y011460D02*
X005053Y011460D01*
X005053Y012460D02*
X004812Y012460D01*
X004933Y012460D02*
X004933Y012820D01*
X004812Y012700D01*
X004688Y012520D02*
X004688Y012460D01*
X004628Y012460D01*
X004628Y012520D01*
X004688Y012520D01*
X004500Y012520D02*
X004440Y012460D01*
X004320Y012460D01*
X004260Y012520D01*
X004260Y012760D01*
X004320Y012820D01*
X004440Y012820D01*
X004500Y012760D01*
X004440Y013460D02*
X004320Y013460D01*
X004260Y013520D01*
X004260Y013760D01*
X004320Y013820D01*
X004440Y013820D01*
X004500Y013760D01*
X004500Y013520D02*
X004440Y013460D01*
X004628Y013460D02*
X004688Y013460D01*
X004688Y013520D01*
X004628Y013520D01*
X004628Y013460D01*
X004812Y013520D02*
X004812Y013760D01*
X004873Y013820D01*
X004993Y013820D01*
X005053Y013760D01*
X004812Y013520D01*
X004873Y013460D01*
X004993Y013460D01*
X005053Y013520D01*
X005053Y013760D01*
X007830Y016605D02*
X007710Y016725D01*
X008070Y016725D01*
X008070Y016605D02*
X008070Y016845D01*
X008010Y016973D02*
X007770Y017214D01*
X008010Y017214D01*
X008070Y017154D01*
X008070Y017033D01*
X008010Y016973D01*
X007770Y016973D01*
X007710Y017033D01*
X007710Y017154D01*
X007770Y017214D01*
X007890Y017342D02*
X007890Y017582D01*
X008070Y017522D02*
X007710Y017522D01*
X007890Y017342D01*
X010060Y017357D02*
X010120Y017297D01*
X010060Y017357D02*
X010060Y017477D01*
X010120Y017537D01*
X010180Y017537D01*
X010420Y017297D01*
X010420Y017537D01*
X010360Y017665D02*
X010420Y017725D01*
X010420Y017845D01*
X010360Y017905D01*
X010300Y017905D01*
X010240Y017845D01*
X010240Y017785D01*
X010240Y017845D02*
X010180Y017905D01*
X010120Y017905D01*
X010060Y017845D01*
X010060Y017725D01*
X010120Y017665D01*
X010120Y018033D02*
X010060Y018093D01*
X010060Y018213D01*
X010120Y018273D01*
X010180Y018273D01*
X010420Y018033D01*
X010420Y018273D01*
X010420Y018402D02*
X010060Y018402D01*
X010060Y018582D01*
X010120Y018642D01*
X010240Y018642D01*
X010300Y018582D01*
X010300Y018402D01*
X010300Y018522D02*
X010420Y018642D01*
X010420Y018770D02*
X010420Y019010D01*
X010420Y018770D02*
X010060Y018770D01*
X010060Y017169D02*
X010060Y016928D01*
X010060Y017048D02*
X010420Y017048D01*
X010240Y016680D02*
X010240Y016560D01*
X010420Y016560D02*
X010060Y016560D01*
X010060Y016800D01*
X010019Y013820D02*
X009839Y013820D01*
X009839Y013460D01*
X010019Y013460D01*
X010079Y013520D01*
X010079Y013580D01*
X010019Y013640D01*
X009839Y013640D01*
X010019Y013640D02*
X010079Y013700D01*
X010079Y013760D01*
X010019Y013820D01*
X010208Y013520D02*
X010268Y013520D01*
X010268Y013460D01*
X010208Y013460D01*
X010208Y013520D01*
X010392Y013520D02*
X010392Y013460D01*
X010392Y013520D02*
X010632Y013760D01*
X010632Y013820D01*
X010392Y013820D01*
X010632Y012820D02*
X010512Y012760D01*
X010392Y012640D01*
X010572Y012640D01*
X010632Y012580D01*
X010632Y012520D01*
X010572Y012460D01*
X010452Y012460D01*
X010392Y012520D01*
X010392Y012640D01*
X010268Y012520D02*
X010268Y012460D01*
X010208Y012460D01*
X010208Y012520D01*
X010268Y012520D01*
X010079Y012520D02*
X010019Y012460D01*
X009839Y012460D01*
X009839Y012820D01*
X010019Y012820D01*
X010079Y012760D01*
X010079Y012700D01*
X010019Y012640D01*
X009839Y012640D01*
X010019Y012640D02*
X010079Y012580D01*
X010079Y012520D01*
X010019Y011820D02*
X009839Y011820D01*
X009839Y011460D01*
X010019Y011460D01*
X010079Y011520D01*
X010079Y011580D01*
X010019Y011640D01*
X009839Y011640D01*
X010019Y011640D02*
X010079Y011700D01*
X010079Y011760D01*
X010019Y011820D01*
X010208Y011520D02*
X010268Y011520D01*
X010268Y011460D01*
X010208Y011460D01*
X010208Y011520D01*
X010392Y011520D02*
X010452Y011460D01*
X010572Y011460D01*
X010632Y011520D01*
X010632Y011640D01*
X010572Y011700D01*
X010512Y011700D01*
X010392Y011640D01*
X010392Y011820D01*
X010632Y011820D01*
X010572Y010820D02*
X010392Y010640D01*
X010632Y010640D01*
X010572Y010460D02*
X010572Y010820D01*
X010268Y010520D02*
X010268Y010460D01*
X010208Y010460D01*
X010208Y010520D01*
X010268Y010520D01*
X010079Y010520D02*
X010019Y010460D01*
X009839Y010460D01*
X009839Y010820D01*
X010019Y010820D01*
X010079Y010760D01*
X010079Y010700D01*
X010019Y010640D01*
X009839Y010640D01*
X010019Y010640D02*
X010079Y010580D01*
X010079Y010520D01*
X010019Y009820D02*
X009839Y009820D01*
X009839Y009460D01*
X010019Y009460D01*
X010079Y009520D01*
X010079Y009580D01*
X010019Y009640D01*
X009839Y009640D01*
X010019Y009640D02*
X010079Y009700D01*
X010079Y009760D01*
X010019Y009820D01*
X010208Y009520D02*
X010268Y009520D01*
X010268Y009460D01*
X010208Y009460D01*
X010208Y009520D01*
X010392Y009520D02*
X010452Y009460D01*
X010572Y009460D01*
X010632Y009520D01*
X010632Y009580D01*
X010572Y009640D01*
X010512Y009640D01*
X010572Y009640D02*
X010632Y009700D01*
X010632Y009760D01*
X010572Y009820D01*
X010452Y009820D01*
X010392Y009760D01*
X010452Y008820D02*
X010392Y008760D01*
X010452Y008820D02*
X010572Y008820D01*
X010632Y008760D01*
X010632Y008700D01*
X010392Y008460D01*
X010632Y008460D01*
X010268Y008460D02*
X010208Y008460D01*
X010208Y008520D01*
X010268Y008520D01*
X010268Y008460D01*
X010079Y008520D02*
X010079Y008580D01*
X010019Y008640D01*
X009839Y008640D01*
X009839Y008460D02*
X010019Y008460D01*
X010079Y008520D01*
X010019Y008640D02*
X010079Y008700D01*
X010079Y008760D01*
X010019Y008820D01*
X009839Y008820D01*
X009839Y008460D01*
X009839Y007820D02*
X010019Y007820D01*
X010079Y007760D01*
X010079Y007700D01*
X010019Y007640D01*
X009839Y007640D01*
X009839Y007460D02*
X010019Y007460D01*
X010079Y007520D01*
X010079Y007580D01*
X010019Y007640D01*
X009839Y007460D02*
X009839Y007820D01*
X010208Y007520D02*
X010208Y007460D01*
X010268Y007460D01*
X010268Y007520D01*
X010208Y007520D01*
X010392Y007460D02*
X010632Y007460D01*
X010512Y007460D02*
X010512Y007820D01*
X010392Y007700D01*
X010452Y006820D02*
X010572Y006820D01*
X010632Y006760D01*
X010392Y006520D01*
X010452Y006460D01*
X010572Y006460D01*
X010632Y006520D01*
X010632Y006760D01*
X010452Y006820D02*
X010392Y006760D01*
X010392Y006520D01*
X010268Y006520D02*
X010268Y006460D01*
X010208Y006460D01*
X010208Y006520D01*
X010268Y006520D01*
X010079Y006520D02*
X010019Y006460D01*
X009839Y006460D01*
X009839Y006820D01*
X010019Y006820D01*
X010079Y006760D01*
X010079Y006700D01*
X010019Y006640D01*
X009839Y006640D01*
X010019Y006640D02*
X010079Y006580D01*
X010079Y006520D01*
X012580Y003605D02*
X012460Y003485D01*
X012580Y003365D01*
X012820Y003365D01*
X012760Y003237D02*
X012700Y003237D01*
X012640Y003177D01*
X012640Y003057D01*
X012580Y002997D01*
X012520Y002997D01*
X012460Y003057D01*
X012460Y003177D01*
X012520Y003237D01*
X012640Y003365D02*
X012640Y003605D01*
X012580Y003605D02*
X012820Y003605D01*
X012760Y003237D02*
X012820Y003177D01*
X012820Y003057D01*
X012760Y002997D01*
X012640Y002869D02*
X012640Y002628D01*
X012520Y002500D02*
X012640Y002380D01*
X012820Y002380D01*
X012640Y002380D02*
X012520Y002260D01*
X012460Y002260D01*
X012520Y002132D02*
X012580Y002132D01*
X012640Y002072D01*
X012640Y001892D01*
X012640Y001764D02*
X012640Y001523D01*
X012760Y001395D02*
X012820Y001335D01*
X012820Y001215D01*
X012760Y001155D01*
X012520Y001155D01*
X012460Y001215D01*
X012460Y001335D01*
X012520Y001395D01*
X012520Y001027D02*
X012460Y000967D01*
X012460Y000847D01*
X012520Y000787D01*
X012760Y000787D01*
X012820Y000847D01*
X012820Y000967D01*
X012760Y001027D01*
X012820Y001892D02*
X012460Y001892D01*
X012460Y002072D01*
X012520Y002132D01*
X012640Y002072D02*
X012700Y002132D01*
X012760Y002132D01*
X012820Y002072D01*
X012820Y001892D01*
X012520Y002500D02*
X012460Y002500D01*
X000760Y008433D02*
X000520Y008433D01*
X000460Y008373D01*
X000460Y008248D02*
X000460Y008068D01*
X000520Y008008D01*
X000580Y008068D01*
X000580Y008188D01*
X000640Y008248D01*
X000700Y008188D01*
X000700Y008008D01*
X000520Y007879D02*
X000520Y007819D01*
X000460Y007819D01*
X000460Y007879D01*
X000520Y007879D01*
X000520Y007695D02*
X000460Y007635D01*
X000460Y007455D01*
X000520Y007327D02*
X000460Y007267D01*
X000460Y007147D01*
X000520Y007087D01*
X000640Y007087D01*
X000700Y007147D01*
X000700Y007267D01*
X000640Y007327D01*
X000520Y007327D01*
X000700Y007455D02*
X000700Y007635D01*
X000640Y007695D01*
X000520Y007695D01*
X000460Y006959D02*
X000700Y006959D01*
X000700Y006899D01*
X000640Y006839D01*
X000700Y006779D01*
X000640Y006718D01*
X000460Y006718D01*
X000460Y006839D02*
X000640Y006839D01*
X000700Y008373D02*
X000700Y008493D01*
X000640Y008621D02*
X000460Y008621D01*
X000640Y008621D02*
X000700Y008681D01*
X000700Y008802D01*
X000640Y008862D01*
X000700Y008990D02*
X000700Y009170D01*
X000640Y009230D01*
X000520Y009230D01*
X000460Y009170D01*
X000460Y008990D01*
X000400Y008990D02*
X000700Y008990D01*
X000820Y008862D02*
X000460Y008862D01*
X000400Y008990D02*
X000340Y009050D01*
X000340Y009110D01*
X000460Y009358D02*
X000700Y009358D01*
X000460Y009358D02*
X000460Y009538D01*
X000520Y009598D01*
X000700Y009598D01*
X000640Y009726D02*
X000700Y009786D01*
X000700Y009907D01*
X000640Y009967D01*
X000520Y009967D01*
X000460Y009907D01*
X000460Y009786D01*
X000520Y009726D01*
X000640Y009726D01*
X000640Y010095D02*
X000460Y010095D01*
X000640Y010095D02*
X000700Y010155D01*
X000700Y010275D01*
X000640Y010335D01*
X000700Y010460D02*
X000700Y010580D01*
X000760Y010520D02*
X000520Y010520D01*
X000460Y010460D01*
X000460Y010335D02*
X000820Y010335D01*
X000640Y010709D02*
X000640Y010949D01*
X000700Y011074D02*
X000700Y011194D01*
X000760Y011134D02*
X000520Y011134D01*
X000460Y011074D01*
X000520Y011322D02*
X000640Y011322D01*
X000700Y011382D01*
X000700Y011503D01*
X000640Y011563D01*
X000520Y011563D01*
X000460Y011503D01*
X000460Y011382D01*
X000520Y011322D01*
X000520Y011691D02*
X000640Y011691D01*
X000700Y011751D01*
X000700Y011931D01*
X000820Y011931D02*
X000460Y011931D01*
X000460Y011751D01*
X000520Y011691D01*
X000520Y012055D02*
X000460Y012055D01*
X000460Y012115D01*
X000520Y012115D01*
X000520Y012055D01*
X000520Y012243D02*
X000700Y012243D01*
X000520Y012243D02*
X000460Y012303D01*
X000520Y012363D01*
X000460Y012423D01*
X000520Y012483D01*
X000700Y012483D01*
X000700Y012611D02*
X000520Y012611D01*
X000460Y012672D01*
X000520Y012732D01*
X000460Y012792D01*
X000520Y012852D01*
X000700Y012852D01*
X000700Y012980D02*
X000520Y012980D01*
X000460Y013040D01*
X000520Y013100D01*
X000460Y013160D01*
X000520Y013220D01*
X000700Y013220D01*
D11*
X002340Y014915D02*
X002265Y014990D01*
X002340Y014915D02*
X002490Y014915D01*
X002565Y014990D01*
X002565Y015140D01*
X002490Y015215D01*
X002415Y015215D01*
X002265Y015140D01*
X002265Y015365D01*
X002565Y015365D01*
X002725Y015365D02*
X002725Y015065D01*
X002876Y014915D01*
X003026Y015065D01*
X003026Y015365D01*
X003026Y015915D02*
X003026Y016365D01*
X003186Y016365D02*
X003411Y016365D01*
X003486Y016290D01*
X003486Y015990D01*
X003411Y015915D01*
X003186Y015915D01*
X003186Y016365D01*
X002725Y016365D02*
X003026Y015915D01*
X002725Y015915D02*
X002725Y016365D01*
X002565Y016290D02*
X002490Y016365D01*
X002340Y016365D01*
X002265Y016290D01*
X002265Y015990D01*
X002340Y015915D01*
X002490Y015915D01*
X002565Y015990D01*
X002565Y016140D01*
X002415Y016140D01*
X006290Y015140D02*
X007040Y015140D01*
X007042Y015101D01*
X007048Y015062D01*
X007057Y015024D01*
X007070Y014987D01*
X007087Y014951D01*
X007107Y014918D01*
X007131Y014886D01*
X007157Y014857D01*
X007186Y014831D01*
X007218Y014807D01*
X007251Y014787D01*
X007287Y014770D01*
X007324Y014757D01*
X007362Y014748D01*
X007401Y014742D01*
X007440Y014740D01*
X007479Y014742D01*
X007518Y014748D01*
X007556Y014757D01*
X007593Y014770D01*
X007629Y014787D01*
X007662Y014807D01*
X007694Y014831D01*
X007723Y014857D01*
X007749Y014886D01*
X007773Y014918D01*
X007793Y014951D01*
X007810Y014987D01*
X007823Y015024D01*
X007832Y015062D01*
X007838Y015101D01*
X007840Y015140D01*
X008590Y015140D01*
X008590Y005140D01*
X006290Y005140D01*
X006290Y015140D01*
X007290Y012516D02*
X007215Y012441D01*
X007215Y012291D01*
X007290Y012215D01*
X007215Y012055D02*
X007665Y012055D01*
X007665Y012215D02*
X007365Y012516D01*
X007290Y012516D01*
X007665Y012516D02*
X007665Y012215D01*
X007365Y011905D02*
X007215Y012055D01*
X007365Y011905D02*
X007215Y011755D01*
X007665Y011755D01*
X007590Y011595D02*
X007665Y011520D01*
X007665Y011370D01*
X007590Y011295D01*
X007290Y011595D01*
X007590Y011595D01*
X007590Y011295D02*
X007290Y011295D01*
X007215Y011370D01*
X007215Y011520D01*
X007290Y011595D01*
X007290Y011135D02*
X007215Y011059D01*
X007215Y010909D01*
X007290Y010834D01*
X007440Y010674D02*
X007440Y010374D01*
X007215Y010214D02*
X007215Y009913D01*
X007665Y009913D01*
X007665Y010214D01*
X007440Y010064D02*
X007440Y009913D01*
X007215Y009753D02*
X007665Y009453D01*
X007665Y009293D02*
X007365Y009293D01*
X007215Y009143D01*
X007365Y008993D01*
X007665Y008993D01*
X007590Y008833D02*
X007665Y008758D01*
X007665Y008607D01*
X007590Y008532D01*
X007290Y008532D01*
X007215Y008607D01*
X007215Y008758D01*
X007290Y008833D01*
X007440Y008993D02*
X007440Y009293D01*
X007215Y009453D02*
X007665Y009753D01*
X007665Y010834D02*
X007365Y011135D01*
X007290Y011135D01*
X007665Y011135D02*
X007665Y010834D01*
X007665Y008376D02*
X007665Y008225D01*
X007665Y008300D02*
X007215Y008300D01*
X007215Y008225D02*
X007215Y008376D01*
X007290Y008065D02*
X007440Y008065D01*
X007515Y007990D01*
X007515Y007765D01*
X007665Y007765D02*
X007215Y007765D01*
X007215Y007990D01*
X007290Y008065D01*
X008640Y004465D02*
X008565Y004390D01*
X008565Y004315D01*
X008640Y004240D01*
X008790Y004240D01*
X008865Y004165D01*
X008865Y004090D01*
X008790Y004015D01*
X008640Y004015D01*
X008565Y004090D01*
X008640Y004465D02*
X008790Y004465D01*
X008865Y004390D01*
X009025Y004465D02*
X009251Y004465D01*
X009326Y004390D01*
X009326Y004090D01*
X009251Y004015D01*
X009025Y004015D01*
X009025Y004465D01*
X009486Y004315D02*
X009486Y004015D01*
X009486Y004240D02*
X009786Y004240D01*
X009786Y004315D02*
X009786Y004015D01*
X009786Y004315D02*
X009636Y004465D01*
X009486Y004315D01*
X009486Y003465D02*
X009486Y003015D01*
X009786Y003015D01*
X009326Y003090D02*
X009251Y003015D01*
X009100Y003015D01*
X009025Y003090D01*
X009025Y003390D01*
X009100Y003465D01*
X009251Y003465D01*
X009326Y003390D01*
X008865Y003390D02*
X008790Y003465D01*
X008640Y003465D01*
X008565Y003390D01*
X008565Y003315D01*
X008640Y003240D01*
X008790Y003240D01*
X008865Y003165D01*
X008865Y003090D01*
X008790Y003015D01*
X008640Y003015D01*
X008565Y003090D01*
X008615Y002365D02*
X008615Y002065D01*
X008765Y001915D01*
X008915Y002065D01*
X008915Y002365D01*
X009075Y002365D02*
X009301Y002365D01*
X009376Y002290D01*
X009376Y001990D01*
X009301Y001915D01*
X009075Y001915D01*
X009075Y002365D01*
X009536Y002365D02*
X009536Y001915D01*
X009761Y001915D01*
X009836Y001990D01*
X009836Y002290D01*
X009761Y002365D01*
X009536Y002365D01*
X009561Y001365D02*
X009486Y001290D01*
X009486Y001215D01*
X009561Y001140D01*
X009711Y001140D01*
X009786Y001065D01*
X009786Y000990D01*
X009711Y000915D01*
X009561Y000915D01*
X009486Y000990D01*
X009326Y000990D02*
X009326Y001065D01*
X009251Y001140D01*
X009100Y001140D01*
X009025Y001215D01*
X009025Y001290D01*
X009100Y001365D01*
X009251Y001365D01*
X009326Y001290D01*
X009561Y001365D02*
X009711Y001365D01*
X009786Y001290D01*
X009326Y000990D02*
X009251Y000915D01*
X009100Y000915D01*
X009025Y000990D01*
X008865Y001065D02*
X008865Y001365D01*
X008865Y001065D02*
X008715Y000915D01*
X008565Y001065D01*
X008565Y001365D01*
X011950Y002030D02*
X012080Y002110D01*
X012080Y002330D01*
X011950Y002430D01*
X011950Y002030D01*
X011950Y002032D02*
X011952Y002032D01*
X011950Y002080D02*
X012031Y002080D01*
X012080Y002129D02*
X011950Y002129D01*
X011950Y002177D02*
X012080Y002177D01*
X012080Y002226D02*
X011950Y002226D01*
X011950Y002274D02*
X012080Y002274D01*
X012080Y002323D02*
X011950Y002323D01*
X011950Y002371D02*
X012027Y002371D01*
X011964Y002420D02*
X011950Y002420D01*
X012115Y004684D02*
X012415Y004684D01*
X012565Y004834D01*
X012415Y004984D01*
X012115Y004984D01*
X012115Y005144D02*
X012115Y005369D01*
X012190Y005444D01*
X012490Y005444D01*
X012565Y005369D01*
X012565Y005144D01*
X012115Y005144D01*
X012115Y005605D02*
X012115Y005830D01*
X012190Y005905D01*
X012490Y005905D01*
X012565Y005830D01*
X012565Y005605D01*
X012115Y005605D01*
X013115Y005680D02*
X013190Y005605D01*
X013265Y005605D01*
X013340Y005680D01*
X013340Y005830D01*
X013415Y005905D01*
X013490Y005905D01*
X013565Y005830D01*
X013565Y005680D01*
X013490Y005605D01*
X013490Y005444D02*
X013565Y005369D01*
X013565Y005219D01*
X013490Y005144D01*
X013340Y005219D02*
X013340Y005369D01*
X013415Y005444D01*
X013490Y005444D01*
X013340Y005219D02*
X013265Y005144D01*
X013190Y005144D01*
X013115Y005219D01*
X013115Y005369D01*
X013190Y005444D01*
X013115Y005680D02*
X013115Y005830D01*
X013190Y005905D01*
X013115Y004984D02*
X013415Y004984D01*
X013565Y004834D01*
X013415Y004684D01*
X013115Y004684D01*
X014165Y005165D02*
X014165Y005390D01*
X014240Y005465D01*
X014390Y005465D01*
X014465Y005390D01*
X014465Y005165D01*
X014615Y005165D02*
X014165Y005165D01*
X014165Y005625D02*
X014165Y005776D01*
X014165Y005700D02*
X014615Y005700D01*
X014615Y005625D02*
X014615Y005776D01*
X014540Y005932D02*
X014615Y006007D01*
X014615Y006158D01*
X014540Y006233D01*
X014615Y006393D02*
X014315Y006393D01*
X014165Y006543D01*
X014315Y006693D01*
X014615Y006693D01*
X014615Y006853D02*
X014165Y007153D01*
X014165Y007313D02*
X014615Y007313D01*
X014615Y007614D01*
X014390Y007464D02*
X014390Y007313D01*
X014615Y007153D02*
X014165Y006853D01*
X014390Y006693D02*
X014390Y006393D01*
X014240Y006233D02*
X014165Y006158D01*
X014165Y006007D01*
X014240Y005932D01*
X014540Y005932D01*
X014165Y007313D02*
X014165Y007614D01*
X014165Y008234D02*
X014165Y008459D01*
X014240Y008535D01*
X014390Y008535D01*
X014465Y008459D01*
X014465Y008234D01*
X014615Y008234D02*
X014165Y008234D01*
X014465Y008384D02*
X014615Y008535D01*
X014540Y008695D02*
X014615Y008770D01*
X014615Y008920D01*
X014540Y008995D01*
X014390Y008995D01*
X014315Y008920D01*
X014315Y008770D01*
X014390Y008695D01*
X014540Y008695D01*
X014615Y009155D02*
X014165Y009155D01*
X014315Y009155D02*
X014315Y009380D01*
X014390Y009455D01*
X014540Y009455D01*
X014615Y009380D01*
X014615Y009155D01*
X014540Y009615D02*
X014390Y009615D01*
X014315Y009691D01*
X014315Y009841D01*
X014390Y009916D01*
X014540Y009916D01*
X014615Y009841D01*
X014615Y009691D01*
X014540Y009615D01*
X014615Y010076D02*
X014615Y010301D01*
X014540Y010376D01*
X014465Y010376D01*
X014390Y010301D01*
X014390Y010076D01*
X014615Y010076D02*
X014165Y010076D01*
X014165Y010301D01*
X014240Y010376D01*
X014315Y010376D01*
X014390Y010301D01*
X014390Y010536D02*
X014540Y010536D01*
X014615Y010611D01*
X014615Y010761D01*
X014540Y010837D01*
X014390Y010837D01*
X014315Y010761D01*
X014315Y010611D01*
X014390Y010536D01*
X014540Y010997D02*
X014465Y011072D01*
X014465Y011297D01*
X014390Y011297D02*
X014615Y011297D01*
X014615Y011072D01*
X014540Y010997D01*
X014315Y011072D02*
X014315Y011222D01*
X014390Y011297D01*
X014465Y011457D02*
X014315Y011607D01*
X014315Y011682D01*
X014390Y011841D02*
X014315Y011916D01*
X014315Y012141D01*
X014165Y012141D02*
X014615Y012141D01*
X014615Y011916D01*
X014540Y011841D01*
X014390Y011841D01*
X014315Y011457D02*
X014615Y011457D01*
X014615Y012761D02*
X014315Y013062D01*
X014240Y013062D01*
X014165Y012987D01*
X014165Y012837D01*
X014240Y012761D01*
X014615Y012761D02*
X014615Y013062D01*
X014540Y013222D02*
X014240Y013522D01*
X014540Y013522D01*
X014615Y013447D01*
X014615Y013297D01*
X014540Y013222D01*
X014240Y013222D01*
X014165Y013297D01*
X014165Y013447D01*
X014240Y013522D01*
X014165Y013682D02*
X014315Y013832D01*
X014165Y013983D01*
X014615Y013983D01*
X014615Y014143D02*
X014315Y014443D01*
X014240Y014443D01*
X014165Y014368D01*
X014165Y014218D01*
X014240Y014143D01*
X014615Y014143D02*
X014615Y014443D01*
X014615Y013682D02*
X014165Y013682D01*
X002965Y006015D02*
X002665Y006015D01*
X002515Y005865D01*
X002665Y005715D01*
X002965Y005715D01*
X002965Y005555D02*
X002965Y005329D01*
X002890Y005254D01*
X002590Y005254D01*
X002515Y005329D01*
X002515Y005555D01*
X002965Y005555D01*
X002965Y005094D02*
X002965Y004869D01*
X002890Y004794D01*
X002590Y004794D01*
X002515Y004869D01*
X002515Y005094D01*
X002965Y005094D01*
X001865Y005019D02*
X001865Y004869D01*
X001790Y004794D01*
X001640Y004869D02*
X001640Y005019D01*
X001715Y005094D01*
X001790Y005094D01*
X001865Y005019D01*
X001790Y005254D02*
X001865Y005329D01*
X001865Y005480D01*
X001790Y005555D01*
X001715Y005555D01*
X001640Y005480D01*
X001640Y005329D01*
X001565Y005254D01*
X001490Y005254D01*
X001415Y005329D01*
X001415Y005480D01*
X001490Y005555D01*
X001565Y005715D02*
X001865Y005715D01*
X001865Y006015D02*
X001565Y006015D01*
X001415Y005865D01*
X001565Y005715D01*
X001490Y005094D02*
X001415Y005019D01*
X001415Y004869D01*
X001490Y004794D01*
X001565Y004794D01*
X001640Y004869D01*
D12*
X001390Y006140D02*
X001140Y006390D01*
X001140Y006890D01*
X001390Y007140D01*
X001140Y007390D01*
X001140Y007890D01*
X001390Y008140D01*
X001140Y008390D01*
X001140Y008890D01*
X001390Y009140D01*
X001140Y009390D01*
X001140Y009890D01*
X001390Y010140D01*
X001140Y010390D01*
X001140Y010890D01*
X001390Y011140D01*
X001140Y011390D01*
X001140Y011890D01*
X001390Y012140D01*
X001140Y012390D01*
X001140Y012890D01*
X001390Y013140D01*
X001140Y013390D01*
X001140Y013890D01*
X001390Y014140D01*
X001890Y014140D01*
X002140Y013890D01*
X002140Y013390D01*
X001890Y013140D01*
X002140Y012890D01*
X002140Y012390D01*
X001890Y012140D01*
X001390Y012140D01*
X001890Y012140D02*
X002140Y011890D01*
X002140Y011390D01*
X001890Y011140D01*
X002140Y010890D01*
X002140Y010390D01*
X001890Y010140D01*
X002140Y009890D01*
X002140Y009390D01*
X001890Y009140D01*
X001390Y009140D01*
X001890Y009140D02*
X002140Y008890D01*
X002140Y008390D01*
X001890Y008140D01*
X002140Y007890D01*
X002140Y007390D01*
X001890Y007140D01*
X002140Y006890D01*
X002140Y006390D01*
X001890Y006140D01*
X001390Y006140D01*
X002140Y006390D02*
X002140Y006890D01*
X002390Y007140D01*
X002140Y007390D01*
X002140Y007890D01*
X002390Y008140D01*
X002140Y008390D01*
X002140Y008890D01*
X002390Y009140D01*
X002140Y009390D01*
X002140Y009890D01*
X002390Y010140D01*
X002140Y010390D01*
X002140Y010890D01*
X002390Y011140D01*
X002140Y011390D01*
X002140Y011890D01*
X002390Y012140D01*
X002140Y012390D01*
X002140Y012890D01*
X002390Y013140D01*
X002140Y013390D01*
X002140Y013890D01*
X002390Y014140D01*
X002890Y014140D01*
X003140Y013890D01*
X003140Y013390D01*
X002890Y013140D01*
X003140Y012890D01*
X003140Y012390D01*
X002890Y012140D01*
X002390Y012140D01*
X002890Y012140D02*
X003140Y011890D01*
X003140Y011390D01*
X002890Y011140D01*
X003140Y010890D01*
X003140Y010390D01*
X002890Y010140D01*
X003140Y009890D01*
X003140Y009390D01*
X002890Y009140D01*
X002390Y009140D01*
X002890Y009140D02*
X003140Y008890D01*
X003140Y008390D01*
X002890Y008140D01*
X003140Y007890D01*
X003140Y007390D01*
X002890Y007140D01*
X003140Y006890D01*
X003140Y006390D01*
X002890Y006140D01*
X002390Y006140D01*
X002140Y006390D01*
X001890Y007140D02*
X001390Y007140D01*
X001390Y008140D02*
X001890Y008140D01*
X002390Y008140D02*
X002890Y008140D01*
X003140Y008390D02*
X003140Y008890D01*
X003390Y009140D01*
X003140Y009390D01*
X003140Y009890D01*
X003390Y010140D01*
X003140Y010390D01*
X003140Y010890D01*
X003390Y011140D01*
X003140Y011390D01*
X003140Y011890D01*
X003390Y012140D01*
X003140Y012390D01*
X003140Y012890D01*
X003390Y013140D01*
X003140Y013390D01*
X003140Y013890D01*
X003390Y014140D01*
X003890Y014140D01*
X004140Y013890D01*
X004140Y013390D01*
X003890Y013140D01*
X004140Y012890D01*
X004140Y012390D01*
X003890Y012140D01*
X003390Y012140D01*
X003890Y012140D02*
X004140Y011890D01*
X004140Y011390D01*
X003890Y011140D01*
X004140Y010890D01*
X004140Y010390D01*
X003890Y010140D01*
X004140Y009890D01*
X004140Y009390D01*
X003890Y009140D01*
X003390Y009140D01*
X003890Y009140D02*
X004140Y008890D01*
X004140Y008390D01*
X003890Y008140D01*
X004140Y007890D01*
X004140Y007390D01*
X003890Y007140D01*
X004140Y006890D01*
X004140Y006390D01*
X003890Y006140D01*
X003390Y006140D01*
X003140Y006390D01*
X003140Y006890D01*
X003390Y007140D01*
X003140Y007390D01*
X003140Y007890D01*
X003390Y008140D01*
X003140Y008390D01*
X003390Y008140D02*
X003890Y008140D01*
X003890Y007140D02*
X003390Y007140D01*
X002890Y007140D02*
X002390Y007140D01*
X002390Y010140D02*
X002890Y010140D01*
X003390Y010140D02*
X003890Y010140D01*
X003890Y011140D02*
X003390Y011140D01*
X002890Y011140D02*
X002390Y011140D01*
X001890Y011140D02*
X001390Y011140D01*
X001390Y010140D02*
X001890Y010140D01*
X001890Y013140D02*
X001390Y013140D01*
X002390Y013140D02*
X002890Y013140D01*
X003390Y013140D02*
X003890Y013140D01*
X002140Y014890D02*
X002140Y015390D01*
X001890Y015640D01*
X002140Y015890D01*
X002140Y016390D01*
X001890Y016640D01*
X001390Y016640D01*
X001140Y016390D01*
X001140Y015890D01*
X001390Y015640D01*
X001890Y015640D01*
X001390Y015640D01*
X001140Y015390D01*
X001140Y014890D01*
X001390Y014640D01*
X001890Y014640D01*
X002140Y014890D01*
X009088Y015693D02*
X009088Y015929D01*
X009088Y015693D02*
X011392Y015693D01*
X011392Y015929D01*
X011590Y014140D02*
X011090Y014140D01*
X010840Y013890D01*
X010840Y013390D01*
X011090Y013140D01*
X010840Y012890D01*
X010840Y012390D01*
X011090Y012140D01*
X011590Y012140D01*
X011840Y012390D01*
X011840Y012890D01*
X012090Y013140D01*
X011840Y013390D01*
X011840Y013890D01*
X012090Y014140D01*
X012590Y014140D01*
X012840Y013890D01*
X012840Y013390D01*
X012590Y013140D01*
X012840Y012890D01*
X012840Y012390D01*
X012590Y012140D01*
X012090Y012140D01*
X011840Y012390D01*
X011840Y012890D01*
X011590Y013140D01*
X011090Y013140D01*
X011590Y013140D02*
X011840Y013390D01*
X011840Y013890D01*
X011590Y014140D01*
X012090Y013140D02*
X012590Y013140D01*
X012840Y013390D02*
X012840Y013890D01*
X013090Y014140D01*
X013590Y014140D01*
X013840Y013890D01*
X013840Y013390D01*
X013590Y013140D01*
X013840Y012890D01*
X013840Y012390D01*
X013590Y012140D01*
X013090Y012140D01*
X012840Y012390D01*
X012840Y012890D01*
X013090Y013140D01*
X012840Y013390D01*
X013090Y013140D02*
X013590Y013140D01*
X013590Y012140D02*
X013840Y011890D01*
X013840Y011390D01*
X013590Y011140D01*
X013840Y010890D01*
X013840Y010390D01*
X013590Y010140D01*
X013840Y009890D01*
X013840Y009390D01*
X013590Y009140D01*
X013090Y009140D01*
X012840Y009390D01*
X012590Y009140D01*
X012090Y009140D01*
X011840Y009390D01*
X011840Y009890D01*
X012090Y010140D01*
X011840Y010390D01*
X011840Y010890D01*
X012090Y011140D01*
X011840Y011390D01*
X011840Y011890D01*
X012090Y012140D01*
X011840Y011890D02*
X011840Y011390D01*
X011590Y011140D01*
X011840Y010890D01*
X011840Y010390D01*
X011590Y010140D01*
X011840Y009890D01*
X011840Y009390D01*
X011590Y009140D01*
X011090Y009140D01*
X010840Y009390D01*
X010840Y009890D01*
X011090Y010140D01*
X010840Y010390D01*
X010840Y010890D01*
X011090Y011140D01*
X010840Y011390D01*
X010840Y011890D01*
X011090Y012140D01*
X011590Y012140D02*
X011840Y011890D01*
X011590Y011140D02*
X011090Y011140D01*
X011090Y010140D02*
X011590Y010140D01*
X012090Y010140D02*
X012590Y010140D01*
X012840Y009890D01*
X012840Y009390D01*
X012840Y009890D01*
X013090Y010140D01*
X012840Y010390D01*
X012590Y010140D01*
X012840Y010390D02*
X012840Y010890D01*
X012590Y011140D01*
X012090Y011140D01*
X012590Y011140D02*
X012840Y011390D01*
X012840Y011890D01*
X012590Y012140D01*
X012840Y011890D02*
X013090Y012140D01*
X012840Y011890D02*
X012840Y011390D01*
X013090Y011140D01*
X012840Y010890D01*
X012840Y010390D01*
X013090Y010140D02*
X013590Y010140D01*
X013590Y011140D02*
X013090Y011140D01*
X013090Y009140D02*
X012840Y008890D01*
X012840Y008390D01*
X012590Y008140D01*
X012840Y007890D01*
X012840Y007390D01*
X012590Y007140D01*
X012840Y006890D01*
X012840Y006390D01*
X012590Y006140D01*
X012090Y006140D01*
X011840Y006390D01*
X011840Y006890D01*
X012090Y007140D01*
X011840Y007390D01*
X011840Y007890D01*
X012090Y008140D01*
X011840Y008390D01*
X011840Y008890D01*
X012090Y009140D01*
X011840Y008890D02*
X011840Y008390D01*
X011590Y008140D01*
X011840Y007890D01*
X011840Y007390D01*
X011590Y007140D01*
X011840Y006890D01*
X011840Y006390D01*
X011590Y006140D01*
X011090Y006140D01*
X010840Y006390D01*
X010840Y006890D01*
X011090Y007140D01*
X010840Y007390D01*
X010840Y007890D01*
X011090Y008140D01*
X010840Y008390D01*
X010840Y008890D01*
X011090Y009140D01*
X011590Y009140D02*
X011840Y008890D01*
X011590Y008140D02*
X011090Y008140D01*
X011090Y007140D02*
X011590Y007140D01*
X012090Y007140D02*
X012590Y007140D01*
X012840Y006890D02*
X012840Y006390D01*
X013090Y006140D01*
X013590Y006140D01*
X013840Y006390D01*
X013840Y006890D01*
X013590Y007140D01*
X013090Y007140D01*
X012840Y006890D01*
X013090Y007140D02*
X012840Y007390D01*
X012840Y007890D01*
X013090Y008140D01*
X012840Y008390D01*
X012840Y008890D01*
X012590Y009140D01*
X012590Y008140D02*
X012090Y008140D01*
X013090Y008140D02*
X013590Y008140D01*
X013840Y007890D01*
X013840Y007390D01*
X013590Y007140D01*
X013590Y008140D02*
X013840Y008390D01*
X013840Y008890D01*
X013590Y009140D01*
X008440Y004390D02*
X008440Y003890D01*
X008190Y003640D01*
X007690Y003640D01*
X007440Y003890D01*
X007190Y003640D01*
X006690Y003640D01*
X006440Y003890D01*
X006440Y004390D01*
X006690Y004640D01*
X007190Y004640D01*
X007440Y004390D01*
X007690Y004640D01*
X008190Y004640D01*
X008440Y004390D01*
X008190Y003640D02*
X008440Y003390D01*
X008440Y002890D01*
X008190Y002640D01*
X008440Y002390D01*
X008440Y001890D01*
X008190Y001640D01*
X008440Y001390D01*
X008440Y000890D01*
X008190Y000640D01*
X007690Y000640D01*
X007440Y000890D01*
X007190Y000640D01*
X006690Y000640D01*
X006440Y000890D01*
X006440Y001390D01*
X006690Y001640D01*
X007190Y001640D01*
X007440Y001390D01*
X007690Y001640D01*
X008190Y001640D01*
X007690Y001640D01*
X007440Y001890D01*
X007190Y001640D01*
X006690Y001640D01*
X006440Y001890D01*
X006440Y002390D01*
X006690Y002640D01*
X007190Y002640D01*
X007440Y002390D01*
X007690Y002640D01*
X008190Y002640D01*
X007690Y002640D01*
X007440Y002890D01*
X007190Y002640D01*
X006690Y002640D01*
X006440Y002890D01*
X006440Y003390D01*
X006690Y003640D01*
X007190Y003640D01*
X007440Y003390D01*
X007690Y003640D01*
X008190Y003640D01*
X007440Y003390D02*
X007440Y002890D01*
X007440Y002390D02*
X007440Y001890D01*
X007440Y001390D02*
X007440Y000890D01*
X006440Y000890D02*
X006190Y000640D01*
X005690Y000640D01*
X005440Y000890D01*
X005190Y000640D01*
X004690Y000640D01*
X004440Y000890D01*
X004440Y001390D01*
X004690Y001640D01*
X005190Y001640D01*
X005440Y001390D01*
X005690Y001640D01*
X006190Y001640D01*
X006440Y001390D01*
X006190Y001640D02*
X005690Y001640D01*
X005440Y001890D01*
X005190Y001640D01*
X004690Y001640D01*
X004440Y001890D01*
X004440Y002390D01*
X004690Y002640D01*
X005190Y002640D01*
X005440Y002390D01*
X005690Y002640D01*
X006190Y002640D01*
X006440Y002390D01*
X006190Y002640D02*
X005690Y002640D01*
X005440Y002890D01*
X005190Y002640D01*
X004690Y002640D01*
X004440Y002890D01*
X004440Y003390D01*
X004690Y003640D01*
X004440Y003890D01*
X004440Y004390D01*
X004690Y004640D01*
X005190Y004640D01*
X005440Y004390D01*
X005690Y004640D01*
X006190Y004640D01*
X006440Y004390D01*
X006440Y003890D02*
X006190Y003640D01*
X005690Y003640D01*
X005440Y003890D01*
X005190Y003640D01*
X004690Y003640D01*
X005190Y003640D01*
X005440Y003390D01*
X005690Y003640D01*
X006190Y003640D01*
X006440Y003390D01*
X006440Y002890D02*
X006190Y002640D01*
X006440Y001890D02*
X006190Y001640D01*
X005440Y001390D02*
X005440Y000890D01*
X005440Y001890D02*
X005440Y002390D01*
X005440Y002890D02*
X005440Y003390D01*
X005440Y003890D02*
X005440Y004390D01*
X007440Y004390D02*
X007440Y003890D01*
X009088Y019551D02*
X009088Y019787D01*
X011392Y019787D01*
X011392Y019551D01*
D13*
X011540Y002270D02*
X011515Y002281D01*
X011492Y002295D01*
X011471Y002313D01*
X011453Y002333D01*
X011437Y002355D01*
X011425Y002379D01*
X011417Y002405D01*
X011412Y002432D01*
X011411Y002459D01*
X011414Y002486D01*
X011420Y002512D01*
X011430Y002538D01*
X011444Y002561D01*
X011461Y002583D01*
X011480Y002601D01*
X011502Y002617D01*
X011526Y002630D01*
X011551Y002639D01*
X011578Y002645D01*
X011605Y002647D01*
X011632Y002645D01*
X011659Y002639D01*
X011684Y002630D01*
X011708Y002617D01*
X011730Y002601D01*
X011749Y002583D01*
X011766Y002561D01*
X011780Y002538D01*
X011790Y002512D01*
X011796Y002486D01*
X011799Y002459D01*
X011798Y002432D01*
X011793Y002405D01*
X011785Y002379D01*
X011773Y002355D01*
X011757Y002333D01*
X011739Y002313D01*
X011718Y002295D01*
X011695Y002281D01*
X011670Y002270D01*
X011487Y002405D02*
X011489Y002428D01*
X011495Y002450D01*
X011504Y002472D01*
X011517Y002491D01*
X011532Y002508D01*
X011550Y002522D01*
X011571Y002533D01*
X011593Y002541D01*
X011615Y002545D01*
X011639Y002545D01*
X011661Y002541D01*
X011683Y002533D01*
X011704Y002522D01*
X011722Y002508D01*
X011737Y002491D01*
X011750Y002472D01*
X011759Y002450D01*
X011765Y002428D01*
X011767Y002405D01*
X011765Y002382D01*
X011759Y002360D01*
X011750Y002338D01*
X011737Y002319D01*
X011722Y002302D01*
X011704Y002288D01*
X011683Y002277D01*
X011661Y002269D01*
X011639Y002265D01*
X011615Y002265D01*
X011593Y002269D01*
X011571Y002277D01*
X011550Y002288D01*
X011532Y002302D01*
X011517Y002319D01*
X011504Y002338D01*
X011495Y002360D01*
X011489Y002382D01*
X011487Y002405D01*
X011487Y002115D02*
X011489Y002138D01*
X011495Y002160D01*
X011504Y002182D01*
X011517Y002201D01*
X011532Y002218D01*
X011550Y002232D01*
X011571Y002243D01*
X011593Y002251D01*
X011615Y002255D01*
X011639Y002255D01*
X011661Y002251D01*
X011683Y002243D01*
X011704Y002232D01*
X011722Y002218D01*
X011737Y002201D01*
X011750Y002182D01*
X011759Y002160D01*
X011765Y002138D01*
X011767Y002115D01*
X011765Y002092D01*
X011759Y002070D01*
X011750Y002048D01*
X011737Y002029D01*
X011722Y002012D01*
X011704Y001998D01*
X011683Y001987D01*
X011661Y001979D01*
X011639Y001975D01*
X011615Y001975D01*
X011593Y001979D01*
X011571Y001987D01*
X011550Y001998D01*
X011532Y002012D01*
X011517Y002029D01*
X011504Y002048D01*
X011495Y002070D01*
X011489Y002092D01*
X011487Y002115D01*
X011540Y002260D02*
X011515Y002249D01*
X011492Y002235D01*
X011471Y002217D01*
X011453Y002197D01*
X011437Y002175D01*
X011425Y002151D01*
X011417Y002125D01*
X011412Y002098D01*
X011411Y002071D01*
X011414Y002044D01*
X011420Y002018D01*
X011430Y001992D01*
X011444Y001969D01*
X011461Y001947D01*
X011480Y001929D01*
X011502Y001913D01*
X011526Y001900D01*
X011551Y001891D01*
X011578Y001885D01*
X011605Y001883D01*
X011632Y001885D01*
X011659Y001891D01*
X011684Y001900D01*
X011708Y001913D01*
X011730Y001929D01*
X011749Y001947D01*
X011766Y001969D01*
X011780Y001992D01*
X011790Y002018D01*
X011796Y002044D01*
X011799Y002071D01*
X011798Y002098D01*
X011793Y002125D01*
X011785Y002151D01*
X011773Y002175D01*
X011757Y002197D01*
X011739Y002217D01*
X011718Y002235D01*
X011695Y002249D01*
X011670Y002260D01*
D14*
X011390Y001699D02*
X011298Y001702D01*
X011208Y001720D01*
X011122Y001753D01*
X011043Y001799D01*
X010972Y001858D01*
X010912Y001927D01*
X010864Y002005D01*
X010830Y002090D01*
X010810Y002180D01*
X010783Y002143D01*
X010748Y002114D01*
X010708Y002093D01*
X010664Y002082D01*
X010619Y002081D01*
X010574Y002090D01*
X010533Y002109D01*
X010497Y002137D01*
X010468Y002172D01*
X010448Y002213D01*
X010438Y002257D01*
X010438Y002303D01*
X010448Y002347D01*
X010468Y002388D01*
X010497Y002423D01*
X010533Y002451D01*
X010574Y002470D01*
X010619Y002479D01*
X010664Y002478D01*
X010708Y002467D01*
X010748Y002446D01*
X010783Y002417D01*
X010810Y002380D01*
X010820Y002380D01*
X010840Y002468D01*
X010874Y002551D01*
X010921Y002628D01*
X010980Y002696D01*
X011049Y002753D01*
X011127Y002799D01*
X011212Y002830D01*
X011300Y002848D01*
X011390Y002851D01*
X012184Y002851D01*
X012235Y002930D01*
X012020Y003145D01*
X011795Y002979D01*
X011683Y003033D01*
X011563Y003067D01*
X011512Y003361D01*
X011198Y003361D01*
X011167Y003067D01*
X011052Y003032D01*
X010945Y002979D01*
X010700Y003155D01*
X010485Y002930D01*
X010651Y002695D01*
X010593Y002588D01*
X010553Y002473D01*
X010269Y002432D01*
X010269Y002118D01*
X010573Y002077D01*
X010608Y001967D01*
X010661Y001865D01*
X010485Y001600D01*
X010690Y001395D01*
X010935Y001571D01*
X011042Y001513D01*
X011157Y001473D01*
X011188Y001179D01*
X011512Y001179D01*
X011553Y001463D01*
X011634Y001487D01*
X011712Y001520D01*
X011785Y001561D01*
X012010Y001385D01*
X012235Y001610D01*
X012164Y001699D01*
X011390Y001699D01*
X011230Y001716D02*
X010562Y001716D01*
X010496Y001618D02*
X012229Y001618D01*
X012144Y001519D02*
X011839Y001519D01*
X011710Y001519D02*
X011030Y001519D01*
X011162Y001421D02*
X011547Y001421D01*
X011533Y001322D02*
X011173Y001322D01*
X011183Y001224D02*
X011519Y001224D01*
X011964Y001421D02*
X012045Y001421D01*
X011024Y001815D02*
X010628Y001815D01*
X010636Y001913D02*
X010924Y001913D01*
X010862Y002012D02*
X010594Y002012D01*
X010532Y002110D02*
X010326Y002110D01*
X010269Y002209D02*
X010451Y002209D01*
X010439Y002307D02*
X010269Y002307D01*
X010269Y002406D02*
X010483Y002406D01*
X010563Y002504D02*
X010854Y002504D01*
X010826Y002406D02*
X010791Y002406D01*
X010905Y002603D02*
X010600Y002603D01*
X010647Y002701D02*
X010986Y002701D01*
X011130Y002800D02*
X010577Y002800D01*
X010507Y002898D02*
X012215Y002898D01*
X012168Y002997D02*
X011819Y002997D01*
X011758Y002997D02*
X010980Y002997D01*
X010920Y002997D02*
X010549Y002997D01*
X010643Y003095D02*
X010784Y003095D01*
X011170Y003095D02*
X011559Y003095D01*
X011541Y003194D02*
X011180Y003194D01*
X011190Y003292D02*
X011524Y003292D01*
X011952Y003095D02*
X012070Y003095D01*
X010826Y002110D02*
X010741Y002110D01*
X010862Y001519D02*
X010566Y001519D01*
X010665Y001421D02*
X010726Y001421D01*
D15*
X001319Y002869D03*
X001319Y003411D03*
X001319Y003869D03*
X001319Y004411D03*
D16*
X001471Y004140D03*
X001471Y003140D03*
D17*
X013801Y017140D03*
X013801Y017840D03*
D18*
X013004Y017695D02*
X012810Y017985D01*
X012709Y017985D02*
X012516Y017985D01*
X012612Y017985D02*
X012612Y017695D01*
X012810Y017695D02*
X013004Y017985D01*
X013004Y017285D02*
X012810Y016995D01*
X012709Y016995D02*
X012612Y017092D01*
X012661Y017092D02*
X012516Y017092D01*
X012516Y016995D02*
X012516Y017285D01*
X012661Y017285D01*
X012709Y017237D01*
X012709Y017140D01*
X012661Y017092D01*
X012810Y017285D02*
X013004Y016995D01*
X003727Y005696D02*
X003775Y005647D01*
X003775Y005551D01*
X003727Y005502D01*
X003533Y005696D01*
X003727Y005696D01*
X003727Y005502D02*
X003533Y005502D01*
X003485Y005551D01*
X003485Y005647D01*
X003533Y005696D01*
X003533Y005401D02*
X003582Y005401D01*
X003630Y005353D01*
X003678Y005401D01*
X003727Y005401D01*
X003775Y005353D01*
X003775Y005256D01*
X003727Y005208D01*
X003727Y005107D02*
X003775Y005058D01*
X003775Y004961D01*
X003727Y004913D01*
X003630Y005010D02*
X003630Y005058D01*
X003678Y005107D01*
X003727Y005107D01*
X003630Y005058D02*
X003582Y005107D01*
X003533Y005107D01*
X003485Y005058D01*
X003485Y004961D01*
X003533Y004913D01*
X003533Y005208D02*
X003485Y005256D01*
X003485Y005353D01*
X003533Y005401D01*
X003630Y005353D02*
X003630Y005304D01*
D19*
X009152Y015757D02*
X009152Y019723D01*
X011328Y019723D01*
X011328Y015757D01*
X009152Y015757D01*
D20*
X008823Y019709D03*
D21*
X006336Y018852D02*
X006336Y018025D01*
X006060Y017041D02*
X005706Y017041D01*
X003974Y017041D02*
X003620Y017041D01*
X003344Y018025D02*
X003344Y018852D01*
M02*
