%
M48
M72
T01C0.0130
T02C0.0320
T03C0.0354
T04C0.0400
T05C0.1260
%
T01
X801Y3590
X8275Y14140
X10190Y14790
X10590Y14490
X10590Y16840
X9140Y17740
X10190Y18690
X12090Y18940
X12090Y16740
X7990Y17440
X7340Y17440
X7190Y18090
X5470Y16720
X4840Y18340
T02
X5940Y14640
X5940Y13640
X5940Y12640
X5940Y11640
X5940Y10640
X5940Y9640
X5940Y8640
X5940Y7640
X5940Y6640
X5940Y5640
X8940Y5640
X8940Y6640
X8940Y7640
X8940Y8640
X8940Y9640
X8940Y10640
X8940Y11640
X8940Y12640
X8940Y13640
X8940Y14640
T03
X5706Y18340
X3974Y18340
T04
X1640Y16140
X1640Y15140
X1640Y13640
X1640Y12640
X1640Y11640
X1640Y10640
X1640Y9640
X1640Y8640
X1640Y7640
X1640Y6640
X2640Y6640
X2640Y7640
X2640Y8640
X2640Y9640
X2640Y10640
X2640Y11640
X2640Y12640
X2640Y13640
X3640Y13640
X3640Y12640
X3640Y11640
X3640Y10640
X3640Y9640
X3640Y8640
X3640Y7640
X3640Y6640
X4940Y4140
X4940Y3140
X4940Y2140
X4940Y1140
X5940Y1140
X5940Y2140
X5940Y3140
X5940Y4140
X6940Y4140
X6940Y3140
X6940Y2140
X6940Y1140
X7940Y1140
X7940Y2140
X7940Y3140
X7940Y4140
X11340Y6640
X11340Y7640
X11340Y8640
X11340Y9640
X11340Y10640
X11340Y11640
X11340Y12640
X11340Y13640
X12340Y13640
X12340Y12640
X12340Y11640
X12340Y10640
X12340Y9640
X12340Y8640
X12340Y7640
X12340Y6640
X13340Y6640
X13340Y7640
X13340Y8640
X13340Y9640
X13340Y10640
X13340Y11640
X13340Y12640
X13340Y13640
T05
X1240Y1240
X13740Y1240
X13490Y19240
X1240Y19240
M30
