G75*
%MOIN*%
%OFA0B0*%
%FSLAX24Y24*%
%IPPOS*%
%LPD*%
%AMOC8*
5,1,8,0,0,1.08239X$1,22.5*
%
%ADD10C,0.1320*%
%ADD11R,0.0660X0.0660*%
%ADD12OC8,0.0660*%
%ADD13R,0.0493X0.0454*%
%ADD14R,0.0651X0.0651*%
%ADD15R,0.0532X0.0532*%
%ADD16R,0.0454X0.0493*%
%ADD17R,0.0610X0.0197*%
%ADD18R,0.0257X0.1044*%
%ADD19R,0.0847X0.1044*%
%ADD20C,0.0414*%
%ADD21C,0.0620*%
D10*
X001240Y001240D03*
X013740Y001240D03*
X013490Y019240D03*
X001240Y019240D03*
D11*
X001640Y013640D03*
X002640Y013640D03*
X003640Y013640D03*
X007940Y004140D03*
X007940Y003140D03*
X007940Y002140D03*
X007940Y001140D03*
X011340Y013640D03*
X012340Y013640D03*
X013340Y013640D03*
D12*
X013340Y012640D03*
X013340Y011640D03*
X013340Y010640D03*
X013340Y009640D03*
X013340Y008640D03*
X013340Y007640D03*
X013340Y006640D03*
X012340Y006640D03*
X012340Y007640D03*
X012340Y008640D03*
X012340Y009640D03*
X012340Y010640D03*
X012340Y011640D03*
X012340Y012640D03*
X011340Y012640D03*
X011340Y011640D03*
X011340Y010640D03*
X011340Y009640D03*
X011340Y008640D03*
X011340Y007640D03*
X011340Y006640D03*
X006940Y004140D03*
X006940Y003140D03*
X006940Y002140D03*
X006940Y001140D03*
X005940Y001140D03*
X005940Y002140D03*
X005940Y003140D03*
X005940Y004140D03*
X004940Y004140D03*
X004940Y003140D03*
X004940Y002140D03*
X004940Y001140D03*
X003640Y006640D03*
X003640Y007640D03*
X003640Y008640D03*
X003640Y009640D03*
X003640Y010640D03*
X003640Y011640D03*
X003640Y012640D03*
X002640Y012640D03*
X002640Y011640D03*
X002640Y010640D03*
X002640Y009640D03*
X002640Y008640D03*
X002640Y007640D03*
X002640Y006640D03*
X001640Y006640D03*
X001640Y007640D03*
X001640Y008640D03*
X001640Y009640D03*
X001640Y010640D03*
X001640Y011640D03*
X001640Y012640D03*
X001640Y015140D03*
X001640Y016140D03*
D13*
X003290Y005425D03*
X003290Y004755D03*
X003940Y004755D03*
X003940Y005425D03*
X010140Y005675D03*
X010140Y005005D03*
X010790Y005005D03*
X010790Y005675D03*
D14*
X002179Y004140D03*
X002179Y003040D03*
X000801Y003040D03*
X000801Y004140D03*
D15*
X013077Y017140D03*
X013077Y017840D03*
X013903Y017840D03*
X013903Y017140D03*
D16*
X013925Y016440D03*
X013925Y015840D03*
X013255Y015840D03*
X013255Y016440D03*
X007690Y017905D03*
X007690Y018575D03*
D17*
X008551Y018636D03*
X008551Y018892D03*
X008551Y019147D03*
X008551Y019403D03*
X008551Y018380D03*
X008551Y018124D03*
X008551Y017868D03*
X008551Y017612D03*
X008551Y017356D03*
X008551Y017100D03*
X008551Y016844D03*
X008551Y016588D03*
X008551Y016333D03*
X008551Y016077D03*
X011429Y016077D03*
X011429Y016333D03*
X011429Y016588D03*
X011429Y016844D03*
X011429Y017100D03*
X011429Y017356D03*
X011429Y017612D03*
X011429Y017868D03*
X011429Y018124D03*
X011429Y018380D03*
X011429Y018636D03*
X011429Y018892D03*
X011429Y019147D03*
X011429Y019403D03*
D18*
X005470Y017356D03*
X005155Y017356D03*
X004840Y017356D03*
X004525Y017356D03*
X004210Y017356D03*
D19*
X003068Y017356D03*
X003068Y019521D03*
X006612Y019521D03*
X006612Y017356D03*
D20*
X005706Y018340D03*
X003974Y018340D03*
D21*
X005660Y014640D02*
X006220Y014640D01*
X006220Y013640D02*
X005660Y013640D01*
X005660Y012640D02*
X006220Y012640D01*
X006220Y011640D02*
X005660Y011640D01*
X005660Y010640D02*
X006220Y010640D01*
X006220Y009640D02*
X005660Y009640D01*
X005660Y008640D02*
X006220Y008640D01*
X006220Y007640D02*
X005660Y007640D01*
X005660Y006640D02*
X006220Y006640D01*
X006220Y005640D02*
X005660Y005640D01*
X008660Y005640D02*
X009220Y005640D01*
X009220Y006640D02*
X008660Y006640D01*
X008660Y007640D02*
X009220Y007640D01*
X009220Y008640D02*
X008660Y008640D01*
X008660Y009640D02*
X009220Y009640D01*
X009220Y010640D02*
X008660Y010640D01*
X008660Y011640D02*
X009220Y011640D01*
X009220Y012640D02*
X008660Y012640D01*
X008660Y013640D02*
X009220Y013640D01*
X009220Y014640D02*
X008660Y014640D01*
M02*
