G75*
%MOIN*%
%OFA0B0*%
%FSLAX24Y24*%
%IPPOS*%
%LPD*%
%AMOC8*
5,1,8,0,0,1.08239X$1,22.5*
%
%ADD10R,0.0600X0.0600*%
%ADD11OC8,0.0600*%
%ADD12R,0.0433X0.0394*%
%ADD13R,0.0591X0.0591*%
%ADD14R,0.0472X0.0472*%
%ADD15R,0.0394X0.0433*%
%ADD16R,0.0550X0.0137*%
%ADD17R,0.0197X0.0984*%
%ADD18R,0.0787X0.0984*%
%ADD19C,0.0560*%
%ADD20C,0.0240*%
%ADD21C,0.0100*%
%ADD22C,0.0120*%
%ADD23C,0.0270*%
%ADD24C,0.0160*%
D10*
X007940Y001140D03*
X007940Y002140D03*
X007940Y003140D03*
X007940Y004140D03*
X011340Y013640D03*
X012340Y013640D03*
X013340Y013640D03*
X003640Y013640D03*
X002640Y013640D03*
X001640Y013640D03*
D11*
X001640Y012640D03*
X001640Y011640D03*
X001640Y010640D03*
X001640Y009640D03*
X001640Y008640D03*
X001640Y007640D03*
X001640Y006640D03*
X002640Y006640D03*
X002640Y007640D03*
X002640Y008640D03*
X002640Y009640D03*
X002640Y010640D03*
X002640Y011640D03*
X002640Y012640D03*
X003640Y012640D03*
X003640Y011640D03*
X003640Y010640D03*
X003640Y009640D03*
X003640Y008640D03*
X003640Y007640D03*
X003640Y006640D03*
X004940Y004140D03*
X004940Y003140D03*
X004940Y002140D03*
X004940Y001140D03*
X005940Y001140D03*
X005940Y002140D03*
X005940Y003140D03*
X005940Y004140D03*
X006940Y004140D03*
X006940Y003140D03*
X006940Y002140D03*
X006940Y001140D03*
X011340Y006640D03*
X011340Y007640D03*
X011340Y008640D03*
X011340Y009640D03*
X011340Y010640D03*
X011340Y011640D03*
X011340Y012640D03*
X012340Y012640D03*
X012340Y011640D03*
X012340Y010640D03*
X012340Y009640D03*
X012340Y008640D03*
X012340Y007640D03*
X012340Y006640D03*
X013340Y006640D03*
X013340Y007640D03*
X013340Y008640D03*
X013340Y009640D03*
X013340Y010640D03*
X013340Y011640D03*
X013340Y012640D03*
X001640Y015140D03*
X001640Y016140D03*
D12*
X003290Y005425D03*
X003290Y004755D03*
X003940Y004755D03*
X003940Y005425D03*
X010140Y005675D03*
X010140Y005005D03*
X010790Y005005D03*
X010790Y005675D03*
D13*
X000801Y003040D03*
X000801Y004140D03*
X002179Y004140D03*
X002179Y003040D03*
D14*
X013077Y017140D03*
X013077Y017840D03*
X013903Y017840D03*
X013903Y017140D03*
D15*
X013925Y016440D03*
X013925Y015840D03*
X013255Y015840D03*
X013255Y016440D03*
X007690Y017905D03*
X007690Y018575D03*
D16*
X008551Y018636D03*
X008551Y018892D03*
X008551Y019147D03*
X008551Y019403D03*
X008551Y018380D03*
X008551Y018124D03*
X008551Y017868D03*
X008551Y017612D03*
X008551Y017356D03*
X008551Y017100D03*
X008551Y016844D03*
X008551Y016588D03*
X008551Y016333D03*
X008551Y016077D03*
X011429Y016077D03*
X011429Y016333D03*
X011429Y016588D03*
X011429Y016844D03*
X011429Y017100D03*
X011429Y017356D03*
X011429Y017612D03*
X011429Y017868D03*
X011429Y018124D03*
X011429Y018380D03*
X011429Y018636D03*
X011429Y018892D03*
X011429Y019147D03*
X011429Y019403D03*
D17*
X005470Y017356D03*
X005155Y017356D03*
X004840Y017356D03*
X004525Y017356D03*
X004210Y017356D03*
D18*
X003068Y017356D03*
X003068Y019521D03*
X006612Y019521D03*
X006612Y017356D03*
D19*
X006220Y014640D02*
X005660Y014640D01*
X005660Y013640D02*
X006220Y013640D01*
X006220Y012640D02*
X005660Y012640D01*
X005660Y011640D02*
X006220Y011640D01*
X006220Y010640D02*
X005660Y010640D01*
X005660Y009640D02*
X006220Y009640D01*
X006220Y008640D02*
X005660Y008640D01*
X005660Y007640D02*
X006220Y007640D01*
X006220Y006640D02*
X005660Y006640D01*
X005660Y005640D02*
X006220Y005640D01*
X008660Y005640D02*
X009220Y005640D01*
X009220Y006640D02*
X008660Y006640D01*
X008660Y007640D02*
X009220Y007640D01*
X009220Y008640D02*
X008660Y008640D01*
X008660Y009640D02*
X009220Y009640D01*
X009220Y010640D02*
X008660Y010640D01*
X008660Y011640D02*
X009220Y011640D01*
X009220Y012640D02*
X008660Y012640D01*
X008660Y013640D02*
X009220Y013640D01*
X009220Y014640D02*
X008660Y014640D01*
D20*
X007790Y015240D02*
X011590Y015240D01*
X012340Y014490D01*
X012340Y013640D01*
X012340Y012640D01*
X012340Y011640D01*
X012340Y010640D01*
X012340Y009640D01*
X012340Y008640D01*
X012340Y007640D01*
X012340Y006640D01*
X007940Y002140D02*
X006940Y002140D01*
X005940Y002140D01*
X004940Y002140D01*
X002640Y006640D02*
X002640Y007640D01*
X002640Y008640D01*
X002640Y009640D01*
X002640Y010640D01*
X002640Y011640D01*
X002640Y012640D01*
X002640Y013640D01*
X001640Y014640D01*
X001640Y015140D01*
X002640Y013640D02*
X003640Y014640D01*
X005940Y014640D01*
X007190Y014640D01*
X007790Y015240D01*
D21*
X008126Y016040D02*
X005723Y016040D01*
X005340Y016423D01*
X005340Y016465D01*
X005413Y016435D01*
X005527Y016435D01*
X005631Y016478D01*
X005712Y016558D01*
X005755Y016663D01*
X005755Y016777D01*
X005718Y016865D01*
X005718Y017740D01*
X005973Y017740D01*
X006068Y017835D01*
X006068Y017406D01*
X006562Y017406D01*
X006562Y017998D01*
X006231Y017998D01*
X006607Y018375D01*
X007343Y018375D01*
X007343Y018296D01*
X007399Y018240D01*
X007373Y018214D01*
X007353Y018180D01*
X007343Y018142D01*
X007343Y017954D01*
X007642Y017954D01*
X007642Y017857D01*
X007738Y017857D01*
X007738Y017539D01*
X007907Y017539D01*
X007945Y017549D01*
X007979Y017569D01*
X008007Y017597D01*
X008027Y017631D01*
X008037Y017669D01*
X008037Y017857D01*
X007738Y017857D01*
X007738Y017954D01*
X008037Y017954D01*
X008037Y018142D01*
X008027Y018180D01*
X008007Y018214D01*
X007981Y018240D01*
X008037Y018296D01*
X008037Y018426D01*
X008126Y018426D01*
X008126Y017993D01*
X008133Y017985D01*
X008126Y017956D01*
X008126Y017868D01*
X008551Y017868D01*
X008976Y017868D01*
X008976Y017956D01*
X008968Y017985D01*
X008976Y017993D01*
X008976Y018172D01*
X010305Y016842D01*
X010305Y016783D01*
X010348Y016679D01*
X010429Y016598D01*
X010533Y016555D01*
X010647Y016555D01*
X010751Y016598D01*
X010832Y016679D01*
X010875Y016783D01*
X010875Y016897D01*
X010832Y017001D01*
X010751Y017082D01*
X010647Y017125D01*
X010588Y017125D01*
X009287Y018426D01*
X009357Y018426D01*
X010514Y017269D01*
X010637Y017146D01*
X011004Y017146D01*
X011004Y016970D01*
X011012Y016962D01*
X011004Y016933D01*
X011004Y016844D01*
X011004Y016756D01*
X011012Y016727D01*
X011004Y016719D01*
X011004Y016533D01*
X009800Y016533D01*
X009683Y016415D01*
X009307Y016040D01*
X008976Y016040D01*
X008976Y017743D01*
X008968Y017751D01*
X008976Y017780D01*
X008976Y017868D01*
X008551Y017868D01*
X008551Y017868D01*
X008551Y017868D01*
X008126Y017868D01*
X008126Y017780D01*
X008133Y017751D01*
X008126Y017743D01*
X008126Y016040D01*
X008126Y016097D02*
X005666Y016097D01*
X005567Y016196D02*
X008126Y016196D01*
X008126Y016294D02*
X005469Y016294D01*
X005370Y016393D02*
X008126Y016393D01*
X008126Y016491D02*
X005644Y016491D01*
X005724Y016590D02*
X008126Y016590D01*
X008126Y016688D02*
X005755Y016688D01*
X005751Y016787D02*
X006089Y016787D01*
X006098Y016772D02*
X006126Y016744D01*
X006160Y016724D01*
X006198Y016714D01*
X006562Y016714D01*
X006562Y017306D01*
X006662Y017306D01*
X006662Y017406D01*
X007155Y017406D01*
X007155Y017868D01*
X007145Y017906D01*
X007125Y017940D01*
X007097Y017968D01*
X007063Y017988D01*
X007025Y017998D01*
X006662Y017998D01*
X006662Y017406D01*
X006562Y017406D01*
X006562Y017306D01*
X006068Y017306D01*
X006068Y016844D01*
X006078Y016806D01*
X006098Y016772D01*
X006068Y016885D02*
X005718Y016885D01*
X005718Y016984D02*
X006068Y016984D01*
X006068Y017082D02*
X005718Y017082D01*
X005718Y017181D02*
X006068Y017181D01*
X006068Y017279D02*
X005718Y017279D01*
X005718Y017378D02*
X006562Y017378D01*
X006562Y017476D02*
X006662Y017476D01*
X006662Y017378D02*
X008126Y017378D01*
X008126Y017476D02*
X007155Y017476D01*
X007155Y017575D02*
X007395Y017575D01*
X007401Y017569D02*
X007435Y017549D01*
X007473Y017539D01*
X007642Y017539D01*
X007642Y017857D01*
X007343Y017857D01*
X007343Y017669D01*
X007353Y017631D01*
X007373Y017597D01*
X007401Y017569D01*
X007343Y017673D02*
X007155Y017673D01*
X007155Y017772D02*
X007343Y017772D01*
X007343Y017969D02*
X007096Y017969D01*
X007155Y017870D02*
X007642Y017870D01*
X007738Y017870D02*
X008126Y017870D01*
X008128Y017772D02*
X008037Y017772D01*
X008037Y017673D02*
X008126Y017673D01*
X008126Y017575D02*
X007985Y017575D01*
X008126Y017279D02*
X007155Y017279D01*
X007155Y017306D02*
X006662Y017306D01*
X006662Y016714D01*
X007025Y016714D01*
X007063Y016724D01*
X007097Y016744D01*
X007125Y016772D01*
X007145Y016806D01*
X007155Y016844D01*
X007155Y017306D01*
X007155Y017181D02*
X008126Y017181D01*
X008126Y017082D02*
X007155Y017082D01*
X007155Y016984D02*
X008126Y016984D01*
X008126Y016885D02*
X007155Y016885D01*
X007134Y016787D02*
X008126Y016787D01*
X007738Y017575D02*
X007642Y017575D01*
X007642Y017673D02*
X007738Y017673D01*
X007738Y017772D02*
X007642Y017772D01*
X007343Y018067D02*
X006300Y018067D01*
X006398Y018166D02*
X007350Y018166D01*
X007375Y018264D02*
X006497Y018264D01*
X006595Y018363D02*
X007343Y018363D01*
X007690Y018575D02*
X006525Y018575D01*
X005890Y017940D01*
X005540Y017940D01*
X005470Y017870D01*
X005470Y017356D01*
X005718Y017476D02*
X006068Y017476D01*
X006068Y017575D02*
X005718Y017575D01*
X005718Y017673D02*
X006068Y017673D01*
X006068Y017772D02*
X006004Y017772D01*
X006562Y017772D02*
X006662Y017772D01*
X006662Y017870D02*
X006562Y017870D01*
X006562Y017969D02*
X006662Y017969D01*
X006662Y017673D02*
X006562Y017673D01*
X006562Y017575D02*
X006662Y017575D01*
X006662Y017279D02*
X006562Y017279D01*
X006562Y017181D02*
X006662Y017181D01*
X006662Y017082D02*
X006562Y017082D01*
X006562Y016984D02*
X006662Y016984D01*
X006662Y016885D02*
X006562Y016885D01*
X006562Y016787D02*
X006662Y016787D01*
X005640Y015840D02*
X009390Y015840D01*
X009883Y016333D01*
X011429Y016333D01*
X011429Y016077D02*
X010027Y016077D01*
X009590Y015640D01*
X005440Y015640D01*
X004840Y016240D01*
X004840Y017356D01*
X005140Y017341D02*
X005140Y016340D01*
X005640Y015840D01*
X004957Y015840D02*
X002540Y015840D01*
X002540Y016797D01*
X002555Y016772D01*
X002583Y016744D01*
X002617Y016724D01*
X002655Y016714D01*
X003018Y016714D01*
X003018Y017306D01*
X003118Y017306D01*
X003118Y016714D01*
X003482Y016714D01*
X003520Y016724D01*
X003554Y016744D01*
X003582Y016772D01*
X003602Y016806D01*
X003612Y016844D01*
X003612Y017306D01*
X003118Y017306D01*
X003118Y017406D01*
X003018Y017406D01*
X003018Y017998D01*
X002655Y017998D01*
X002617Y017988D01*
X002583Y017968D01*
X002555Y017940D01*
X002540Y017915D01*
X002540Y018962D01*
X002555Y018937D01*
X002583Y018909D01*
X002617Y018889D01*
X002655Y018879D01*
X003018Y018879D01*
X003018Y019471D01*
X003118Y019471D01*
X003118Y018879D01*
X003482Y018879D01*
X003520Y018889D01*
X003554Y018909D01*
X003582Y018937D01*
X003602Y018971D01*
X003612Y019009D01*
X003612Y019471D01*
X003118Y019471D01*
X003118Y019571D01*
X003018Y019571D01*
X003018Y020163D01*
X002655Y020163D01*
X002617Y020153D01*
X002583Y020133D01*
X002555Y020105D01*
X002540Y020080D01*
X002540Y020190D01*
X012390Y020190D01*
X012390Y018334D01*
X011854Y018334D01*
X011854Y018510D01*
X011847Y018518D01*
X011854Y018547D01*
X011854Y018636D01*
X011854Y018724D01*
X011844Y018762D01*
X011843Y018764D01*
X011844Y018765D01*
X011854Y018803D01*
X011854Y018892D01*
X011854Y018980D01*
X011847Y019009D01*
X011854Y019017D01*
X011854Y019534D01*
X011767Y019622D01*
X011092Y019622D01*
X011004Y019534D01*
X011004Y019017D01*
X011012Y019009D01*
X011004Y018980D01*
X011004Y018892D01*
X011429Y018892D01*
X011429Y018892D01*
X011004Y018892D01*
X011004Y018803D01*
X011015Y018765D01*
X011015Y018764D01*
X011015Y018762D01*
X011004Y018724D01*
X011004Y018636D01*
X011429Y018636D01*
X011429Y018636D01*
X011429Y018673D01*
X011429Y018892D01*
X011854Y018892D01*
X011429Y018892D01*
X011429Y018892D01*
X011429Y018892D01*
X011429Y018636D01*
X011429Y018636D01*
X011004Y018636D01*
X011004Y018547D01*
X011012Y018518D01*
X011004Y018510D01*
X011004Y017737D01*
X011012Y017729D01*
X011004Y017700D01*
X011004Y017612D01*
X011004Y017566D01*
X010811Y017566D01*
X009531Y018846D01*
X008976Y018846D01*
X008976Y019203D01*
X009394Y019203D01*
X009905Y018692D01*
X009905Y018633D01*
X009948Y018529D01*
X010029Y018448D01*
X010133Y018405D01*
X010247Y018405D01*
X010351Y018448D01*
X010432Y018529D01*
X010475Y018633D01*
X010475Y018747D01*
X010432Y018851D01*
X010351Y018932D01*
X010247Y018975D01*
X010188Y018975D01*
X009559Y019603D01*
X008906Y019603D01*
X008888Y019622D01*
X008213Y019622D01*
X008126Y019534D01*
X008126Y018846D01*
X008037Y018846D01*
X008037Y018853D01*
X007949Y018941D01*
X007431Y018941D01*
X007343Y018853D01*
X007343Y018775D01*
X006442Y018775D01*
X006033Y018366D01*
X006033Y018405D01*
X005983Y018525D01*
X005891Y018617D01*
X005771Y018667D01*
X005641Y018667D01*
X005521Y018617D01*
X005429Y018525D01*
X005379Y018405D01*
X005379Y018275D01*
X005429Y018155D01*
X005450Y018133D01*
X005340Y018023D01*
X005315Y017998D01*
X004364Y017998D01*
X004357Y017990D01*
X004328Y017998D01*
X004210Y017998D01*
X004092Y017998D01*
X004054Y017988D01*
X004020Y017968D01*
X003992Y017940D01*
X003972Y017906D01*
X003962Y017868D01*
X003962Y017356D01*
X004210Y017356D01*
X004210Y017998D01*
X004210Y017356D01*
X004210Y017356D01*
X004210Y017356D01*
X003962Y017356D01*
X003962Y016844D01*
X003972Y016806D01*
X003992Y016772D01*
X004020Y016744D01*
X004054Y016724D01*
X004092Y016714D01*
X004210Y016714D01*
X004210Y017356D01*
X004210Y017356D01*
X004210Y016714D01*
X004328Y016714D01*
X004357Y016721D01*
X004364Y016714D01*
X004640Y016714D01*
X004640Y016157D01*
X004957Y015840D01*
X004897Y015900D02*
X002540Y015900D01*
X002540Y015999D02*
X004799Y015999D01*
X004700Y016097D02*
X002540Y016097D01*
X002540Y016196D02*
X004640Y016196D01*
X004640Y016294D02*
X002540Y016294D01*
X002540Y016393D02*
X004640Y016393D01*
X004640Y016491D02*
X002540Y016491D01*
X002540Y016590D02*
X004640Y016590D01*
X004640Y016688D02*
X002540Y016688D01*
X002540Y016787D02*
X002546Y016787D01*
X003018Y016787D02*
X003118Y016787D01*
X003118Y016885D02*
X003018Y016885D01*
X003018Y016984D02*
X003118Y016984D01*
X003118Y017082D02*
X003018Y017082D01*
X003018Y017181D02*
X003118Y017181D01*
X003118Y017279D02*
X003018Y017279D01*
X003118Y017378D02*
X003962Y017378D01*
X003962Y017476D02*
X003612Y017476D01*
X003612Y017406D02*
X003612Y017868D01*
X003602Y017906D01*
X003582Y017940D01*
X003554Y017968D01*
X003520Y017988D01*
X003482Y017998D01*
X003118Y017998D01*
X003118Y017406D01*
X003612Y017406D01*
X003612Y017279D02*
X003962Y017279D01*
X003962Y017181D02*
X003612Y017181D01*
X003612Y017082D02*
X003962Y017082D01*
X003962Y016984D02*
X003612Y016984D01*
X003612Y016885D02*
X003962Y016885D01*
X003983Y016787D02*
X003591Y016787D01*
X003612Y017575D02*
X003962Y017575D01*
X003962Y017673D02*
X003612Y017673D01*
X003612Y017772D02*
X003962Y017772D01*
X003962Y017870D02*
X003611Y017870D01*
X003553Y017969D02*
X004021Y017969D01*
X004039Y018013D02*
X004159Y018063D01*
X004251Y018155D01*
X004301Y018275D01*
X004301Y018405D01*
X004251Y018525D01*
X004159Y018617D01*
X004039Y018667D01*
X003909Y018667D01*
X003789Y018617D01*
X003697Y018525D01*
X003647Y018405D01*
X003647Y018275D01*
X003697Y018155D01*
X003789Y018063D01*
X003909Y018013D01*
X004039Y018013D01*
X004164Y018067D02*
X005384Y018067D01*
X005424Y018166D02*
X004256Y018166D01*
X004297Y018264D02*
X005383Y018264D01*
X005379Y018363D02*
X004301Y018363D01*
X004278Y018461D02*
X005402Y018461D01*
X005463Y018560D02*
X004217Y018560D01*
X004061Y018658D02*
X005619Y018658D01*
X005793Y018658D02*
X006325Y018658D01*
X006227Y018560D02*
X005949Y018560D01*
X006010Y018461D02*
X006128Y018461D01*
X006424Y018757D02*
X002540Y018757D01*
X002540Y018855D02*
X007345Y018855D01*
X007145Y018971D02*
X007155Y019009D01*
X007155Y019471D01*
X006662Y019471D01*
X006662Y019571D01*
X007155Y019571D01*
X007155Y020033D01*
X007145Y020071D01*
X007125Y020105D01*
X007097Y020133D01*
X007063Y020153D01*
X007025Y020163D01*
X006662Y020163D01*
X006662Y019571D01*
X006562Y019571D01*
X006562Y020163D01*
X006198Y020163D01*
X006160Y020153D01*
X006126Y020133D01*
X006098Y020105D01*
X006078Y020071D01*
X006068Y020033D01*
X006068Y019571D01*
X006562Y019571D01*
X006562Y019471D01*
X006662Y019471D01*
X006662Y018879D01*
X007025Y018879D01*
X007063Y018889D01*
X007097Y018909D01*
X007125Y018937D01*
X007145Y018971D01*
X007135Y018954D02*
X008126Y018954D01*
X008126Y019052D02*
X007155Y019052D01*
X007155Y019151D02*
X008126Y019151D01*
X008126Y019249D02*
X007155Y019249D01*
X007155Y019348D02*
X008126Y019348D01*
X008126Y019446D02*
X007155Y019446D01*
X007155Y019643D02*
X012390Y019643D01*
X012390Y019545D02*
X011844Y019545D01*
X011854Y019446D02*
X012390Y019446D01*
X012390Y019348D02*
X011854Y019348D01*
X011854Y019249D02*
X012390Y019249D01*
X012390Y019151D02*
X011854Y019151D01*
X011854Y019052D02*
X012390Y019052D01*
X012390Y018954D02*
X011854Y018954D01*
X011854Y018855D02*
X012390Y018855D01*
X012390Y018757D02*
X011846Y018757D01*
X011854Y018658D02*
X012390Y018658D01*
X012390Y018560D02*
X011854Y018560D01*
X011854Y018636D02*
X011429Y018636D01*
X011854Y018636D01*
X011854Y018461D02*
X012390Y018461D01*
X012390Y018363D02*
X011854Y018363D01*
X011429Y018636D02*
X011429Y018636D01*
X011429Y018658D02*
X011429Y018658D01*
X011429Y018757D02*
X011429Y018757D01*
X011429Y018855D02*
X011429Y018855D01*
X011004Y018855D02*
X010428Y018855D01*
X010471Y018757D02*
X011013Y018757D01*
X011004Y018658D02*
X010475Y018658D01*
X010444Y018560D02*
X011004Y018560D01*
X011004Y018461D02*
X010364Y018461D01*
X010190Y018690D02*
X009477Y019403D01*
X008551Y019403D01*
X008976Y019151D02*
X009447Y019151D01*
X009545Y019052D02*
X008976Y019052D01*
X008976Y018954D02*
X009644Y018954D01*
X009742Y018855D02*
X008976Y018855D01*
X009050Y018380D02*
X008551Y018380D01*
X008976Y018166D02*
X008982Y018166D01*
X008976Y018067D02*
X009080Y018067D01*
X009179Y017969D02*
X008972Y017969D01*
X008976Y017870D02*
X009277Y017870D01*
X009376Y017772D02*
X008973Y017772D01*
X008976Y017673D02*
X009474Y017673D01*
X009573Y017575D02*
X008976Y017575D01*
X008976Y017476D02*
X009671Y017476D01*
X009770Y017378D02*
X008976Y017378D01*
X008976Y017279D02*
X009868Y017279D01*
X009967Y017181D02*
X008976Y017181D01*
X008976Y017082D02*
X010065Y017082D01*
X010164Y016984D02*
X008976Y016984D01*
X008976Y016885D02*
X010262Y016885D01*
X010305Y016787D02*
X008976Y016787D01*
X008976Y016688D02*
X010344Y016688D01*
X010450Y016590D02*
X008976Y016590D01*
X008976Y016491D02*
X009758Y016491D01*
X009660Y016393D02*
X008976Y016393D01*
X008976Y016294D02*
X009561Y016294D01*
X009463Y016196D02*
X008976Y016196D01*
X008976Y016097D02*
X009364Y016097D01*
X010073Y015840D02*
X010109Y015877D01*
X011074Y015877D01*
X011092Y015858D01*
X011767Y015858D01*
X011854Y015946D01*
X011854Y016719D01*
X011847Y016727D01*
X011854Y016756D01*
X011854Y016844D01*
X011429Y016844D01*
X011004Y016844D01*
X011429Y016844D01*
X011429Y016844D01*
X011429Y016844D01*
X011854Y016844D01*
X011854Y016933D01*
X011847Y016962D01*
X011854Y016970D01*
X011854Y017146D01*
X012187Y017146D01*
X012280Y017053D01*
X012280Y015953D01*
X012390Y015843D01*
X012390Y015840D01*
X010073Y015840D01*
X010730Y016590D02*
X011004Y016590D01*
X011004Y016688D02*
X010836Y016688D01*
X010875Y016787D02*
X011004Y016787D01*
X011004Y016885D02*
X010875Y016885D01*
X010839Y016984D02*
X011004Y016984D01*
X011004Y017082D02*
X010750Y017082D01*
X010602Y017181D02*
X010532Y017181D01*
X010504Y017279D02*
X010434Y017279D01*
X010405Y017378D02*
X010335Y017378D01*
X010307Y017476D02*
X010237Y017476D01*
X010208Y017575D02*
X010138Y017575D01*
X010110Y017673D02*
X010040Y017673D01*
X010011Y017772D02*
X009941Y017772D01*
X009913Y017870D02*
X009843Y017870D01*
X009814Y017969D02*
X009744Y017969D01*
X009716Y018067D02*
X009646Y018067D01*
X009617Y018166D02*
X009547Y018166D01*
X009519Y018264D02*
X009449Y018264D01*
X009420Y018363D02*
X009350Y018363D01*
X009050Y018380D02*
X010590Y016840D01*
X010802Y017575D02*
X011004Y017575D01*
X011004Y017612D02*
X011429Y017612D01*
X011429Y017612D01*
X011004Y017612D01*
X011004Y017673D02*
X010704Y017673D01*
X010605Y017772D02*
X011004Y017772D01*
X011004Y017870D02*
X010507Y017870D01*
X010408Y017969D02*
X011004Y017969D01*
X011004Y018067D02*
X010310Y018067D01*
X010211Y018166D02*
X011004Y018166D01*
X011004Y018264D02*
X010113Y018264D01*
X010014Y018363D02*
X011004Y018363D01*
X011004Y018954D02*
X010298Y018954D01*
X010111Y019052D02*
X011004Y019052D01*
X011004Y019151D02*
X010012Y019151D01*
X009914Y019249D02*
X011004Y019249D01*
X011004Y019348D02*
X009815Y019348D01*
X009717Y019446D02*
X011004Y019446D01*
X011015Y019545D02*
X009618Y019545D01*
X009620Y018757D02*
X009841Y018757D01*
X009905Y018658D02*
X009719Y018658D01*
X009817Y018560D02*
X009936Y018560D01*
X009916Y018461D02*
X010016Y018461D01*
X011429Y017612D02*
X011854Y017612D01*
X011854Y017566D01*
X012353Y017566D01*
X012262Y017658D01*
X011854Y017658D01*
X011854Y017612D01*
X011429Y017612D01*
X011429Y017612D01*
X011854Y017575D02*
X012345Y017575D01*
X012251Y017082D02*
X011854Y017082D01*
X011854Y016984D02*
X012280Y016984D01*
X012280Y016885D02*
X011854Y016885D01*
X011854Y016787D02*
X012280Y016787D01*
X012280Y016688D02*
X011854Y016688D01*
X011854Y016590D02*
X012280Y016590D01*
X012280Y016491D02*
X011854Y016491D01*
X011854Y016393D02*
X012280Y016393D01*
X012280Y016294D02*
X011854Y016294D01*
X011854Y016196D02*
X012280Y016196D01*
X012280Y016097D02*
X011854Y016097D01*
X011854Y015999D02*
X012280Y015999D01*
X012333Y015900D02*
X011808Y015900D01*
X010590Y014490D02*
X009740Y013640D01*
X008940Y013640D01*
X009540Y014140D02*
X008275Y014140D01*
X008940Y012640D02*
X010340Y012640D01*
X011340Y013640D01*
X011340Y012640D02*
X010340Y011640D01*
X008940Y011640D01*
X008940Y010640D02*
X010340Y010640D01*
X011340Y011640D01*
X011340Y010640D02*
X010340Y009640D01*
X008940Y009640D01*
X008940Y008640D02*
X010340Y008640D01*
X011340Y009640D01*
X011340Y008640D02*
X011840Y008140D01*
X011840Y006340D01*
X011175Y005675D01*
X010790Y005675D01*
X010790Y005005D02*
X011255Y005005D01*
X012340Y006090D01*
X012340Y006640D01*
X011340Y006640D02*
X011040Y006640D01*
X010140Y005740D01*
X010140Y005675D01*
X010105Y005640D01*
X008940Y005640D01*
X008940Y004140D01*
X007940Y003140D01*
X006940Y003140D01*
X005940Y003140D01*
X004940Y003140D01*
X004940Y004140D02*
X005940Y004140D01*
X006940Y004140D01*
X007940Y004140D01*
X007940Y007340D01*
X008240Y007640D01*
X008940Y007640D01*
X010340Y007640D01*
X011340Y008640D01*
X011340Y007640D02*
X010340Y006640D01*
X008940Y006640D01*
X010140Y005005D02*
X010790Y005005D01*
X005940Y005640D02*
X004640Y005640D01*
X003640Y006640D01*
X003640Y007640D02*
X004640Y006640D01*
X005940Y006640D01*
X005940Y007640D02*
X004640Y007640D01*
X003640Y008640D01*
X003640Y009640D02*
X004640Y008640D01*
X005940Y008640D01*
X005940Y009640D02*
X004640Y009640D01*
X003640Y010640D01*
X003640Y011640D02*
X004640Y010640D01*
X005940Y010640D01*
X005940Y011640D02*
X004640Y011640D01*
X003640Y012640D01*
X003640Y013640D02*
X004640Y012640D01*
X005940Y012640D01*
X004210Y016787D02*
X004210Y016787D01*
X004210Y016885D02*
X004210Y016885D01*
X004210Y016984D02*
X004210Y016984D01*
X004210Y017082D02*
X004210Y017082D01*
X004210Y017181D02*
X004210Y017181D01*
X004210Y017279D02*
X004210Y017279D01*
X004210Y017378D02*
X004210Y017378D01*
X004210Y017476D02*
X004210Y017476D01*
X004210Y017575D02*
X004210Y017575D01*
X004210Y017673D02*
X004210Y017673D01*
X004210Y017772D02*
X004210Y017772D01*
X004210Y017870D02*
X004210Y017870D01*
X004210Y017969D02*
X004210Y017969D01*
X003784Y018067D02*
X002540Y018067D01*
X002540Y017969D02*
X002584Y017969D01*
X002540Y018166D02*
X003692Y018166D01*
X003651Y018264D02*
X002540Y018264D01*
X002540Y018363D02*
X003647Y018363D01*
X003670Y018461D02*
X002540Y018461D01*
X002540Y018560D02*
X003731Y018560D01*
X003887Y018658D02*
X002540Y018658D01*
X002540Y018954D02*
X002545Y018954D01*
X003018Y018954D02*
X003118Y018954D01*
X003118Y019052D02*
X003018Y019052D01*
X003018Y019151D02*
X003118Y019151D01*
X003118Y019249D02*
X003018Y019249D01*
X003018Y019348D02*
X003118Y019348D01*
X003118Y019446D02*
X003018Y019446D01*
X003118Y019545D02*
X006562Y019545D01*
X006562Y019471D02*
X006068Y019471D01*
X006068Y019009D01*
X006078Y018971D01*
X006098Y018937D01*
X006126Y018909D01*
X006160Y018889D01*
X006198Y018879D01*
X006562Y018879D01*
X006562Y019471D01*
X006562Y019446D02*
X006662Y019446D01*
X006662Y019348D02*
X006562Y019348D01*
X006562Y019249D02*
X006662Y019249D01*
X006662Y019151D02*
X006562Y019151D01*
X006562Y019052D02*
X006662Y019052D01*
X006662Y018954D02*
X006562Y018954D01*
X006662Y019545D02*
X008136Y019545D01*
X008126Y018855D02*
X008035Y018855D01*
X008037Y018363D02*
X008126Y018363D01*
X008126Y018264D02*
X008005Y018264D01*
X008030Y018166D02*
X008126Y018166D01*
X008126Y018067D02*
X008037Y018067D01*
X008037Y017969D02*
X008129Y017969D01*
X007155Y019742D02*
X012390Y019742D01*
X012390Y019840D02*
X007155Y019840D01*
X007155Y019939D02*
X012390Y019939D01*
X012390Y020037D02*
X007154Y020037D01*
X007093Y020136D02*
X012390Y020136D01*
X010190Y014790D02*
X009540Y014140D01*
X006088Y018954D02*
X003592Y018954D01*
X003612Y019052D02*
X006068Y019052D01*
X006068Y019151D02*
X003612Y019151D01*
X003612Y019249D02*
X006068Y019249D01*
X006068Y019348D02*
X003612Y019348D01*
X003612Y019446D02*
X006068Y019446D01*
X006068Y019643D02*
X003612Y019643D01*
X003612Y019571D02*
X003612Y020033D01*
X003602Y020071D01*
X003582Y020105D01*
X003554Y020133D01*
X003520Y020153D01*
X003482Y020163D01*
X003118Y020163D01*
X003118Y019571D01*
X003612Y019571D01*
X003612Y019742D02*
X006068Y019742D01*
X006068Y019840D02*
X003612Y019840D01*
X003612Y019939D02*
X006068Y019939D01*
X006069Y020037D02*
X003611Y020037D01*
X003550Y020136D02*
X006130Y020136D01*
X006562Y020136D02*
X006662Y020136D01*
X006662Y020037D02*
X006562Y020037D01*
X006562Y019939D02*
X006662Y019939D01*
X006662Y019840D02*
X006562Y019840D01*
X006562Y019742D02*
X006662Y019742D01*
X006662Y019643D02*
X006562Y019643D01*
X005155Y017356D02*
X005140Y017341D01*
X003118Y017476D02*
X003018Y017476D01*
X003018Y017575D02*
X003118Y017575D01*
X003118Y017673D02*
X003018Y017673D01*
X003018Y017772D02*
X003118Y017772D01*
X003118Y017870D02*
X003018Y017870D01*
X003018Y017969D02*
X003118Y017969D01*
X003118Y019643D02*
X003018Y019643D01*
X003018Y019742D02*
X003118Y019742D01*
X003118Y019840D02*
X003018Y019840D01*
X003018Y019939D02*
X003118Y019939D01*
X003118Y020037D02*
X003018Y020037D01*
X003018Y020136D02*
X003118Y020136D01*
X002587Y020136D02*
X002540Y020136D01*
D22*
X007751Y018636D02*
X008551Y018636D01*
X009444Y018636D01*
X010724Y017356D01*
X011429Y017356D01*
X012274Y017356D01*
X012490Y017140D01*
X012490Y016040D01*
X012690Y015840D01*
X013255Y015840D01*
X013255Y016440D01*
X013077Y017140D02*
X012349Y017868D01*
X011429Y017868D01*
X011429Y018124D02*
X012793Y018124D01*
X013077Y017840D01*
X013903Y017840D02*
X014190Y017840D01*
X014390Y017640D01*
X014390Y016090D01*
X014140Y015840D01*
X013925Y015840D01*
X013925Y016440D02*
X013925Y017061D01*
X013903Y017140D01*
X003140Y006440D02*
X003940Y005640D01*
X003940Y005425D01*
X003940Y004755D02*
X003940Y004440D01*
X002540Y003040D01*
X002179Y003040D01*
X002179Y004140D02*
X002940Y004140D01*
X003290Y004490D01*
X003290Y004755D01*
X003290Y005425D02*
X003225Y005490D01*
X003240Y005490D01*
X002640Y006090D01*
X002640Y006640D01*
X003140Y006440D02*
X003140Y009140D01*
X003640Y009640D01*
D23*
X000801Y003590D03*
X008275Y014140D03*
X010190Y014790D03*
X010590Y014490D03*
X010590Y016840D03*
X009140Y017740D03*
X010190Y018690D03*
X012090Y018940D03*
X012090Y016740D03*
X007990Y017440D03*
X007340Y017440D03*
X007190Y018090D03*
X005470Y016720D03*
X004840Y018340D03*
D24*
X005470Y017356D02*
X005470Y016720D01*
X007690Y018575D02*
X007751Y018636D01*
X000801Y004140D02*
X000801Y003590D01*
X000801Y003040D01*
M02*
