G75*
%MOIN*%
%OFA0B0*%
%FSLAX24Y24*%
%IPPOS*%
%LPD*%
%AMOC8*
5,1,8,0,0,1.08239X$1,22.5*
%
%ADD10C,0.0000*%
D10*
X000140Y001140D02*
X000140Y019340D01*
X000142Y019400D01*
X000147Y019461D01*
X000156Y019520D01*
X000169Y019579D01*
X000185Y019638D01*
X000205Y019695D01*
X000228Y019750D01*
X000255Y019805D01*
X000284Y019857D01*
X000317Y019908D01*
X000353Y019957D01*
X000391Y020003D01*
X000433Y020047D01*
X000477Y020089D01*
X000523Y020127D01*
X000572Y020163D01*
X000623Y020196D01*
X000675Y020225D01*
X000730Y020252D01*
X000785Y020275D01*
X000842Y020295D01*
X000901Y020311D01*
X000960Y020324D01*
X001019Y020333D01*
X001080Y020338D01*
X001140Y020340D01*
X013840Y020340D01*
X013900Y020338D01*
X013961Y020333D01*
X014020Y020324D01*
X014079Y020311D01*
X014138Y020295D01*
X014195Y020275D01*
X014250Y020252D01*
X014305Y020225D01*
X014357Y020196D01*
X014408Y020163D01*
X014457Y020127D01*
X014503Y020089D01*
X014547Y020047D01*
X014589Y020003D01*
X014627Y019957D01*
X014663Y019908D01*
X014696Y019857D01*
X014725Y019805D01*
X014752Y019750D01*
X014775Y019695D01*
X014795Y019638D01*
X014811Y019579D01*
X014824Y019520D01*
X014833Y019461D01*
X014838Y019400D01*
X014840Y019340D01*
X014840Y001140D01*
X014838Y001080D01*
X014833Y001019D01*
X014824Y000960D01*
X014811Y000901D01*
X014795Y000842D01*
X014775Y000785D01*
X014752Y000730D01*
X014725Y000675D01*
X014696Y000623D01*
X014663Y000572D01*
X014627Y000523D01*
X014589Y000477D01*
X014547Y000433D01*
X014503Y000391D01*
X014457Y000353D01*
X014408Y000317D01*
X014357Y000284D01*
X014305Y000255D01*
X014250Y000228D01*
X014195Y000205D01*
X014138Y000185D01*
X014079Y000169D01*
X014020Y000156D01*
X013961Y000147D01*
X013900Y000142D01*
X013840Y000140D01*
X001140Y000140D01*
X001080Y000142D01*
X001019Y000147D01*
X000960Y000156D01*
X000901Y000169D01*
X000842Y000185D01*
X000785Y000205D01*
X000730Y000228D01*
X000675Y000255D01*
X000623Y000284D01*
X000572Y000317D01*
X000523Y000353D01*
X000477Y000391D01*
X000433Y000433D01*
X000391Y000477D01*
X000353Y000523D01*
X000317Y000572D01*
X000284Y000623D01*
X000255Y000675D01*
X000228Y000730D01*
X000205Y000785D01*
X000185Y000842D01*
X000169Y000901D01*
X000156Y000960D01*
X000147Y001019D01*
X000142Y001080D01*
X000140Y001140D01*
X000610Y001240D02*
X000612Y001290D01*
X000618Y001340D01*
X000628Y001389D01*
X000642Y001437D01*
X000659Y001484D01*
X000680Y001529D01*
X000705Y001573D01*
X000733Y001614D01*
X000765Y001653D01*
X000799Y001690D01*
X000836Y001724D01*
X000876Y001754D01*
X000918Y001781D01*
X000962Y001805D01*
X001008Y001826D01*
X001055Y001842D01*
X001103Y001855D01*
X001153Y001864D01*
X001202Y001869D01*
X001253Y001870D01*
X001303Y001867D01*
X001352Y001860D01*
X001401Y001849D01*
X001449Y001834D01*
X001495Y001816D01*
X001540Y001794D01*
X001583Y001768D01*
X001624Y001739D01*
X001663Y001707D01*
X001699Y001672D01*
X001731Y001634D01*
X001761Y001594D01*
X001788Y001551D01*
X001811Y001507D01*
X001830Y001461D01*
X001846Y001413D01*
X001858Y001364D01*
X001866Y001315D01*
X001870Y001265D01*
X001870Y001215D01*
X001866Y001165D01*
X001858Y001116D01*
X001846Y001067D01*
X001830Y001019D01*
X001811Y000973D01*
X001788Y000929D01*
X001761Y000886D01*
X001731Y000846D01*
X001699Y000808D01*
X001663Y000773D01*
X001624Y000741D01*
X001583Y000712D01*
X001540Y000686D01*
X001495Y000664D01*
X001449Y000646D01*
X001401Y000631D01*
X001352Y000620D01*
X001303Y000613D01*
X001253Y000610D01*
X001202Y000611D01*
X001153Y000616D01*
X001103Y000625D01*
X001055Y000638D01*
X001008Y000654D01*
X000962Y000675D01*
X000918Y000699D01*
X000876Y000726D01*
X000836Y000756D01*
X000799Y000790D01*
X000765Y000827D01*
X000733Y000866D01*
X000705Y000907D01*
X000680Y000951D01*
X000659Y000996D01*
X000642Y001043D01*
X000628Y001091D01*
X000618Y001140D01*
X000612Y001190D01*
X000610Y001240D01*
X003797Y018340D02*
X003799Y018366D01*
X003805Y018392D01*
X003815Y018417D01*
X003828Y018440D01*
X003844Y018460D01*
X003864Y018478D01*
X003886Y018493D01*
X003909Y018505D01*
X003935Y018513D01*
X003961Y018517D01*
X003987Y018517D01*
X004013Y018513D01*
X004039Y018505D01*
X004063Y018493D01*
X004084Y018478D01*
X004104Y018460D01*
X004120Y018440D01*
X004133Y018417D01*
X004143Y018392D01*
X004149Y018366D01*
X004151Y018340D01*
X004149Y018314D01*
X004143Y018288D01*
X004133Y018263D01*
X004120Y018240D01*
X004104Y018220D01*
X004084Y018202D01*
X004062Y018187D01*
X004039Y018175D01*
X004013Y018167D01*
X003987Y018163D01*
X003961Y018163D01*
X003935Y018167D01*
X003909Y018175D01*
X003885Y018187D01*
X003864Y018202D01*
X003844Y018220D01*
X003828Y018240D01*
X003815Y018263D01*
X003805Y018288D01*
X003799Y018314D01*
X003797Y018340D01*
X005529Y018340D02*
X005531Y018366D01*
X005537Y018392D01*
X005547Y018417D01*
X005560Y018440D01*
X005576Y018460D01*
X005596Y018478D01*
X005618Y018493D01*
X005641Y018505D01*
X005667Y018513D01*
X005693Y018517D01*
X005719Y018517D01*
X005745Y018513D01*
X005771Y018505D01*
X005795Y018493D01*
X005816Y018478D01*
X005836Y018460D01*
X005852Y018440D01*
X005865Y018417D01*
X005875Y018392D01*
X005881Y018366D01*
X005883Y018340D01*
X005881Y018314D01*
X005875Y018288D01*
X005865Y018263D01*
X005852Y018240D01*
X005836Y018220D01*
X005816Y018202D01*
X005794Y018187D01*
X005771Y018175D01*
X005745Y018167D01*
X005719Y018163D01*
X005693Y018163D01*
X005667Y018167D01*
X005641Y018175D01*
X005617Y018187D01*
X005596Y018202D01*
X005576Y018220D01*
X005560Y018240D01*
X005547Y018263D01*
X005537Y018288D01*
X005531Y018314D01*
X005529Y018340D01*
X000610Y019240D02*
X000612Y019290D01*
X000618Y019340D01*
X000628Y019389D01*
X000642Y019437D01*
X000659Y019484D01*
X000680Y019529D01*
X000705Y019573D01*
X000733Y019614D01*
X000765Y019653D01*
X000799Y019690D01*
X000836Y019724D01*
X000876Y019754D01*
X000918Y019781D01*
X000962Y019805D01*
X001008Y019826D01*
X001055Y019842D01*
X001103Y019855D01*
X001153Y019864D01*
X001202Y019869D01*
X001253Y019870D01*
X001303Y019867D01*
X001352Y019860D01*
X001401Y019849D01*
X001449Y019834D01*
X001495Y019816D01*
X001540Y019794D01*
X001583Y019768D01*
X001624Y019739D01*
X001663Y019707D01*
X001699Y019672D01*
X001731Y019634D01*
X001761Y019594D01*
X001788Y019551D01*
X001811Y019507D01*
X001830Y019461D01*
X001846Y019413D01*
X001858Y019364D01*
X001866Y019315D01*
X001870Y019265D01*
X001870Y019215D01*
X001866Y019165D01*
X001858Y019116D01*
X001846Y019067D01*
X001830Y019019D01*
X001811Y018973D01*
X001788Y018929D01*
X001761Y018886D01*
X001731Y018846D01*
X001699Y018808D01*
X001663Y018773D01*
X001624Y018741D01*
X001583Y018712D01*
X001540Y018686D01*
X001495Y018664D01*
X001449Y018646D01*
X001401Y018631D01*
X001352Y018620D01*
X001303Y018613D01*
X001253Y018610D01*
X001202Y018611D01*
X001153Y018616D01*
X001103Y018625D01*
X001055Y018638D01*
X001008Y018654D01*
X000962Y018675D01*
X000918Y018699D01*
X000876Y018726D01*
X000836Y018756D01*
X000799Y018790D01*
X000765Y018827D01*
X000733Y018866D01*
X000705Y018907D01*
X000680Y018951D01*
X000659Y018996D01*
X000642Y019043D01*
X000628Y019091D01*
X000618Y019140D01*
X000612Y019190D01*
X000610Y019240D01*
X012860Y019240D02*
X012862Y019290D01*
X012868Y019340D01*
X012878Y019389D01*
X012892Y019437D01*
X012909Y019484D01*
X012930Y019529D01*
X012955Y019573D01*
X012983Y019614D01*
X013015Y019653D01*
X013049Y019690D01*
X013086Y019724D01*
X013126Y019754D01*
X013168Y019781D01*
X013212Y019805D01*
X013258Y019826D01*
X013305Y019842D01*
X013353Y019855D01*
X013403Y019864D01*
X013452Y019869D01*
X013503Y019870D01*
X013553Y019867D01*
X013602Y019860D01*
X013651Y019849D01*
X013699Y019834D01*
X013745Y019816D01*
X013790Y019794D01*
X013833Y019768D01*
X013874Y019739D01*
X013913Y019707D01*
X013949Y019672D01*
X013981Y019634D01*
X014011Y019594D01*
X014038Y019551D01*
X014061Y019507D01*
X014080Y019461D01*
X014096Y019413D01*
X014108Y019364D01*
X014116Y019315D01*
X014120Y019265D01*
X014120Y019215D01*
X014116Y019165D01*
X014108Y019116D01*
X014096Y019067D01*
X014080Y019019D01*
X014061Y018973D01*
X014038Y018929D01*
X014011Y018886D01*
X013981Y018846D01*
X013949Y018808D01*
X013913Y018773D01*
X013874Y018741D01*
X013833Y018712D01*
X013790Y018686D01*
X013745Y018664D01*
X013699Y018646D01*
X013651Y018631D01*
X013602Y018620D01*
X013553Y018613D01*
X013503Y018610D01*
X013452Y018611D01*
X013403Y018616D01*
X013353Y018625D01*
X013305Y018638D01*
X013258Y018654D01*
X013212Y018675D01*
X013168Y018699D01*
X013126Y018726D01*
X013086Y018756D01*
X013049Y018790D01*
X013015Y018827D01*
X012983Y018866D01*
X012955Y018907D01*
X012930Y018951D01*
X012909Y018996D01*
X012892Y019043D01*
X012878Y019091D01*
X012868Y019140D01*
X012862Y019190D01*
X012860Y019240D01*
X013110Y001240D02*
X013112Y001290D01*
X013118Y001340D01*
X013128Y001389D01*
X013142Y001437D01*
X013159Y001484D01*
X013180Y001529D01*
X013205Y001573D01*
X013233Y001614D01*
X013265Y001653D01*
X013299Y001690D01*
X013336Y001724D01*
X013376Y001754D01*
X013418Y001781D01*
X013462Y001805D01*
X013508Y001826D01*
X013555Y001842D01*
X013603Y001855D01*
X013653Y001864D01*
X013702Y001869D01*
X013753Y001870D01*
X013803Y001867D01*
X013852Y001860D01*
X013901Y001849D01*
X013949Y001834D01*
X013995Y001816D01*
X014040Y001794D01*
X014083Y001768D01*
X014124Y001739D01*
X014163Y001707D01*
X014199Y001672D01*
X014231Y001634D01*
X014261Y001594D01*
X014288Y001551D01*
X014311Y001507D01*
X014330Y001461D01*
X014346Y001413D01*
X014358Y001364D01*
X014366Y001315D01*
X014370Y001265D01*
X014370Y001215D01*
X014366Y001165D01*
X014358Y001116D01*
X014346Y001067D01*
X014330Y001019D01*
X014311Y000973D01*
X014288Y000929D01*
X014261Y000886D01*
X014231Y000846D01*
X014199Y000808D01*
X014163Y000773D01*
X014124Y000741D01*
X014083Y000712D01*
X014040Y000686D01*
X013995Y000664D01*
X013949Y000646D01*
X013901Y000631D01*
X013852Y000620D01*
X013803Y000613D01*
X013753Y000610D01*
X013702Y000611D01*
X013653Y000616D01*
X013603Y000625D01*
X013555Y000638D01*
X013508Y000654D01*
X013462Y000675D01*
X013418Y000699D01*
X013376Y000726D01*
X013336Y000756D01*
X013299Y000790D01*
X013265Y000827D01*
X013233Y000866D01*
X013205Y000907D01*
X013180Y000951D01*
X013159Y000996D01*
X013142Y001043D01*
X013128Y001091D01*
X013118Y001140D01*
X013112Y001190D01*
X013110Y001240D01*
M02*
